<mxfile host="app.diagrams.net" modified="2023-12-03T00:55:33.896Z" agent="Mozilla/5.0 (Windows NT 10.0; Win64; x64) AppleWebKit/537.36 (KHTML, like Gecko) Chrome/119.0.0.0 Safari/537.36" etag="HhLkkjjC8wH_mm2aN1cC" version="22.1.5" type="github">
  <diagram id="C5RBs43oDa-KdzZeNtuy" name="Page-1">
    <mxGraphModel dx="7405" dy="3312" grid="1" gridSize="10" guides="1" tooltips="1" connect="1" arrows="1" fold="1" page="1" pageScale="1" pageWidth="827" pageHeight="1169" math="0" shadow="0">
      <root>
        <mxCell id="WIyWlLk6GJQsqaUBKTNV-0" />
        <mxCell id="WIyWlLk6GJQsqaUBKTNV-1" parent="WIyWlLk6GJQsqaUBKTNV-0" />
        <mxCell id="ES9p-aZZBJGn_hBReIO3-0" value="" style="group;dropTarget=0;pointerEvents=0;" vertex="1" parent="WIyWlLk6GJQsqaUBKTNV-1">
          <mxGeometry x="-75" y="60" width="1455" height="615" as="geometry" />
        </mxCell>
        <mxCell id="ES9p-aZZBJGn_hBReIO3-1" value="" style="html=1;overflow=block;blockSpacing=1;whiteSpace=wrap;fontSize=13;align=center;spacing=3.8;strokeColor=#333333;strokeOpacity=100;fillOpacity=0;rounded=1;absoluteArcSize=1;arcSize=9;fillColor=#000000;dashed=1;fixDash=1;strokeWidth=0.8;lucidId=d_qRaSm_TGcd;" vertex="1" parent="ES9p-aZZBJGn_hBReIO3-0">
          <mxGeometry y="53" width="1455" height="562" as="geometry" />
        </mxCell>
        <mxCell id="ES9p-aZZBJGn_hBReIO3-2" value=" Artist Aggregate" style="html=1;overflow=block;blockSpacing=1;whiteSpace=wrap;fontSize=16.7;fontColor=#333333;fontStyle=1;align=left;spacing=3.8;strokeOpacity=0;fillOpacity=0;rounded=1;absoluteArcSize=1;arcSize=9;fillColor=#ffffff;dashed=1;fixDash=1;strokeWidth=0.8;lucidId=P_qRRWoxmvb4;" vertex="1" parent="ES9p-aZZBJGn_hBReIO3-0">
          <mxGeometry width="236" height="53" as="geometry" />
        </mxCell>
        <mxCell id="ES9p-aZZBJGn_hBReIO3-3" value="&lt;div style=&quot;display: flex; justify-content: center; text-align: center; align-items: baseline; font-size: 0; line-height: 1.25;margin-top: -2px;&quot;&gt;&lt;span&gt;&lt;span style=&quot;font-size:16.7px;color:#333333;font-style: italic;&quot;&gt;&amp;lt;&amp;lt;Aggregate Root&amp;gt;&amp;gt;&#xa;&lt;/span&gt;&lt;/span&gt;&lt;/div&gt;&lt;div style=&quot;display: flex; justify-content: center; text-align: center; align-items: baseline; font-size: 0; line-height: 1.25;margin-top: -2px;&quot;&gt;&lt;span&gt;&lt;span style=&quot;font-size:16.7px;color:#333333;font-style: italic;&quot;&gt;&amp;lt;&amp;lt;Entity&amp;gt;&amp;gt;&#xa;&lt;/span&gt;&lt;span style=&quot;font-size:16.7px;color:#333333;&quot;&gt;Artist&lt;/span&gt;&lt;/span&gt;&lt;/div&gt;" style="swimlane;childLayout=stackLayout;horizontal=1;horizontalStack=0;resizeParent=1;resizeParentMax=0;resizeLast=0;collapsible=0;fontStyle=0;marginBottom=0;swimlaneFillColor=#fcfcca;startSize=25;whiteSpace=wrap;overflow=block;blockSpacing=1;html=1;fontSize=13;align=left;spacing=0;strokeOpacity=100;fillOpacity=100;rounded=1;absoluteArcSize=1;arcSize=9;fillColor=#fcfcca;strokeWidth=0.8;" vertex="1" parent="WIyWlLk6GJQsqaUBKTNV-1">
          <mxGeometry x="330" y="465" width="325" height="181.25" as="geometry" />
        </mxCell>
        <mxCell id="ES9p-aZZBJGn_hBReIO3-4" value="+ Image: Buffer" style="part=1;resizeHeight=0;strokeColor=none;fillColor=none;align=left;verticalAlign=middle;spacingLeft=4;spacingRight=4;rotatable=0;points=[[0,0.5],[1,0.5]];portConstraint=eastwest;swimlaneFillColor=#fcfcca;strokeOpacity=100;fillOpacity=100;whiteSpace=wrap;overflow=block;blockSpacing=1;html=1;fontSize=13;" vertex="1" parent="ES9p-aZZBJGn_hBReIO3-3">
          <mxGeometry y="25" width="325" height="69" as="geometry" />
        </mxCell>
        <mxCell id="ES9p-aZZBJGn_hBReIO3-5" value="" style="line;strokeWidth=1;fillColor=none;align=left;verticalAlign=middle;spacingTop=-1;spacingLeft=3;spacingRight=3;rotatable=0;labelPosition=right;points=[];portConstraint=eastwest;" vertex="1" parent="ES9p-aZZBJGn_hBReIO3-3">
          <mxGeometry y="94" width="325" height="8" as="geometry" />
        </mxCell>
        <mxCell id="ES9p-aZZBJGn_hBReIO3-6" value="" style="part=1;html=1;resizeHeight=0;strokeColor=none;fillColor=none;align=left;verticalAlign=middle;spacingLeft=4;spacingRight=4;overflow=hidden;rotatable=0;points=[[0,0.5],[1,0.5]];portConstraint=eastwest;swimlaneFillColor=#fcfcca;strokeOpacity=100;fillOpacity=100;whiteSpace=wrap;fontSize=13;" vertex="1" parent="ES9p-aZZBJGn_hBReIO3-3">
          <mxGeometry y="102" width="325" height="79.25" as="geometry" />
        </mxCell>
        <mxCell id="ES9p-aZZBJGn_hBReIO3-7" value="&lt;div style=&quot;display: flex; justify-content: center; text-align: center; align-items: baseline; font-size: 0; line-height: 1.25;margin-top: -2px;&quot;&gt;&lt;span&gt;&lt;span style=&quot;font-size:16.7px;color:#333333;font-style: italic;&quot;&gt;&amp;lt;&amp;lt;Value Object&amp;gt;&amp;gt;&#xa;&lt;/span&gt;&lt;/span&gt;&lt;/div&gt;&lt;div style=&quot;display: flex; justify-content: center; text-align: center; align-items: baseline; font-size: 0; line-height: 1.25;margin-top: -2px;&quot;&gt;&lt;span&gt;&lt;span style=&quot;font-size:16.7px;color:#333333;&quot;&gt;&lt;span style=&quot;font-size:16.7px;color:#333333;&quot;&gt;ArtistId&lt;/span&gt;&lt;/span&gt;&lt;/span&gt;&lt;/div&gt;" style="swimlane;childLayout=stackLayout;horizontal=1;horizontalStack=0;resizeParent=1;resizeParentMax=0;resizeLast=0;collapsible=0;fontStyle=0;marginBottom=0;swimlaneFillColor=#fcfcca;startSize=25;whiteSpace=wrap;overflow=block;blockSpacing=1;html=1;fontSize=13;align=left;spacing=0;strokeOpacity=100;fillOpacity=100;rounded=1;absoluteArcSize=1;arcSize=9;fillColor=#fcfcca;strokeWidth=0.8;" vertex="1" parent="WIyWlLk6GJQsqaUBKTNV-1">
          <mxGeometry x="-45" y="195" width="325" height="217.25" as="geometry" />
        </mxCell>
        <mxCell id="ES9p-aZZBJGn_hBReIO3-8" value="- id: String" style="part=1;resizeHeight=0;strokeColor=none;fillColor=none;align=left;verticalAlign=middle;spacingLeft=4;spacingRight=4;rotatable=0;points=[[0,0.5],[1,0.5]];portConstraint=eastwest;swimlaneFillColor=#fcfcca;strokeOpacity=100;fillOpacity=100;whiteSpace=wrap;overflow=block;blockSpacing=1;html=1;fontSize=13;" vertex="1" parent="ES9p-aZZBJGn_hBReIO3-7">
          <mxGeometry y="25" width="325" height="87" as="geometry" />
        </mxCell>
        <mxCell id="ES9p-aZZBJGn_hBReIO3-9" value="" style="line;strokeWidth=1;fillColor=none;align=left;verticalAlign=middle;spacingTop=-1;spacingLeft=3;spacingRight=3;rotatable=0;labelPosition=right;points=[];portConstraint=eastwest;" vertex="1" parent="ES9p-aZZBJGn_hBReIO3-7">
          <mxGeometry y="112" width="325" height="8" as="geometry" />
        </mxCell>
        <mxCell id="ES9p-aZZBJGn_hBReIO3-10" value="&lt;div style=&quot;display: flex; justify-content: center; text-align: center; align-items: baseline; font-size: 0; line-height: 1.25;margin-top: -2px;&quot;&gt;&lt;span&gt;&lt;span style=&quot;font-size:14px;color:#333333;&quot;&gt;+ create(id: string): void&#xa;&lt;/span&gt;&lt;/span&gt;&lt;/div&gt;&lt;div style=&quot;display: flex; justify-content: center; text-align: center; align-items: baseline; font-size: 0; line-height: 1.25;margin-top: -2px;&quot;&gt;&lt;span&gt;&lt;span style=&quot;font-size:14px;color:#333333;&quot;&gt;+ getId(): string&#xa;&lt;/span&gt;&lt;/span&gt;&lt;/div&gt;&lt;div style=&quot;display: flex; justify-content: center; text-align: center; align-items: baseline; font-size: 0; line-height: 1.25;margin-top: -2px;&quot;&gt;&lt;span&gt;&lt;span style=&quot;font-size:14px;color:#333333;&quot;&gt;+ setId(id: string): void&#xa;&lt;/span&gt;&lt;/span&gt;&lt;/div&gt;&lt;div style=&quot;display: flex; justify-content: center; text-align: center; align-items: baseline; font-size: 0; line-height: 1.25;margin-top: -2px;&quot;&gt;&lt;span&gt;&lt;span style=&quot;font-size:14px;color:#333333;&quot;&gt;- checkUUID(id: string): boolean&#xa;&lt;/span&gt;&lt;/span&gt;&lt;/div&gt;&lt;div style=&quot;display: flex; justify-content: center; text-align: center; align-items: baseline; font-size: 0; line-height: 1.25;margin-top: -2px;&quot;&gt;&lt;span&gt;&lt;span style=&quot;font-size:14px;color:#333333;&quot;&gt;+&lt;/span&gt;&lt;/span&gt;&lt;/div&gt;" style="part=1;html=1;resizeHeight=0;strokeColor=none;fillColor=none;align=left;verticalAlign=middle;spacingLeft=4;spacingRight=4;overflow=hidden;rotatable=0;points=[[0,0.5],[1,0.5]];portConstraint=eastwest;swimlaneFillColor=#fcfcca;strokeOpacity=100;fillOpacity=100;whiteSpace=wrap;fontSize=14;fontColor=#333333;" vertex="1" parent="ES9p-aZZBJGn_hBReIO3-7">
          <mxGeometry y="120" width="325" height="97.25" as="geometry" />
        </mxCell>
        <mxCell id="ES9p-aZZBJGn_hBReIO3-11" value="&lt;div style=&quot;display: flex; justify-content: center; text-align: center; align-items: baseline; font-size: 0; line-height: 1.25;margin-top: -2px;&quot;&gt;&lt;span&gt;&lt;span style=&quot;font-size:16.7px;color:#333333;font-style: italic;&quot;&gt;&amp;lt;&amp;lt;Value Object&amp;gt;&amp;gt;&#xa;&lt;/span&gt;&lt;/span&gt;&lt;/div&gt;&lt;div style=&quot;display: flex; justify-content: center; text-align: center; align-items: baseline; font-size: 0; line-height: 1.25;margin-top: -2px;&quot;&gt;&lt;span&gt;&lt;span style=&quot;font-size:16.7px;color:#333333;&quot;&gt;&lt;span style=&quot;font-size:16.7px;color:#333333;&quot;&gt;ArtistName&lt;/span&gt;&lt;/span&gt;&lt;/span&gt;&lt;/div&gt;" style="swimlane;childLayout=stackLayout;horizontal=1;horizontalStack=0;resizeParent=1;resizeParentMax=0;resizeLast=0;collapsible=0;fontStyle=0;marginBottom=0;swimlaneFillColor=#fcfcca;startSize=25;whiteSpace=wrap;overflow=block;blockSpacing=1;html=1;fontSize=13;align=left;spacing=0;strokeOpacity=100;fillOpacity=100;rounded=1;absoluteArcSize=1;arcSize=9;fillColor=#fcfcca;strokeWidth=0.8;" vertex="1" parent="WIyWlLk6GJQsqaUBKTNV-1">
          <mxGeometry x="330" y="195" width="325" height="217.25" as="geometry" />
        </mxCell>
        <mxCell id="ES9p-aZZBJGn_hBReIO3-12" value="- name: String" style="part=1;resizeHeight=0;strokeColor=none;fillColor=none;align=left;verticalAlign=middle;spacingLeft=4;spacingRight=4;rotatable=0;points=[[0,0.5],[1,0.5]];portConstraint=eastwest;swimlaneFillColor=#fcfcca;strokeOpacity=100;fillOpacity=100;whiteSpace=wrap;overflow=block;blockSpacing=1;html=1;fontSize=13;" vertex="1" parent="ES9p-aZZBJGn_hBReIO3-11">
          <mxGeometry y="25" width="325" height="87" as="geometry" />
        </mxCell>
        <mxCell id="ES9p-aZZBJGn_hBReIO3-13" value="" style="line;strokeWidth=1;fillColor=none;align=left;verticalAlign=middle;spacingTop=-1;spacingLeft=3;spacingRight=3;rotatable=0;labelPosition=right;points=[];portConstraint=eastwest;" vertex="1" parent="ES9p-aZZBJGn_hBReIO3-11">
          <mxGeometry y="112" width="325" height="8" as="geometry" />
        </mxCell>
        <mxCell id="ES9p-aZZBJGn_hBReIO3-14" value="&lt;div style=&quot;display: flex; justify-content: center; text-align: center; align-items: baseline; font-size: 0; line-height: 1.25;margin-top: -2px;&quot;&gt;&lt;span&gt;&lt;span style=&quot;font-size:14px;color:#333333;&quot;&gt;+ create(name: string): void&#xa;&lt;/span&gt;&lt;/span&gt;&lt;/div&gt;&lt;div style=&quot;display: flex; justify-content: center; text-align: center; align-items: baseline; font-size: 0; line-height: 1.25;margin-top: -2px;&quot;&gt;&lt;span&gt;&lt;span style=&quot;font-size:14px;color:#333333;&quot;&gt;+ getName(): string&#xa;&lt;/span&gt;&lt;/span&gt;&lt;/div&gt;&lt;div style=&quot;display: flex; justify-content: center; text-align: center; align-items: baseline; font-size: 0; line-height: 1.25;margin-top: -2px;&quot;&gt;&lt;span&gt;&lt;span style=&quot;font-size:14px;color:#333333;&quot;&gt;+ setName(name: string): void&#xa;&lt;/span&gt;&lt;/span&gt;&lt;/div&gt;&lt;div style=&quot;display: flex; justify-content: center; text-align: center; align-items: baseline; font-size: 0; line-height: 1.25;margin-top: -2px;&quot;&gt;&lt;span&gt;&lt;span style=&quot;font-size:14px;color:#333333;&quot;&gt;- checkName(name: string): boolean&lt;/span&gt;&lt;/span&gt;&lt;/div&gt;" style="part=1;html=1;resizeHeight=0;strokeColor=none;fillColor=none;align=left;verticalAlign=middle;spacingLeft=4;spacingRight=4;overflow=hidden;rotatable=0;points=[[0,0.5],[1,0.5]];portConstraint=eastwest;swimlaneFillColor=#fcfcca;strokeOpacity=100;fillOpacity=100;whiteSpace=wrap;fontSize=14;fontColor=#333333;" vertex="1" parent="ES9p-aZZBJGn_hBReIO3-11">
          <mxGeometry y="120" width="325" height="97.25" as="geometry" />
        </mxCell>
        <mxCell id="ES9p-aZZBJGn_hBReIO3-15" value="&lt;div style=&quot;display: flex; justify-content: center; text-align: center; align-items: baseline; font-size: 0; line-height: 1.25;margin-top: -2px;&quot;&gt;&lt;span&gt;&lt;span style=&quot;font-size:16.7px;color:#333333;font-style: italic;&quot;&gt;&amp;lt;&amp;lt;Value Object&amp;gt;&amp;gt;&#xa;&lt;/span&gt;&lt;/span&gt;&lt;/div&gt;&lt;div style=&quot;display: flex; justify-content: center; text-align: center; align-items: baseline; font-size: 0; line-height: 1.25;margin-top: -2px;&quot;&gt;&lt;span&gt;&lt;span style=&quot;font-size:16.7px;color:#333333;&quot;&gt;&lt;span style=&quot;font-size:16.7px;color:#333333;&quot;&gt;ArtistImageReference&lt;/span&gt;&lt;/span&gt;&lt;/span&gt;&lt;/div&gt;" style="swimlane;childLayout=stackLayout;horizontal=1;horizontalStack=0;resizeParent=1;resizeParentMax=0;resizeLast=0;collapsible=0;fontStyle=0;marginBottom=0;swimlaneFillColor=#fcfcca;startSize=25;whiteSpace=wrap;overflow=block;blockSpacing=1;html=1;fontSize=13;align=left;spacing=0;strokeOpacity=100;fillOpacity=100;rounded=1;absoluteArcSize=1;arcSize=9;fillColor=#fcfcca;strokeWidth=0.8;" vertex="1" parent="WIyWlLk6GJQsqaUBKTNV-1">
          <mxGeometry x="687" y="195" width="325" height="217.25" as="geometry" />
        </mxCell>
        <mxCell id="ES9p-aZZBJGn_hBReIO3-16" value="- reference: String" style="part=1;resizeHeight=0;strokeColor=none;fillColor=none;align=left;verticalAlign=middle;spacingLeft=4;spacingRight=4;rotatable=0;points=[[0,0.5],[1,0.5]];portConstraint=eastwest;swimlaneFillColor=#fcfcca;strokeOpacity=100;fillOpacity=100;whiteSpace=wrap;overflow=block;blockSpacing=1;html=1;fontSize=13;" vertex="1" parent="ES9p-aZZBJGn_hBReIO3-15">
          <mxGeometry y="25" width="325" height="87" as="geometry" />
        </mxCell>
        <mxCell id="ES9p-aZZBJGn_hBReIO3-17" value="" style="line;strokeWidth=1;fillColor=none;align=left;verticalAlign=middle;spacingTop=-1;spacingLeft=3;spacingRight=3;rotatable=0;labelPosition=right;points=[];portConstraint=eastwest;" vertex="1" parent="ES9p-aZZBJGn_hBReIO3-15">
          <mxGeometry y="112" width="325" height="8" as="geometry" />
        </mxCell>
        <mxCell id="ES9p-aZZBJGn_hBReIO3-18" value="&lt;div style=&quot;display: flex; justify-content: center; text-align: center; align-items: baseline; font-size: 0; line-height: 1.25;margin-top: -2px;&quot;&gt;&lt;span&gt;&lt;span style=&quot;font-size:14px;color:#333333;&quot;&gt;+ create(reference: string): void&#xa;&lt;/span&gt;&lt;/span&gt;&lt;/div&gt;&lt;div style=&quot;display: flex; justify-content: center; text-align: center; align-items: baseline; font-size: 0; line-height: 1.25;margin-top: -2px;&quot;&gt;&lt;span&gt;&lt;span style=&quot;font-size:14px;color:#333333;&quot;&gt;+ getReference(): string&#xa;&lt;/span&gt;&lt;/span&gt;&lt;/div&gt;&lt;div style=&quot;display: flex; justify-content: center; text-align: center; align-items: baseline; font-size: 0; line-height: 1.25;margin-top: -2px;&quot;&gt;&lt;span&gt;&lt;span style=&quot;font-size:14px;color:#333333;&quot;&gt;+ setReference(reference: string): void&#xa;&lt;/span&gt;&lt;/span&gt;&lt;/div&gt;&lt;div style=&quot;display: flex; justify-content: center; text-align: center; align-items: baseline; font-size: 0; line-height: 1.25;margin-top: -2px;&quot;&gt;&lt;span&gt;&lt;span style=&quot;font-size:14px;color:#333333;&quot;&gt;- checkReference(reference: string): boolean&lt;/span&gt;&lt;/span&gt;&lt;/div&gt;" style="part=1;html=1;resizeHeight=0;strokeColor=none;fillColor=none;align=left;verticalAlign=middle;spacingLeft=4;spacingRight=4;overflow=hidden;rotatable=0;points=[[0,0.5],[1,0.5]];portConstraint=eastwest;swimlaneFillColor=#fcfcca;strokeOpacity=100;fillOpacity=100;whiteSpace=wrap;fontSize=14;fontColor=#333333;" vertex="1" parent="ES9p-aZZBJGn_hBReIO3-15">
          <mxGeometry y="120" width="325" height="97.25" as="geometry" />
        </mxCell>
        <mxCell id="ES9p-aZZBJGn_hBReIO3-19" value="" style="html=1;jettySize=18;whiteSpace=wrap;fontSize=13;strokeOpacity=100;strokeWidth=0.8;rounded=1;arcSize=12;edgeStyle=orthogonalEdgeStyle;startArrow=diamond;startFill=1;startSize=16;endArrow=none;exitX=0.5;exitY=-0.002;exitPerimeter=0;entryX=0.5;entryY=1.002;entryPerimeter=0;lucidId=a-qRq779Wc_R;" edge="1" parent="WIyWlLk6GJQsqaUBKTNV-1" source="ES9p-aZZBJGn_hBReIO3-3" target="ES9p-aZZBJGn_hBReIO3-11">
          <mxGeometry width="100" height="100" relative="1" as="geometry">
            <Array as="points" />
          </mxGeometry>
        </mxCell>
        <mxCell id="ES9p-aZZBJGn_hBReIO3-20" value="1" style="text;html=1;resizable=0;labelBackgroundColor=default;align=center;verticalAlign=middle;fontStyle=1;fontColor=#333333;fontSize=13.3;" vertex="1" parent="ES9p-aZZBJGn_hBReIO3-19">
          <mxGeometry x="0.5758438607727554" relative="1" as="geometry">
            <mxPoint as="offset" />
          </mxGeometry>
        </mxCell>
        <mxCell id="ES9p-aZZBJGn_hBReIO3-21" value="" style="html=1;jettySize=18;whiteSpace=wrap;fontSize=13;strokeOpacity=100;strokeWidth=0.8;rounded=1;arcSize=12;edgeStyle=orthogonalEdgeStyle;startArrow=diamond;startFill=1;startSize=16;endArrow=none;exitX=1.001;exitY=0.5;exitPerimeter=0;entryX=0.5;entryY=1.002;entryPerimeter=0;lucidId=u-qRFXDY80Hu;" edge="1" parent="WIyWlLk6GJQsqaUBKTNV-1" source="ES9p-aZZBJGn_hBReIO3-3" target="ES9p-aZZBJGn_hBReIO3-15">
          <mxGeometry width="100" height="100" relative="1" as="geometry">
            <Array as="points" />
          </mxGeometry>
        </mxCell>
        <mxCell id="ES9p-aZZBJGn_hBReIO3-22" value="1" style="text;html=1;resizable=0;labelBackgroundColor=default;align=center;verticalAlign=middle;fontStyle=1;fontColor=#333333;fontSize=13.3;" vertex="1" parent="ES9p-aZZBJGn_hBReIO3-21">
          <mxGeometry x="0.8815237149484014" relative="1" as="geometry">
            <mxPoint as="offset" />
          </mxGeometry>
        </mxCell>
        <mxCell id="ES9p-aZZBJGn_hBReIO3-23" value="" style="html=1;jettySize=18;whiteSpace=wrap;fontSize=13;strokeOpacity=100;strokeWidth=0.8;rounded=1;arcSize=12;edgeStyle=orthogonalEdgeStyle;startArrow=diamond;startFill=1;startSize=16;endArrow=none;exitX=-0.001;exitY=0.5;exitPerimeter=0;entryX=0.5;entryY=1.002;entryPerimeter=0;lucidId=K-qRdNkB9YN7;" edge="1" parent="WIyWlLk6GJQsqaUBKTNV-1" source="ES9p-aZZBJGn_hBReIO3-3" target="ES9p-aZZBJGn_hBReIO3-7">
          <mxGeometry width="100" height="100" relative="1" as="geometry">
            <Array as="points" />
          </mxGeometry>
        </mxCell>
        <mxCell id="ES9p-aZZBJGn_hBReIO3-24" value="1" style="text;html=1;resizable=0;labelBackgroundColor=default;align=center;verticalAlign=middle;fontStyle=1;fontColor=#333333;fontSize=13.3;" vertex="1" parent="ES9p-aZZBJGn_hBReIO3-23">
          <mxGeometry x="0.8815237149484014" relative="1" as="geometry">
            <mxPoint as="offset" />
          </mxGeometry>
        </mxCell>
        <mxCell id="ES9p-aZZBJGn_hBReIO3-25" value="" style="group;dropTarget=0;pointerEvents=0;" vertex="1" parent="WIyWlLk6GJQsqaUBKTNV-1">
          <mxGeometry x="-1230" y="-600" width="1110" height="1005" as="geometry" />
        </mxCell>
        <mxCell id="ES9p-aZZBJGn_hBReIO3-26" value="" style="html=1;overflow=block;blockSpacing=1;whiteSpace=wrap;fontSize=13;align=center;spacing=3.8;strokeColor=#333333;strokeOpacity=100;fillOpacity=0;rounded=1;absoluteArcSize=1;arcSize=9;fillColor=#000000;dashed=1;fixDash=1;strokeWidth=0.8;lucidId=qQxR1vA1g0Zt;" vertex="1" parent="ES9p-aZZBJGn_hBReIO3-25">
          <mxGeometry y="86" width="1110" height="919" as="geometry" />
        </mxCell>
        <mxCell id="ES9p-aZZBJGn_hBReIO3-27" value=" Song Aggregate" style="html=1;overflow=block;blockSpacing=1;whiteSpace=wrap;fontSize=16.7;fontColor=#333333;fontStyle=1;align=left;spacing=3.8;strokeOpacity=0;fillOpacity=0;rounded=1;absoluteArcSize=1;arcSize=9;fillColor=#ffffff;dashed=1;fixDash=1;strokeWidth=0.8;lucidId=qQxR9JLtG.ha;" vertex="1" parent="ES9p-aZZBJGn_hBReIO3-25">
          <mxGeometry width="180" height="86" as="geometry" />
        </mxCell>
        <mxCell id="ES9p-aZZBJGn_hBReIO3-28" value="&lt;div style=&quot;display: flex; justify-content: center; text-align: center; align-items: baseline; font-size: 0; line-height: 1.25;margin-top: -2px;&quot;&gt;&lt;span&gt;&lt;span style=&quot;font-size:16.7px;color:#333333;font-style: italic;&quot;&gt;&amp;lt;&amp;lt;Aggregate Root&amp;gt;&amp;gt;&#xa;&lt;/span&gt;&lt;/span&gt;&lt;/div&gt;&lt;div style=&quot;display: flex; justify-content: center; text-align: center; align-items: baseline; font-size: 0; line-height: 1.25;margin-top: -2px;&quot;&gt;&lt;span&gt;&lt;span style=&quot;font-size:16.7px;color:#333333;font-style: italic;&quot;&gt;&amp;lt;&amp;lt;Entity&amp;gt;&amp;gt;&#xa;&lt;/span&gt;&lt;span style=&quot;font-size:16.7px;color:#333333;&quot;&gt;Song&lt;/span&gt;&lt;/span&gt;&lt;/div&gt;" style="swimlane;childLayout=stackLayout;horizontal=1;horizontalStack=0;resizeParent=1;resizeParentMax=0;resizeLast=0;collapsible=0;fontStyle=0;marginBottom=0;swimlaneFillColor=#fcfcca;startSize=25;whiteSpace=wrap;overflow=block;blockSpacing=1;html=1;fontSize=13;align=left;spacing=0;strokeOpacity=100;fillOpacity=100;rounded=1;absoluteArcSize=1;arcSize=9;fillColor=#fcfcca;strokeWidth=0.8;" vertex="1" parent="WIyWlLk6GJQsqaUBKTNV-1">
          <mxGeometry x="-840" y="-330" width="325" height="331.25" as="geometry" />
        </mxCell>
        <mxCell id="ES9p-aZZBJGn_hBReIO3-29" value="" style="part=1;resizeHeight=0;strokeColor=none;fillColor=none;align=left;verticalAlign=middle;spacingLeft=4;spacingRight=4;rotatable=0;points=[[0,0.5],[1,0.5]];portConstraint=eastwest;swimlaneFillColor=#fcfcca;strokeOpacity=100;fillOpacity=100;whiteSpace=wrap;overflow=block;blockSpacing=1;html=1;fontSize=13;" vertex="1" parent="ES9p-aZZBJGn_hBReIO3-28">
          <mxGeometry y="25" width="325" height="145" as="geometry" />
        </mxCell>
        <mxCell id="ES9p-aZZBJGn_hBReIO3-30" value="" style="line;strokeWidth=1;fillColor=none;align=left;verticalAlign=middle;spacingTop=-1;spacingLeft=3;spacingRight=3;rotatable=0;labelPosition=right;points=[];portConstraint=eastwest;" vertex="1" parent="ES9p-aZZBJGn_hBReIO3-28">
          <mxGeometry y="170" width="325" height="8" as="geometry" />
        </mxCell>
        <mxCell id="ES9p-aZZBJGn_hBReIO3-31" value="" style="part=1;html=1;resizeHeight=0;strokeColor=none;fillColor=none;align=left;verticalAlign=middle;spacingLeft=4;spacingRight=4;overflow=hidden;rotatable=0;points=[[0,0.5],[1,0.5]];portConstraint=eastwest;swimlaneFillColor=#fcfcca;strokeOpacity=100;fillOpacity=100;whiteSpace=wrap;fontSize=13;" vertex="1" parent="ES9p-aZZBJGn_hBReIO3-28">
          <mxGeometry y="178" width="325" height="153.25" as="geometry" />
        </mxCell>
        <mxCell id="ES9p-aZZBJGn_hBReIO3-32" value="&lt;div style=&quot;display: flex; justify-content: center; text-align: center; align-items: baseline; font-size: 0; line-height: 1.25;margin-top: -2px;&quot;&gt;&lt;span&gt;&lt;span style=&quot;font-size:16.7px;color:#333333;font-style: italic;&quot;&gt;&amp;lt;&amp;lt;Value Object&amp;gt;&amp;gt;&#xa;&lt;/span&gt;&lt;/span&gt;&lt;/div&gt;&lt;div style=&quot;display: flex; justify-content: center; text-align: center; align-items: baseline; font-size: 0; line-height: 1.25;margin-top: -2px;&quot;&gt;&lt;span&gt;&lt;span style=&quot;font-size:16.7px;&quot;&gt;&lt;span style=&quot;font-size:16.7px;color:#fe7070;&quot;&gt;ImageDetails&lt;/span&gt;&lt;/span&gt;&lt;/span&gt;&lt;/div&gt;" style="swimlane;childLayout=stackLayout;horizontal=1;horizontalStack=0;resizeParent=1;resizeParentMax=0;resizeLast=0;collapsible=0;fontStyle=0;marginBottom=0;swimlaneFillColor=#fcfcca;startSize=25;whiteSpace=wrap;overflow=block;blockSpacing=1;html=1;fontSize=13;align=left;spacing=0;strokeOpacity=100;fillOpacity=100;rounded=1;absoluteArcSize=1;arcSize=9;fillColor=#fcfcca;strokeWidth=0.8;" vertex="1" parent="WIyWlLk6GJQsqaUBKTNV-1">
          <mxGeometry x="1035" y="195" width="325" height="217.25" as="geometry" />
        </mxCell>
        <mxCell id="ES9p-aZZBJGn_hBReIO3-33" value="- reference: String" style="part=1;resizeHeight=0;strokeColor=none;fillColor=none;align=left;verticalAlign=middle;spacingLeft=4;spacingRight=4;rotatable=0;points=[[0,0.5],[1,0.5]];portConstraint=eastwest;swimlaneFillColor=#fcfcca;strokeOpacity=100;fillOpacity=100;whiteSpace=wrap;overflow=block;blockSpacing=1;html=1;fontSize=13;" vertex="1" parent="ES9p-aZZBJGn_hBReIO3-32">
          <mxGeometry y="25" width="325" height="87" as="geometry" />
        </mxCell>
        <mxCell id="ES9p-aZZBJGn_hBReIO3-34" value="" style="line;strokeWidth=1;fillColor=none;align=left;verticalAlign=middle;spacingTop=-1;spacingLeft=3;spacingRight=3;rotatable=0;labelPosition=right;points=[];portConstraint=eastwest;" vertex="1" parent="ES9p-aZZBJGn_hBReIO3-32">
          <mxGeometry y="112" width="325" height="8" as="geometry" />
        </mxCell>
        <mxCell id="ES9p-aZZBJGn_hBReIO3-35" value="&lt;div style=&quot;display: flex; justify-content: center; text-align: center; align-items: baseline; font-size: 0; line-height: 1.25;margin-top: -2px;&quot;&gt;&lt;span&gt;&lt;span style=&quot;font-size:14px;color:#333333;&quot;&gt;+ create(reference: string): void&#xa;&lt;/span&gt;&lt;/span&gt;&lt;/div&gt;&lt;div style=&quot;display: flex; justify-content: center; text-align: center; align-items: baseline; font-size: 0; line-height: 1.25;margin-top: -2px;&quot;&gt;&lt;span&gt;&lt;span style=&quot;font-size:14px;color:#333333;&quot;&gt;+ getReference(): string&#xa;&lt;/span&gt;&lt;/span&gt;&lt;/div&gt;&lt;div style=&quot;display: flex; justify-content: center; text-align: center; align-items: baseline; font-size: 0; line-height: 1.25;margin-top: -2px;&quot;&gt;&lt;span&gt;&lt;span style=&quot;font-size:14px;color:#333333;&quot;&gt;+ setReference(reference: string): void&#xa;&lt;/span&gt;&lt;/span&gt;&lt;/div&gt;&lt;div style=&quot;display: flex; justify-content: center; text-align: center; align-items: baseline; font-size: 0; line-height: 1.25;margin-top: -2px;&quot;&gt;&lt;span&gt;&lt;span style=&quot;font-size:14px;color:#333333;&quot;&gt;- checkReference(reference: string): boolean&lt;/span&gt;&lt;/span&gt;&lt;/div&gt;" style="part=1;html=1;resizeHeight=0;strokeColor=none;fillColor=none;align=left;verticalAlign=middle;spacingLeft=4;spacingRight=4;overflow=hidden;rotatable=0;points=[[0,0.5],[1,0.5]];portConstraint=eastwest;swimlaneFillColor=#fcfcca;strokeOpacity=100;fillOpacity=100;whiteSpace=wrap;fontSize=14;fontColor=#333333;" vertex="1" parent="ES9p-aZZBJGn_hBReIO3-32">
          <mxGeometry y="120" width="325" height="97.25" as="geometry" />
        </mxCell>
        <mxCell id="ES9p-aZZBJGn_hBReIO3-36" value="" style="html=1;jettySize=18;whiteSpace=wrap;fontSize=13;strokeOpacity=100;strokeWidth=0.8;rounded=1;arcSize=12;edgeStyle=orthogonalEdgeStyle;startArrow=diamond;startFill=1;startSize=16;endArrow=none;exitX=1.001;exitY=0.773;exitPerimeter=0;entryX=0.488;entryY=1.002;entryPerimeter=0;lucidId=pTxRP2yQnndf;" edge="1" parent="WIyWlLk6GJQsqaUBKTNV-1" source="ES9p-aZZBJGn_hBReIO3-3" target="ES9p-aZZBJGn_hBReIO3-32">
          <mxGeometry width="100" height="100" relative="1" as="geometry">
            <Array as="points" />
          </mxGeometry>
        </mxCell>
        <mxCell id="ES9p-aZZBJGn_hBReIO3-37" value="1" style="text;html=1;resizable=0;labelBackgroundColor=default;align=center;verticalAlign=middle;fontStyle=1;fontColor=#333333;fontSize=13.3;" vertex="1" parent="ES9p-aZZBJGn_hBReIO3-36">
          <mxGeometry x="0.8815237149484014" relative="1" as="geometry">
            <mxPoint as="offset" />
          </mxGeometry>
        </mxCell>
        <mxCell id="ES9p-aZZBJGn_hBReIO3-38" value="&lt;div style=&quot;display: flex; justify-content: center; text-align: center; align-items: baseline; font-size: 0; line-height: 1.25;margin-top: -2px;&quot;&gt;&lt;span&gt;&lt;span style=&quot;font-size:16.7px;color:#333333;font-style: italic;&quot;&gt;&amp;lt;&amp;lt;Value Object&amp;gt;&amp;gt;&#xa;&lt;/span&gt;&lt;/span&gt;&lt;/div&gt;&lt;div style=&quot;display: flex; justify-content: center; text-align: center; align-items: baseline; font-size: 0; line-height: 1.25;margin-top: -2px;&quot;&gt;&lt;span&gt;&lt;span style=&quot;font-size:16.7px;color:#333333;&quot;&gt;&lt;span style=&quot;font-size:16.7px;color:#333333;&quot;&gt;Idsong&lt;/span&gt;&lt;/span&gt;&lt;/span&gt;&lt;/div&gt;" style="swimlane;childLayout=stackLayout;horizontal=1;horizontalStack=0;resizeParent=1;resizeParentMax=0;resizeLast=0;collapsible=0;fontStyle=0;marginBottom=0;swimlaneFillColor=#fcfcca;startSize=25;whiteSpace=wrap;overflow=block;blockSpacing=1;html=1;fontSize=13;align=left;spacing=0;strokeOpacity=100;fillOpacity=100;rounded=1;absoluteArcSize=1;arcSize=9;fillColor=#fcfcca;strokeWidth=0.8;" vertex="1" parent="WIyWlLk6GJQsqaUBKTNV-1">
          <mxGeometry x="-1200" y="-435" width="325" height="162.25" as="geometry" />
        </mxCell>
        <mxCell id="ES9p-aZZBJGn_hBReIO3-39" value="id:number" style="part=1;resizeHeight=0;strokeColor=none;fillColor=none;align=left;verticalAlign=middle;spacingLeft=4;spacingRight=4;rotatable=0;points=[[0,0.5],[1,0.5]];portConstraint=eastwest;swimlaneFillColor=#fcfcca;strokeOpacity=100;fillOpacity=100;whiteSpace=wrap;overflow=block;blockSpacing=1;html=1;fontSize=13;" vertex="1" parent="ES9p-aZZBJGn_hBReIO3-38">
          <mxGeometry y="25" width="325" height="59" as="geometry" />
        </mxCell>
        <mxCell id="ES9p-aZZBJGn_hBReIO3-40" value="" style="line;strokeWidth=1;fillColor=none;align=left;verticalAlign=middle;spacingTop=-1;spacingLeft=3;spacingRight=3;rotatable=0;labelPosition=right;points=[];portConstraint=eastwest;" vertex="1" parent="ES9p-aZZBJGn_hBReIO3-38">
          <mxGeometry y="84" width="325" height="8" as="geometry" />
        </mxCell>
        <mxCell id="ES9p-aZZBJGn_hBReIO3-41" value="" style="part=1;html=1;resizeHeight=0;strokeColor=none;fillColor=none;align=left;verticalAlign=middle;spacingLeft=4;spacingRight=4;overflow=hidden;rotatable=0;points=[[0,0.5],[1,0.5]];portConstraint=eastwest;swimlaneFillColor=#fcfcca;strokeOpacity=100;fillOpacity=100;whiteSpace=wrap;fontSize=13;" vertex="1" parent="ES9p-aZZBJGn_hBReIO3-38">
          <mxGeometry y="92" width="325" height="70.25" as="geometry" />
        </mxCell>
        <mxCell id="ES9p-aZZBJGn_hBReIO3-42" value="" style="html=1;jettySize=18;whiteSpace=wrap;fontSize=13;strokeOpacity=100;strokeWidth=0.8;rounded=1;arcSize=12;edgeStyle=orthogonalEdgeStyle;startArrow=none;exitX=0.928;exitY=1;exitPerimeter=0;entryX=0;entryY=0.743;entryPerimeter=0;lucidId=OTxRHtRGVF9.;" edge="1" parent="WIyWlLk6GJQsqaUBKTNV-1" source="ES9p-aZZBJGn_hBReIO3-26" target="ES9p-aZZBJGn_hBReIO3-1">
          <mxGeometry width="100" height="100" relative="1" as="geometry">
            <Array as="points">
              <mxPoint x="-200" y="530" />
            </Array>
          </mxGeometry>
        </mxCell>
        <mxCell id="ES9p-aZZBJGn_hBReIO3-43" value="Use" style="text;html=1;resizable=0;labelBackgroundColor=default;align=center;verticalAlign=middle;fontStyle=1;fontColor=#333333;fontSize=20;" vertex="1" parent="ES9p-aZZBJGn_hBReIO3-42">
          <mxGeometry x="0.390579644897022" relative="1" as="geometry">
            <mxPoint as="offset" />
          </mxGeometry>
        </mxCell>
        <mxCell id="ES9p-aZZBJGn_hBReIO3-44" value="&lt;div style=&quot;display: flex; justify-content: flex-start; text-align: left; align-items: baseline; font-size: 0; line-height: 1.25;margin-top: -2px;&quot;&gt;&lt;span&gt;&lt;span style=&quot;font-size:16.7px;color:#008a0e;font-weight: bold;&quot;&gt;Artist&lt;/span&gt;&lt;span style=&quot;font-size:16.7px;color:#333333;font-weight: bold;&quot;&gt;&#xa;&lt;/span&gt;&lt;/span&gt;&lt;/div&gt;&lt;div style=&quot;display: flex; justify-content: flex-start; text-align: left; align-items: baseline; font-size: 0; line-height: 1.25;margin-top: -2px;&quot;&gt;&lt;span&gt;&lt;span style=&quot;font-size:16.7px;color:#333333;font-weight: bold;&quot;&gt;Songs(listo)&#xa;&lt;/span&gt;&lt;/span&gt;&lt;/div&gt;&lt;div style=&quot;display: flex; justify-content: flex-start; text-align: left; align-items: baseline; font-size: 0; line-height: 1.25;margin-top: -2px;&quot;&gt;&lt;span&gt;&lt;span style=&quot;font-size:16.7px;font-weight: bold;&quot;&gt;&lt;span style=&quot;font-size:16.7px;color:#fc9432;font-weight: bold;&quot;&gt;User&#xa;&lt;/span&gt;&lt;/span&gt;&lt;/span&gt;&lt;/div&gt;&lt;div style=&quot;display: flex; justify-content: flex-start; text-align: left; align-items: baseline; font-size: 0; line-height: 1.25;margin-top: -2px;&quot;&gt;&lt;span&gt;&lt;span style=&quot;font-size:16.7px;color:#fc9432;font-weight: bold;&quot;&gt;Phone(listo)&lt;/span&gt;&lt;span style=&quot;font-size:16.7px;color:#333333;font-weight: bold;&quot;&gt;&#xa;&lt;/span&gt;&lt;/span&gt;&lt;/div&gt;&lt;div style=&quot;display: flex; justify-content: flex-start; text-align: left; align-items: baseline; font-size: 0; line-height: 1.25;margin-top: -2px;&quot;&gt;&lt;span&gt;&lt;span style=&quot;font-size:16.7px;font-weight: bold;&quot;&gt;&lt;span style=&quot;font-size:16.7px;color:#008a0e;font-weight: bold;&quot;&gt;Playlist&lt;/span&gt;&lt;span style=&quot;font-size:16.7px;color:#333333;font-weight: bold;&quot;&gt;&#xa;&lt;/span&gt;&lt;/span&gt;&lt;/span&gt;&lt;/div&gt;&lt;div style=&quot;display: flex; justify-content: flex-start; text-align: left; align-items: baseline; font-size: 0; line-height: 1.25;margin-top: -2px;&quot;&gt;&lt;span&gt;&lt;span style=&quot;font-size:16.7px;font-weight: bold;&quot;&gt;&lt;span style=&quot;font-size:16.7px;color:#008573;font-weight: bold;&quot;&gt;Promotions&lt;/span&gt;&lt;span style=&quot;font-size:16.7px;color:#333333;font-weight: bold;&quot;&gt;&#xa;&lt;/span&gt;&lt;/span&gt;&lt;/span&gt;&lt;/div&gt;&lt;div style=&quot;display: flex; justify-content: flex-start; text-align: left; align-items: baseline; font-size: 0; line-height: 1.25;margin-top: -2px;&quot;&gt;&lt;span&gt;&lt;span style=&quot;font-size:16.7px;color:#333333;font-weight: bold;&quot;&gt;&#xa;&lt;/span&gt;&lt;/span&gt;&lt;/div&gt;&lt;div style=&quot;display: flex; justify-content: flex-start; text-align: left; align-items: baseline; font-size: 0; line-height: 1.25;margin-top: -2px;&quot;&gt;&lt;span&gt;&lt;/span&gt;&lt;/div&gt;" style="html=1;overflow=block;blockSpacing=1;whiteSpace=wrap;fontSize=13;spacing=3.8;verticalAlign=middle;strokeOpacity=100;rounded=1;absoluteArcSize=1;arcSize=9;dashed=1;fixDash=1;strokeWidth=0.8;lucidId=dVxRnawy0VHe;" vertex="1" parent="WIyWlLk6GJQsqaUBKTNV-1">
          <mxGeometry x="-900" y="900" width="120" height="168" as="geometry" />
        </mxCell>
        <mxCell id="ES9p-aZZBJGn_hBReIO3-45" value="" style="group;dropTarget=0;pointerEvents=0;" vertex="1" parent="WIyWlLk6GJQsqaUBKTNV-1">
          <mxGeometry x="-75" y="840" width="1470" height="855" as="geometry" />
        </mxCell>
        <mxCell id="ES9p-aZZBJGn_hBReIO3-46" value="" style="html=1;overflow=block;blockSpacing=1;whiteSpace=wrap;fontSize=13;align=center;spacing=3.8;strokeColor=#333333;strokeOpacity=100;fillOpacity=0;rounded=1;absoluteArcSize=1;arcSize=9;fillColor=#000000;dashed=1;fixDash=1;strokeWidth=0.8;lucidId=ZWxRVRM9UGYv;" vertex="1" parent="ES9p-aZZBJGn_hBReIO3-45">
          <mxGeometry y="74" width="1470" height="781" as="geometry" />
        </mxCell>
        <mxCell id="ES9p-aZZBJGn_hBReIO3-47" value=" User Aggregate" style="html=1;overflow=block;blockSpacing=1;whiteSpace=wrap;fontSize=16.7;fontColor=#333333;fontStyle=1;align=left;spacing=3.8;strokeOpacity=0;fillOpacity=0;rounded=1;absoluteArcSize=1;arcSize=9;fillColor=#ffffff;dashed=1;fixDash=1;strokeWidth=0.8;lucidId=ZWxRHX6sFU_s;" vertex="1" parent="ES9p-aZZBJGn_hBReIO3-45">
          <mxGeometry width="238" height="73" as="geometry" />
        </mxCell>
        <mxCell id="ES9p-aZZBJGn_hBReIO3-48" value="" style="group;dropTarget=0;pointerEvents=0;" vertex="1" parent="WIyWlLk6GJQsqaUBKTNV-1">
          <mxGeometry x="-2595" y="75" width="1320" height="750" as="geometry" />
        </mxCell>
        <mxCell id="ES9p-aZZBJGn_hBReIO3-49" value="" style="html=1;overflow=block;blockSpacing=1;whiteSpace=wrap;fontSize=13;align=center;spacing=3.8;strokeColor=#333333;strokeOpacity=100;fillOpacity=0;rounded=1;absoluteArcSize=1;arcSize=9;fillColor=#000000;dashed=1;fixDash=1;strokeWidth=0.8;lucidId=aXxRJcW8ftdq;" vertex="1" parent="ES9p-aZZBJGn_hBReIO3-48">
          <mxGeometry y="64" width="1320" height="686" as="geometry" />
        </mxCell>
        <mxCell id="ES9p-aZZBJGn_hBReIO3-50" value="Playlist Aggregate" style="html=1;overflow=block;blockSpacing=1;whiteSpace=wrap;fontSize=16.7;fontColor=#333333;fontStyle=1;align=left;spacing=3.8;strokeOpacity=0;fillOpacity=0;rounded=1;absoluteArcSize=1;arcSize=9;fillColor=#ffffff;dashed=1;fixDash=1;strokeWidth=0.8;lucidId=aXxR_yqcR6Ez;" vertex="1" parent="ES9p-aZZBJGn_hBReIO3-48">
          <mxGeometry width="214" height="64" as="geometry" />
        </mxCell>
        <mxCell id="ES9p-aZZBJGn_hBReIO3-51" value="" style="group;dropTarget=0;pointerEvents=0;" vertex="1" parent="WIyWlLk6GJQsqaUBKTNV-1">
          <mxGeometry x="1498" y="910" width="957" height="615" as="geometry" />
        </mxCell>
        <mxCell id="ES9p-aZZBJGn_hBReIO3-52" value="" style="html=1;overflow=block;blockSpacing=1;whiteSpace=wrap;fontSize=13;align=center;spacing=3.8;strokeColor=#333333;strokeOpacity=100;fillOpacity=0;rounded=1;absoluteArcSize=1;arcSize=9;fillColor=#000000;dashed=1;fixDash=1;strokeWidth=0.8;lucidId=oXxR6T.UUC-u;" vertex="1" parent="ES9p-aZZBJGn_hBReIO3-51">
          <mxGeometry y="53" width="957" height="562" as="geometry" />
        </mxCell>
        <mxCell id="ES9p-aZZBJGn_hBReIO3-53" value=" Promotions Aggregate" style="html=1;overflow=block;blockSpacing=1;whiteSpace=wrap;fontSize=16.7;fontStyle=1;align=left;spacing=3.8;strokeOpacity=0;fillOpacity=0;rounded=1;absoluteArcSize=1;arcSize=9;fillColor=#ffffff;dashed=1;fixDash=1;strokeWidth=0.8;lucidId=oXxRkTz8HbEb;" vertex="1" parent="ES9p-aZZBJGn_hBReIO3-51">
          <mxGeometry width="252" height="53" as="geometry" />
        </mxCell>
        <mxCell id="ES9p-aZZBJGn_hBReIO3-54" value="&lt;div style=&quot;display: flex; justify-content: center; text-align: center; align-items: baseline; font-size: 0; line-height: 1.25;margin-top: -2px;&quot;&gt;&lt;span&gt;&lt;span style=&quot;font-size:16.7px;color:#333333;font-style: italic;&quot;&gt;&amp;lt;&amp;lt;Aggregate Root&amp;gt;&amp;gt;&#xa;&lt;/span&gt;&lt;/span&gt;&lt;/div&gt;&lt;div style=&quot;display: flex; justify-content: center; text-align: center; align-items: baseline; font-size: 0; line-height: 1.25;margin-top: -2px;&quot;&gt;&lt;span&gt;&lt;span style=&quot;font-size:16.7px;color:#333333;font-style: italic;&quot;&gt;&amp;lt;&amp;lt;Entity&amp;gt;&amp;gt;&#xa;&lt;/span&gt;&lt;span style=&quot;font-size:16.7px;color:#333333;&quot;&gt;Playlist&lt;/span&gt;&lt;/span&gt;&lt;/div&gt;" style="swimlane;childLayout=stackLayout;horizontal=1;horizontalStack=0;resizeParent=1;resizeParentMax=0;resizeLast=0;collapsible=0;fontStyle=0;marginBottom=0;swimlaneFillColor=#fcfcca;startSize=25;whiteSpace=wrap;overflow=block;blockSpacing=1;html=1;fontSize=13;align=left;spacing=0;strokeOpacity=100;fillOpacity=100;rounded=1;absoluteArcSize=1;arcSize=9;fillColor=#fcfcca;strokeWidth=0.8;" vertex="1" parent="WIyWlLk6GJQsqaUBKTNV-1">
          <mxGeometry x="-1620" y="420" width="285" height="181.25" as="geometry" />
        </mxCell>
        <mxCell id="ES9p-aZZBJGn_hBReIO3-55" value="+ playlist_Image" style="part=1;resizeHeight=0;strokeColor=none;fillColor=none;align=left;verticalAlign=middle;spacingLeft=4;spacingRight=4;rotatable=0;points=[[0,0.5],[1,0.5]];portConstraint=eastwest;swimlaneFillColor=#fcfcca;strokeOpacity=100;fillOpacity=100;whiteSpace=wrap;overflow=block;blockSpacing=1;html=1;fontSize=13;" vertex="1" parent="ES9p-aZZBJGn_hBReIO3-54">
          <mxGeometry y="25" width="285" height="69" as="geometry" />
        </mxCell>
        <mxCell id="ES9p-aZZBJGn_hBReIO3-56" value="" style="line;strokeWidth=1;fillColor=none;align=left;verticalAlign=middle;spacingTop=-1;spacingLeft=3;spacingRight=3;rotatable=0;labelPosition=right;points=[];portConstraint=eastwest;" vertex="1" parent="ES9p-aZZBJGn_hBReIO3-54">
          <mxGeometry y="94" width="285" height="8" as="geometry" />
        </mxCell>
        <mxCell id="ES9p-aZZBJGn_hBReIO3-57" value="" style="part=1;html=1;resizeHeight=0;strokeColor=none;fillColor=none;align=left;verticalAlign=middle;spacingLeft=4;spacingRight=4;overflow=hidden;rotatable=0;points=[[0,0.5],[1,0.5]];portConstraint=eastwest;swimlaneFillColor=#fcfcca;strokeOpacity=100;fillOpacity=100;whiteSpace=wrap;fontSize=13;" vertex="1" parent="ES9p-aZZBJGn_hBReIO3-54">
          <mxGeometry y="102" width="285" height="79.25" as="geometry" />
        </mxCell>
        <mxCell id="ES9p-aZZBJGn_hBReIO3-58" value="&lt;div style=&quot;display: flex; justify-content: center; text-align: center; align-items: baseline; font-size: 0; line-height: 1.25;margin-top: -2px;&quot;&gt;&lt;span&gt;&lt;span style=&quot;font-size:16.7px;color:#333333;font-style: italic;&quot;&gt;&amp;lt;&amp;lt;Aggregate Root&amp;gt;&amp;gt;&#xa;&lt;/span&gt;&lt;/span&gt;&lt;/div&gt;&lt;div style=&quot;display: flex; justify-content: center; text-align: center; align-items: baseline; font-size: 0; line-height: 1.25;margin-top: -2px;&quot;&gt;&lt;span&gt;&lt;span style=&quot;font-size:16.7px;color:#333333;font-style: italic;&quot;&gt;&amp;lt;&amp;lt;Entity&amp;gt;&amp;gt;&#xa;&lt;/span&gt;&lt;span style=&quot;font-size:16.7px;color:#333333;&quot;&gt;User&lt;/span&gt;&lt;/span&gt;&lt;/div&gt;" style="swimlane;childLayout=stackLayout;horizontal=1;horizontalStack=0;resizeParent=1;resizeParentMax=0;resizeLast=0;collapsible=0;fontStyle=0;marginBottom=0;swimlaneFillColor=#fcfcca;startSize=25;whiteSpace=wrap;overflow=block;blockSpacing=1;html=1;fontSize=13;align=left;spacing=0;strokeOpacity=100;fillOpacity=100;rounded=1;absoluteArcSize=1;arcSize=9;fillColor=#fcfcca;strokeWidth=0.8;" vertex="1" parent="WIyWlLk6GJQsqaUBKTNV-1">
          <mxGeometry x="5" y="1230" width="325" height="181.25" as="geometry" />
        </mxCell>
        <mxCell id="ES9p-aZZBJGn_hBReIO3-59" value="" style="part=1;resizeHeight=0;strokeColor=none;fillColor=none;align=left;verticalAlign=middle;spacingLeft=4;spacingRight=4;rotatable=0;points=[[0,0.5],[1,0.5]];portConstraint=eastwest;swimlaneFillColor=#fcfcca;strokeOpacity=100;fillOpacity=100;whiteSpace=wrap;overflow=block;blockSpacing=1;html=1;fontSize=13;" vertex="1" parent="ES9p-aZZBJGn_hBReIO3-58">
          <mxGeometry y="25" width="325" height="69" as="geometry" />
        </mxCell>
        <mxCell id="ES9p-aZZBJGn_hBReIO3-60" value="" style="line;strokeWidth=1;fillColor=none;align=left;verticalAlign=middle;spacingTop=-1;spacingLeft=3;spacingRight=3;rotatable=0;labelPosition=right;points=[];portConstraint=eastwest;" vertex="1" parent="ES9p-aZZBJGn_hBReIO3-58">
          <mxGeometry y="94" width="325" height="8" as="geometry" />
        </mxCell>
        <mxCell id="ES9p-aZZBJGn_hBReIO3-61" value="" style="part=1;html=1;resizeHeight=0;strokeColor=none;fillColor=none;align=left;verticalAlign=middle;spacingLeft=4;spacingRight=4;overflow=hidden;rotatable=0;points=[[0,0.5],[1,0.5]];portConstraint=eastwest;swimlaneFillColor=#fcfcca;strokeOpacity=100;fillOpacity=100;whiteSpace=wrap;fontSize=13;" vertex="1" parent="ES9p-aZZBJGn_hBReIO3-58">
          <mxGeometry y="102" width="325" height="79.25" as="geometry" />
        </mxCell>
        <mxCell id="ES9p-aZZBJGn_hBReIO3-62" value="&lt;div style=&quot;display: flex; justify-content: center; text-align: center; align-items: baseline; font-size: 0; line-height: 1.25;margin-top: -2px;&quot;&gt;&lt;span&gt;&lt;span style=&quot;font-size:16.7px;color:#333333;font-style: italic;&quot;&gt;&amp;lt;&amp;lt;Value Object&amp;gt;&amp;gt;&#xa;&lt;/span&gt;&lt;/span&gt;&lt;/div&gt;&lt;div style=&quot;display: flex; justify-content: center; text-align: center; align-items: baseline; font-size: 0; line-height: 1.25;margin-top: -2px;&quot;&gt;&lt;span&gt;&lt;span style=&quot;font-size:16.7px;color:#333333;&quot;&gt;&lt;span style=&quot;font-size:16.7px;color:#333333;&quot;&gt;UserId&lt;/span&gt;&lt;/span&gt;&lt;/span&gt;&lt;/div&gt;" style="swimlane;childLayout=stackLayout;horizontal=1;horizontalStack=0;resizeParent=1;resizeParentMax=0;resizeLast=0;collapsible=0;fontStyle=0;marginBottom=0;swimlaneFillColor=#fcfcca;startSize=25;whiteSpace=wrap;overflow=block;blockSpacing=1;html=1;fontSize=13;align=left;spacing=0;strokeOpacity=100;fillOpacity=100;rounded=1;absoluteArcSize=1;arcSize=9;fillColor=#fcfcca;strokeWidth=0.8;" vertex="1" parent="WIyWlLk6GJQsqaUBKTNV-1">
          <mxGeometry y="931" width="325" height="217.25" as="geometry" />
        </mxCell>
        <mxCell id="ES9p-aZZBJGn_hBReIO3-63" value="- id: String" style="part=1;resizeHeight=0;strokeColor=none;fillColor=none;align=left;verticalAlign=middle;spacingLeft=4;spacingRight=4;rotatable=0;points=[[0,0.5],[1,0.5]];portConstraint=eastwest;swimlaneFillColor=#fcfcca;strokeOpacity=100;fillOpacity=100;whiteSpace=wrap;overflow=block;blockSpacing=1;html=1;fontSize=13;" vertex="1" parent="ES9p-aZZBJGn_hBReIO3-62">
          <mxGeometry y="25" width="325" height="87" as="geometry" />
        </mxCell>
        <mxCell id="ES9p-aZZBJGn_hBReIO3-64" value="" style="line;strokeWidth=1;fillColor=none;align=left;verticalAlign=middle;spacingTop=-1;spacingLeft=3;spacingRight=3;rotatable=0;labelPosition=right;points=[];portConstraint=eastwest;" vertex="1" parent="ES9p-aZZBJGn_hBReIO3-62">
          <mxGeometry y="112" width="325" height="8" as="geometry" />
        </mxCell>
        <mxCell id="ES9p-aZZBJGn_hBReIO3-65" value="&lt;div style=&quot;display: flex; justify-content: center; text-align: center; align-items: baseline; font-size: 0; line-height: 1.25;margin-top: -2px;&quot;&gt;&lt;span&gt;&lt;span style=&quot;font-size:14px;color:#333333;&quot;&gt;+ create(id: string): void&#xa;&lt;/span&gt;&lt;/span&gt;&lt;/div&gt;&lt;div style=&quot;display: flex; justify-content: center; text-align: center; align-items: baseline; font-size: 0; line-height: 1.25;margin-top: -2px;&quot;&gt;&lt;span&gt;&lt;span style=&quot;font-size:14px;color:#333333;&quot;&gt;+ getId(): string&#xa;&lt;/span&gt;&lt;/span&gt;&lt;/div&gt;&lt;div style=&quot;display: flex; justify-content: center; text-align: center; align-items: baseline; font-size: 0; line-height: 1.25;margin-top: -2px;&quot;&gt;&lt;span&gt;&lt;span style=&quot;font-size:14px;color:#333333;&quot;&gt;+ setId(id: string): void&#xa;&lt;/span&gt;&lt;/span&gt;&lt;/div&gt;&lt;div style=&quot;display: flex; justify-content: center; text-align: center; align-items: baseline; font-size: 0; line-height: 1.25;margin-top: -2px;&quot;&gt;&lt;span&gt;&lt;span style=&quot;font-size:14px;color:#333333;&quot;&gt;- checkUUID(id: string): boolean&lt;/span&gt;&lt;/span&gt;&lt;/div&gt;" style="part=1;html=1;resizeHeight=0;strokeColor=none;fillColor=none;align=left;verticalAlign=middle;spacingLeft=4;spacingRight=4;overflow=hidden;rotatable=0;points=[[0,0.5],[1,0.5]];portConstraint=eastwest;swimlaneFillColor=#fcfcca;strokeOpacity=100;fillOpacity=100;whiteSpace=wrap;fontSize=14;fontColor=#333333;" vertex="1" parent="ES9p-aZZBJGn_hBReIO3-62">
          <mxGeometry y="120" width="325" height="97.25" as="geometry" />
        </mxCell>
        <mxCell id="ES9p-aZZBJGn_hBReIO3-66" value="&lt;div style=&quot;display: flex; justify-content: center; text-align: center; align-items: baseline; font-size: 0; line-height: 1.25;margin-top: -2px;&quot;&gt;&lt;span&gt;&lt;span style=&quot;font-size:16.7px;color:#333333;font-style: italic;&quot;&gt;&amp;lt;&amp;lt;Value Object&amp;gt;&amp;gt;&#xa;&lt;/span&gt;&lt;/span&gt;&lt;/div&gt;&lt;div style=&quot;display: flex; justify-content: center; text-align: center; align-items: baseline; font-size: 0; line-height: 1.25;margin-top: -2px;&quot;&gt;&lt;span&gt;&lt;span style=&quot;font-size:16.7px;color:#333333;&quot;&gt;&lt;span style=&quot;font-size:16.7px;color:#333333;&quot;&gt;UserName&lt;/span&gt;&lt;/span&gt;&lt;/span&gt;&lt;/div&gt;" style="swimlane;childLayout=stackLayout;horizontal=1;horizontalStack=0;resizeParent=1;resizeParentMax=0;resizeLast=0;collapsible=0;fontStyle=0;marginBottom=0;swimlaneFillColor=#fcfcca;startSize=25;whiteSpace=wrap;overflow=block;blockSpacing=1;html=1;fontSize=13;align=left;spacing=0;strokeOpacity=100;fillOpacity=100;rounded=1;absoluteArcSize=1;arcSize=9;fillColor=#fcfcca;strokeWidth=0.8;" vertex="1" parent="WIyWlLk6GJQsqaUBKTNV-1">
          <mxGeometry x="420" y="931" width="325" height="217.25" as="geometry" />
        </mxCell>
        <mxCell id="ES9p-aZZBJGn_hBReIO3-67" value="- name: String" style="part=1;resizeHeight=0;strokeColor=none;fillColor=none;align=left;verticalAlign=middle;spacingLeft=4;spacingRight=4;rotatable=0;points=[[0,0.5],[1,0.5]];portConstraint=eastwest;swimlaneFillColor=#fcfcca;strokeOpacity=100;fillOpacity=100;whiteSpace=wrap;overflow=block;blockSpacing=1;html=1;fontSize=13;" vertex="1" parent="ES9p-aZZBJGn_hBReIO3-66">
          <mxGeometry y="25" width="325" height="87" as="geometry" />
        </mxCell>
        <mxCell id="ES9p-aZZBJGn_hBReIO3-68" value="" style="line;strokeWidth=1;fillColor=none;align=left;verticalAlign=middle;spacingTop=-1;spacingLeft=3;spacingRight=3;rotatable=0;labelPosition=right;points=[];portConstraint=eastwest;" vertex="1" parent="ES9p-aZZBJGn_hBReIO3-66">
          <mxGeometry y="112" width="325" height="8" as="geometry" />
        </mxCell>
        <mxCell id="ES9p-aZZBJGn_hBReIO3-69" value="&lt;div style=&quot;display: flex; justify-content: center; text-align: center; align-items: baseline; font-size: 0; line-height: 1.25;margin-top: -2px;&quot;&gt;&lt;span&gt;&lt;span style=&quot;font-size:14px;color:#333333;&quot;&gt;+ create(name: string): void&#xa;&lt;/span&gt;&lt;/span&gt;&lt;/div&gt;&lt;div style=&quot;display: flex; justify-content: center; text-align: center; align-items: baseline; font-size: 0; line-height: 1.25;margin-top: -2px;&quot;&gt;&lt;span&gt;&lt;span style=&quot;font-size:14px;color:#333333;&quot;&gt;+ getName(): string&#xa;&lt;/span&gt;&lt;/span&gt;&lt;/div&gt;&lt;div style=&quot;display: flex; justify-content: center; text-align: center; align-items: baseline; font-size: 0; line-height: 1.25;margin-top: -2px;&quot;&gt;&lt;span&gt;&lt;span style=&quot;font-size:14px;color:#333333;&quot;&gt;+ setName(name: string): void&#xa;&lt;/span&gt;&lt;/span&gt;&lt;/div&gt;&lt;div style=&quot;display: flex; justify-content: center; text-align: center; align-items: baseline; font-size: 0; line-height: 1.25;margin-top: -2px;&quot;&gt;&lt;span&gt;&lt;span style=&quot;font-size:14px;color:#333333;&quot;&gt;- checkName(name: string): boolean&lt;/span&gt;&lt;/span&gt;&lt;/div&gt;" style="part=1;html=1;resizeHeight=0;strokeColor=none;fillColor=none;align=left;verticalAlign=middle;spacingLeft=4;spacingRight=4;overflow=hidden;rotatable=0;points=[[0,0.5],[1,0.5]];portConstraint=eastwest;swimlaneFillColor=#fcfcca;strokeOpacity=100;fillOpacity=100;whiteSpace=wrap;fontSize=14;fontColor=#333333;" vertex="1" parent="ES9p-aZZBJGn_hBReIO3-66">
          <mxGeometry y="120" width="325" height="97.25" as="geometry" />
        </mxCell>
        <mxCell id="ES9p-aZZBJGn_hBReIO3-70" value="&lt;div style=&quot;display: flex; justify-content: center; text-align: center; align-items: baseline; font-size: 0; line-height: 1.25;margin-top: -2px;&quot;&gt;&lt;span&gt;&lt;span style=&quot;font-size:16.7px;color:#333333;font-style: italic;&quot;&gt;&amp;lt;&amp;lt;enumerate&amp;gt;&amp;gt;&#xa;&lt;/span&gt;&lt;/span&gt;&lt;/div&gt;&lt;div style=&quot;display: flex; justify-content: center; text-align: center; align-items: baseline; font-size: 0; line-height: 1.25;margin-top: -2px;&quot;&gt;&lt;span&gt;&lt;span style=&quot;font-size:16.7px;color:#333333;&quot;&gt;&lt;span style=&quot;font-size:16.7px;color:#333333;&quot;&gt;UserGender&lt;/span&gt;&lt;/span&gt;&lt;/span&gt;&lt;/div&gt;" style="swimlane;childLayout=stackLayout;horizontal=1;horizontalStack=0;resizeParent=1;resizeParentMax=0;resizeLast=0;collapsible=0;fontStyle=0;marginBottom=0;swimlaneFillColor=#fcfcca;startSize=25;whiteSpace=wrap;overflow=block;blockSpacing=1;html=1;fontSize=13;align=left;spacing=0;strokeOpacity=100;fillOpacity=100;rounded=1;absoluteArcSize=1;arcSize=9;fillColor=#fcfcca;strokeWidth=0.8;" vertex="1" parent="WIyWlLk6GJQsqaUBKTNV-1">
          <mxGeometry x="825" y="960" width="325" height="162.25" as="geometry" />
        </mxCell>
        <mxCell id="ES9p-aZZBJGn_hBReIO3-71" value="&lt;div style=&quot;display: flex; justify-content: center; text-align: center; align-items: baseline; font-size: 0; line-height: 1.25;margin-top: -2px;&quot;&gt;&lt;span&gt;&lt;span style=&quot;font-size:14px;color:#333333;&quot;&gt;- M(masculino)&#xa;&lt;/span&gt;&lt;/span&gt;&lt;/div&gt;&lt;div style=&quot;display: flex; justify-content: center; text-align: center; align-items: baseline; font-size: 0; line-height: 1.25;margin-top: -2px;&quot;&gt;&lt;span&gt;&lt;span style=&quot;font-size:14px;color:#333333;&quot;&gt;- F (femenino)&lt;/span&gt;&lt;/span&gt;&lt;/div&gt;" style="part=1;resizeHeight=0;strokeColor=none;fillColor=none;align=left;verticalAlign=middle;spacingLeft=4;spacingRight=4;rotatable=0;points=[[0,0.5],[1,0.5]];portConstraint=eastwest;swimlaneFillColor=#fcfcca;strokeOpacity=100;fillOpacity=100;whiteSpace=wrap;overflow=block;blockSpacing=1;html=1;fontSize=13;" vertex="1" parent="ES9p-aZZBJGn_hBReIO3-70">
          <mxGeometry y="25" width="325" height="59" as="geometry" />
        </mxCell>
        <mxCell id="ES9p-aZZBJGn_hBReIO3-72" value="" style="line;strokeWidth=1;fillColor=none;align=left;verticalAlign=middle;spacingTop=-1;spacingLeft=3;spacingRight=3;rotatable=0;labelPosition=right;points=[];portConstraint=eastwest;" vertex="1" parent="ES9p-aZZBJGn_hBReIO3-70">
          <mxGeometry y="84" width="325" height="8" as="geometry" />
        </mxCell>
        <mxCell id="ES9p-aZZBJGn_hBReIO3-73" value="" style="part=1;resizeHeight=0;strokeColor=none;fillColor=none;align=left;verticalAlign=middle;spacingLeft=4;spacingRight=4;rotatable=0;points=[[0,0.5],[1,0.5]];portConstraint=eastwest;swimlaneFillColor=#fcfcca;strokeOpacity=100;fillOpacity=100;whiteSpace=wrap;overflow=block;blockSpacing=1;html=1;fontSize=13;" vertex="1" parent="ES9p-aZZBJGn_hBReIO3-70">
          <mxGeometry y="92" width="325" height="70.25" as="geometry" />
        </mxCell>
        <mxCell id="ES9p-aZZBJGn_hBReIO3-74" value="&lt;div style=&quot;display: flex; justify-content: center; text-align: center; align-items: baseline; font-size: 0; line-height: 1.25;margin-top: -2px;&quot;&gt;&lt;span&gt;&lt;span style=&quot;font-size:16.7px;color:#333333;font-style: italic;&quot;&gt;&amp;lt;&amp;lt;Value Object&amp;gt;&amp;gt;&#xa;&lt;/span&gt;&lt;/span&gt;&lt;/div&gt;&lt;div style=&quot;display: flex; justify-content: center; text-align: center; align-items: baseline; font-size: 0; line-height: 1.25;margin-top: -2px;&quot;&gt;&lt;span&gt;&lt;span style=&quot;font-size:16.7px;color:#333333;&quot;&gt;&lt;span style=&quot;font-size:16.7px;color:#333333;&quot;&gt;PlaylistId&lt;/span&gt;&lt;/span&gt;&lt;/span&gt;&lt;/div&gt;" style="swimlane;childLayout=stackLayout;horizontal=1;horizontalStack=0;resizeParent=1;resizeParentMax=0;resizeLast=0;collapsible=0;fontStyle=0;marginBottom=0;swimlaneFillColor=#fcfcca;startSize=25;whiteSpace=wrap;overflow=block;blockSpacing=1;html=1;fontSize=13;align=left;spacing=0;strokeOpacity=100;fillOpacity=100;rounded=1;absoluteArcSize=1;arcSize=9;fillColor=#fcfcca;strokeWidth=0.8;" vertex="1" parent="WIyWlLk6GJQsqaUBKTNV-1">
          <mxGeometry x="-1640" y="157" width="325" height="217.25" as="geometry" />
        </mxCell>
        <mxCell id="ES9p-aZZBJGn_hBReIO3-75" value="- id: String" style="part=1;resizeHeight=0;strokeColor=none;fillColor=none;align=left;verticalAlign=middle;spacingLeft=4;spacingRight=4;rotatable=0;points=[[0,0.5],[1,0.5]];portConstraint=eastwest;swimlaneFillColor=#fcfcca;strokeOpacity=100;fillOpacity=100;whiteSpace=wrap;overflow=block;blockSpacing=1;html=1;fontSize=13;" vertex="1" parent="ES9p-aZZBJGn_hBReIO3-74">
          <mxGeometry y="25" width="325" height="87" as="geometry" />
        </mxCell>
        <mxCell id="ES9p-aZZBJGn_hBReIO3-76" value="" style="line;strokeWidth=1;fillColor=none;align=left;verticalAlign=middle;spacingTop=-1;spacingLeft=3;spacingRight=3;rotatable=0;labelPosition=right;points=[];portConstraint=eastwest;" vertex="1" parent="ES9p-aZZBJGn_hBReIO3-74">
          <mxGeometry y="112" width="325" height="8" as="geometry" />
        </mxCell>
        <mxCell id="ES9p-aZZBJGn_hBReIO3-77" value="&lt;div style=&quot;display: flex; justify-content: center; text-align: center; align-items: baseline; font-size: 0; line-height: 1.25;margin-top: -2px;&quot;&gt;&lt;span&gt;&lt;span style=&quot;font-size:14px;color:#333333;&quot;&gt;+ create(id: string): void&#xa;&lt;/span&gt;&lt;/span&gt;&lt;/div&gt;&lt;div style=&quot;display: flex; justify-content: center; text-align: center; align-items: baseline; font-size: 0; line-height: 1.25;margin-top: -2px;&quot;&gt;&lt;span&gt;&lt;span style=&quot;font-size:14px;color:#333333;&quot;&gt;+ getId(): string&#xa;&lt;/span&gt;&lt;/span&gt;&lt;/div&gt;&lt;div style=&quot;display: flex; justify-content: center; text-align: center; align-items: baseline; font-size: 0; line-height: 1.25;margin-top: -2px;&quot;&gt;&lt;span&gt;&lt;span style=&quot;font-size:14px;color:#333333;&quot;&gt;+ setId(id: string): void&#xa;&lt;/span&gt;&lt;/span&gt;&lt;/div&gt;&lt;div style=&quot;display: flex; justify-content: center; text-align: center; align-items: baseline; font-size: 0; line-height: 1.25;margin-top: -2px;&quot;&gt;&lt;span&gt;&lt;span style=&quot;font-size:14px;color:#333333;&quot;&gt;- checkUUID(id: string): boolean&lt;/span&gt;&lt;/span&gt;&lt;/div&gt;" style="part=1;html=1;resizeHeight=0;strokeColor=none;fillColor=none;align=left;verticalAlign=middle;spacingLeft=4;spacingRight=4;overflow=hidden;rotatable=0;points=[[0,0.5],[1,0.5]];portConstraint=eastwest;swimlaneFillColor=#fcfcca;strokeOpacity=100;fillOpacity=100;whiteSpace=wrap;fontSize=14;fontColor=#333333;" vertex="1" parent="ES9p-aZZBJGn_hBReIO3-74">
          <mxGeometry y="120" width="325" height="97.25" as="geometry" />
        </mxCell>
        <mxCell id="ES9p-aZZBJGn_hBReIO3-78" value="&lt;div style=&quot;display: flex; justify-content: center; text-align: center; align-items: baseline; font-size: 0; line-height: 1.25;margin-top: -2px;&quot;&gt;&lt;span&gt;&lt;span style=&quot;font-size:16.7px;color:#333333;font-style: italic;&quot;&gt;&amp;lt;&amp;lt;Value Object&amp;gt;&amp;gt;&#xa;&lt;/span&gt;&lt;/span&gt;&lt;/div&gt;&lt;div style=&quot;display: flex; justify-content: center; text-align: center; align-items: baseline; font-size: 0; line-height: 1.25;margin-top: -2px;&quot;&gt;&lt;span&gt;&lt;span style=&quot;font-size:16.7px;color:#333333;&quot;&gt;&lt;span style=&quot;font-size:16.7px;color:#333333;&quot;&gt;PlaylistName&lt;/span&gt;&lt;/span&gt;&lt;/span&gt;&lt;/div&gt;" style="swimlane;childLayout=stackLayout;horizontal=1;horizontalStack=0;resizeParent=1;resizeParentMax=0;resizeLast=0;collapsible=0;fontStyle=0;marginBottom=0;swimlaneFillColor=#fcfcca;startSize=25;whiteSpace=wrap;overflow=block;blockSpacing=1;html=1;fontSize=13;align=left;spacing=0;strokeOpacity=100;fillOpacity=100;rounded=1;absoluteArcSize=1;arcSize=9;fillColor=#fcfcca;strokeWidth=0.8;" vertex="1" parent="WIyWlLk6GJQsqaUBKTNV-1">
          <mxGeometry x="-2010" y="157" width="325" height="217.25" as="geometry" />
        </mxCell>
        <mxCell id="ES9p-aZZBJGn_hBReIO3-79" value="- name: String" style="part=1;resizeHeight=0;strokeColor=none;fillColor=none;align=left;verticalAlign=middle;spacingLeft=4;spacingRight=4;rotatable=0;points=[[0,0.5],[1,0.5]];portConstraint=eastwest;swimlaneFillColor=#fcfcca;strokeOpacity=100;fillOpacity=100;whiteSpace=wrap;overflow=block;blockSpacing=1;html=1;fontSize=13;" vertex="1" parent="ES9p-aZZBJGn_hBReIO3-78">
          <mxGeometry y="25" width="325" height="87" as="geometry" />
        </mxCell>
        <mxCell id="ES9p-aZZBJGn_hBReIO3-80" value="" style="line;strokeWidth=1;fillColor=none;align=left;verticalAlign=middle;spacingTop=-1;spacingLeft=3;spacingRight=3;rotatable=0;labelPosition=right;points=[];portConstraint=eastwest;" vertex="1" parent="ES9p-aZZBJGn_hBReIO3-78">
          <mxGeometry y="112" width="325" height="8" as="geometry" />
        </mxCell>
        <mxCell id="ES9p-aZZBJGn_hBReIO3-81" value="&lt;div style=&quot;display: flex; justify-content: center; text-align: center; align-items: baseline; font-size: 0; line-height: 1.25;margin-top: -2px;&quot;&gt;&lt;span&gt;&lt;span style=&quot;font-size:14px;color:#333333;&quot;&gt;+ create(name: string): void&#xa;&lt;/span&gt;&lt;/span&gt;&lt;/div&gt;&lt;div style=&quot;display: flex; justify-content: center; text-align: center; align-items: baseline; font-size: 0; line-height: 1.25;margin-top: -2px;&quot;&gt;&lt;span&gt;&lt;span style=&quot;font-size:14px;color:#333333;&quot;&gt;+ getName(): string&#xa;&lt;/span&gt;&lt;/span&gt;&lt;/div&gt;&lt;div style=&quot;display: flex; justify-content: center; text-align: center; align-items: baseline; font-size: 0; line-height: 1.25;margin-top: -2px;&quot;&gt;&lt;span&gt;&lt;span style=&quot;font-size:14px;color:#333333;&quot;&gt;+ setName(name: string): void&#xa;&lt;/span&gt;&lt;/span&gt;&lt;/div&gt;&lt;div style=&quot;display: flex; justify-content: center; text-align: center; align-items: baseline; font-size: 0; line-height: 1.25;margin-top: -2px;&quot;&gt;&lt;span&gt;&lt;span style=&quot;font-size:14px;color:#333333;&quot;&gt;- checkName(name: string): boolean&lt;/span&gt;&lt;/span&gt;&lt;/div&gt;" style="part=1;html=1;resizeHeight=0;strokeColor=none;fillColor=none;align=left;verticalAlign=middle;spacingLeft=4;spacingRight=4;overflow=hidden;rotatable=0;points=[[0,0.5],[1,0.5]];portConstraint=eastwest;swimlaneFillColor=#fcfcca;strokeOpacity=100;fillOpacity=100;whiteSpace=wrap;fontSize=14;fontColor=#333333;" vertex="1" parent="ES9p-aZZBJGn_hBReIO3-78">
          <mxGeometry y="120" width="325" height="97.25" as="geometry" />
        </mxCell>
        <mxCell id="ES9p-aZZBJGn_hBReIO3-82" value="&lt;div style=&quot;display: flex; justify-content: center; text-align: center; align-items: baseline; font-size: 0; line-height: 1.25;margin-top: -2px;&quot;&gt;&lt;span&gt;&lt;span style=&quot;font-size:16.7px;color:#333333;font-style: italic;&quot;&gt;&amp;lt;&amp;lt;Value Object&amp;gt;&amp;gt;&#xa;&lt;/span&gt;&lt;/span&gt;&lt;/div&gt;&lt;div style=&quot;display: flex; justify-content: center; text-align: center; align-items: baseline; font-size: 0; line-height: 1.25;margin-top: -2px;&quot;&gt;&lt;span&gt;&lt;span style=&quot;font-size:16.7px;color:#333333;&quot;&gt;&lt;span style=&quot;font-size:16.7px;color:#333333;&quot;&gt;UserBirthDate&lt;/span&gt;&lt;/span&gt;&lt;/span&gt;&lt;/div&gt;" style="swimlane;childLayout=stackLayout;horizontal=1;horizontalStack=0;resizeParent=1;resizeParentMax=0;resizeLast=0;collapsible=0;fontStyle=0;marginBottom=0;swimlaneFillColor=#fcfcca;startSize=25;whiteSpace=wrap;overflow=block;blockSpacing=1;html=1;fontSize=13;align=left;spacing=0;strokeOpacity=100;fillOpacity=100;rounded=1;absoluteArcSize=1;arcSize=9;fillColor=#fcfcca;strokeWidth=0.8;" vertex="1" parent="WIyWlLk6GJQsqaUBKTNV-1">
          <mxGeometry x="825" y="1233" width="325" height="199.25" as="geometry" />
        </mxCell>
        <mxCell id="ES9p-aZZBJGn_hBReIO3-83" value="- date: timestamp" style="part=1;resizeHeight=0;strokeColor=none;fillColor=none;align=left;verticalAlign=middle;spacingLeft=4;spacingRight=4;rotatable=0;points=[[0,0.5],[1,0.5]];portConstraint=eastwest;swimlaneFillColor=#fcfcca;strokeOpacity=100;fillOpacity=100;whiteSpace=wrap;overflow=block;blockSpacing=1;html=1;fontSize=13;" vertex="1" parent="ES9p-aZZBJGn_hBReIO3-82">
          <mxGeometry y="25" width="325" height="78" as="geometry" />
        </mxCell>
        <mxCell id="ES9p-aZZBJGn_hBReIO3-84" value="" style="line;strokeWidth=1;fillColor=none;align=left;verticalAlign=middle;spacingTop=-1;spacingLeft=3;spacingRight=3;rotatable=0;labelPosition=right;points=[];portConstraint=eastwest;" vertex="1" parent="ES9p-aZZBJGn_hBReIO3-82">
          <mxGeometry y="103" width="325" height="8" as="geometry" />
        </mxCell>
        <mxCell id="ES9p-aZZBJGn_hBReIO3-85" value="&lt;div style=&quot;display: flex; justify-content: center; text-align: center; align-items: baseline; font-size: 0; line-height: 1.25;margin-top: -2px;&quot;&gt;&lt;span&gt;&lt;span style=&quot;font-size:14px;color:#333333;&quot;&gt;+ create(date: timestamp): void&#xa;&lt;/span&gt;&lt;/span&gt;&lt;/div&gt;&lt;div style=&quot;display: flex; justify-content: center; text-align: center; align-items: baseline; font-size: 0; line-height: 1.25;margin-top: -2px;&quot;&gt;&lt;span&gt;&lt;span style=&quot;font-size:14px;color:#333333;&quot;&gt;+ getId(): string&#xa;&lt;/span&gt;&lt;/span&gt;&lt;/div&gt;&lt;div style=&quot;display: flex; justify-content: center; text-align: center; align-items: baseline; font-size: 0; line-height: 1.25;margin-top: -2px;&quot;&gt;&lt;span&gt;&lt;span style=&quot;font-size:14px;color:#333333;&quot;&gt;+ setDate(date: timestamp): void&lt;/span&gt;&lt;/span&gt;&lt;/div&gt;" style="part=1;html=1;resizeHeight=0;strokeColor=none;fillColor=none;align=left;verticalAlign=middle;spacingLeft=4;spacingRight=4;overflow=hidden;rotatable=0;points=[[0,0.5],[1,0.5]];portConstraint=eastwest;swimlaneFillColor=#fcfcca;strokeOpacity=100;fillOpacity=100;whiteSpace=wrap;fontSize=14;fontColor=#333333;" vertex="1" parent="ES9p-aZZBJGn_hBReIO3-82">
          <mxGeometry y="111" width="325" height="88.25" as="geometry" />
        </mxCell>
        <mxCell id="ES9p-aZZBJGn_hBReIO3-86" value="&lt;div style=&quot;display: flex; justify-content: center; text-align: center; align-items: baseline; font-size: 0; line-height: 1.25;margin-top: -2px;&quot;&gt;&lt;span&gt;&lt;span style=&quot;font-size:16.7px;color:#333333;font-style: italic;&quot;&gt;&amp;lt;&amp;lt;Value Object&amp;gt;&amp;gt;&#xa;&lt;/span&gt;&lt;/span&gt;&lt;/div&gt;&lt;div style=&quot;display: flex; justify-content: center; text-align: center; align-items: baseline; font-size: 0; line-height: 1.25;margin-top: -2px;&quot;&gt;&lt;span&gt;&lt;span style=&quot;font-size:16.7px;color:#333333;&quot;&gt;&lt;span style=&quot;font-size:16.7px;color:#333333;&quot;&gt;PlaylistImageReference&lt;/span&gt;&lt;/span&gt;&lt;/span&gt;&lt;/div&gt;" style="swimlane;childLayout=stackLayout;horizontal=1;horizontalStack=0;resizeParent=1;resizeParentMax=0;resizeLast=0;collapsible=0;fontStyle=0;marginBottom=0;swimlaneFillColor=#fcfcca;startSize=25;whiteSpace=wrap;overflow=block;blockSpacing=1;html=1;fontSize=13;align=left;spacing=0;strokeOpacity=100;fillOpacity=100;rounded=1;absoluteArcSize=1;arcSize=9;fillColor=#fcfcca;strokeWidth=0.8;" vertex="1" parent="WIyWlLk6GJQsqaUBKTNV-1">
          <mxGeometry x="-2355" y="157" width="325" height="217.25" as="geometry" />
        </mxCell>
        <mxCell id="ES9p-aZZBJGn_hBReIO3-87" value="- reference: String" style="part=1;resizeHeight=0;strokeColor=none;fillColor=none;align=left;verticalAlign=middle;spacingLeft=4;spacingRight=4;rotatable=0;points=[[0,0.5],[1,0.5]];portConstraint=eastwest;swimlaneFillColor=#fcfcca;strokeOpacity=100;fillOpacity=100;whiteSpace=wrap;overflow=block;blockSpacing=1;html=1;fontSize=13;" vertex="1" parent="ES9p-aZZBJGn_hBReIO3-86">
          <mxGeometry y="25" width="325" height="87" as="geometry" />
        </mxCell>
        <mxCell id="ES9p-aZZBJGn_hBReIO3-88" value="" style="line;strokeWidth=1;fillColor=none;align=left;verticalAlign=middle;spacingTop=-1;spacingLeft=3;spacingRight=3;rotatable=0;labelPosition=right;points=[];portConstraint=eastwest;" vertex="1" parent="ES9p-aZZBJGn_hBReIO3-86">
          <mxGeometry y="112" width="325" height="8" as="geometry" />
        </mxCell>
        <mxCell id="ES9p-aZZBJGn_hBReIO3-89" value="&lt;div style=&quot;display: flex; justify-content: center; text-align: center; align-items: baseline; font-size: 0; line-height: 1.25;margin-top: -2px;&quot;&gt;&lt;span&gt;&lt;span style=&quot;font-size:14px;color:#333333;&quot;&gt;+ create(reference: string): void&#xa;&lt;/span&gt;&lt;/span&gt;&lt;/div&gt;&lt;div style=&quot;display: flex; justify-content: center; text-align: center; align-items: baseline; font-size: 0; line-height: 1.25;margin-top: -2px;&quot;&gt;&lt;span&gt;&lt;span style=&quot;font-size:14px;color:#333333;&quot;&gt;+ getReference(): string&#xa;&lt;/span&gt;&lt;/span&gt;&lt;/div&gt;&lt;div style=&quot;display: flex; justify-content: center; text-align: center; align-items: baseline; font-size: 0; line-height: 1.25;margin-top: -2px;&quot;&gt;&lt;span&gt;&lt;span style=&quot;font-size:14px;color:#333333;&quot;&gt;+ setReference(reference: string): void&#xa;&lt;/span&gt;&lt;/span&gt;&lt;/div&gt;&lt;div style=&quot;display: flex; justify-content: center; text-align: center; align-items: baseline; font-size: 0; line-height: 1.25;margin-top: -2px;&quot;&gt;&lt;span&gt;&lt;span style=&quot;font-size:14px;color:#333333;&quot;&gt;- checkReference(reference: string): boolean&lt;/span&gt;&lt;/span&gt;&lt;/div&gt;" style="part=1;html=1;resizeHeight=0;strokeColor=none;fillColor=none;align=left;verticalAlign=middle;spacingLeft=4;spacingRight=4;overflow=hidden;rotatable=0;points=[[0,0.5],[1,0.5]];portConstraint=eastwest;swimlaneFillColor=#fcfcca;strokeOpacity=100;fillOpacity=100;whiteSpace=wrap;fontSize=14;fontColor=#333333;" vertex="1" parent="ES9p-aZZBJGn_hBReIO3-86">
          <mxGeometry y="120" width="325" height="97.25" as="geometry" />
        </mxCell>
        <mxCell id="ES9p-aZZBJGn_hBReIO3-90" value="" style="html=1;jettySize=18;whiteSpace=wrap;fontSize=13;strokeOpacity=100;strokeWidth=0.8;rounded=1;arcSize=12;edgeStyle=orthogonalEdgeStyle;startArrow=diamond;startFill=1;startSize=16;endArrow=none;exitX=0.391;exitY=-0.002;exitPerimeter=0;entryX=1.001;entryY=0.5;entryPerimeter=0;lucidId=a1xRf_rOODwe;" edge="1" parent="WIyWlLk6GJQsqaUBKTNV-1" source="ES9p-aZZBJGn_hBReIO3-28" target="ES9p-aZZBJGn_hBReIO3-38">
          <mxGeometry width="100" height="100" relative="1" as="geometry">
            <Array as="points" />
          </mxGeometry>
        </mxCell>
        <mxCell id="ES9p-aZZBJGn_hBReIO3-91" value="1" style="text;html=1;resizable=0;labelBackgroundColor=default;align=center;verticalAlign=middle;fontStyle=1;fontColor=#333333;fontSize=13.3;" vertex="1" parent="ES9p-aZZBJGn_hBReIO3-90">
          <mxGeometry x="0.8815237149484014" relative="1" as="geometry">
            <mxPoint as="offset" />
          </mxGeometry>
        </mxCell>
        <mxCell id="ES9p-aZZBJGn_hBReIO3-92" value="&lt;div style=&quot;display: flex; justify-content: center; text-align: center; align-items: baseline; font-size: 0; line-height: 1.25;margin-top: -2px;&quot;&gt;&lt;span&gt;&lt;span style=&quot;font-size:16.7px;color:#333333;font-style: italic;&quot;&gt;&amp;lt;&amp;lt;Value Object&amp;gt;&amp;gt;&#xa;&lt;/span&gt;&lt;/span&gt;&lt;/div&gt;&lt;div style=&quot;display: flex; justify-content: center; text-align: center; align-items: baseline; font-size: 0; line-height: 1.25;margin-top: -2px;&quot;&gt;&lt;span&gt;&lt;span style=&quot;font-size:16.7px;color:#333333;&quot;&gt;&lt;span style=&quot;font-size:16.7px;color:#333333;&quot;&gt;song_name&lt;/span&gt;&lt;/span&gt;&lt;/span&gt;&lt;/div&gt;" style="swimlane;childLayout=stackLayout;horizontal=1;horizontalStack=0;resizeParent=1;resizeParentMax=0;resizeLast=0;collapsible=0;fontStyle=0;marginBottom=0;swimlaneFillColor=#fcfcca;startSize=25;whiteSpace=wrap;overflow=block;blockSpacing=1;html=1;fontSize=13;align=left;spacing=0;strokeOpacity=100;fillOpacity=100;rounded=1;absoluteArcSize=1;arcSize=9;fillColor=#fcfcca;strokeWidth=0.8;" vertex="1" parent="WIyWlLk6GJQsqaUBKTNV-1">
          <mxGeometry x="-465" y="-435" width="325" height="162.25" as="geometry" />
        </mxCell>
        <mxCell id="ES9p-aZZBJGn_hBReIO3-93" value="name:string" style="part=1;resizeHeight=0;strokeColor=none;fillColor=none;align=left;verticalAlign=middle;spacingLeft=4;spacingRight=4;rotatable=0;points=[[0,0.5],[1,0.5]];portConstraint=eastwest;swimlaneFillColor=#fcfcca;strokeOpacity=100;fillOpacity=100;whiteSpace=wrap;overflow=block;blockSpacing=1;html=1;fontSize=13;" vertex="1" parent="ES9p-aZZBJGn_hBReIO3-92">
          <mxGeometry y="25" width="325" height="59" as="geometry" />
        </mxCell>
        <mxCell id="ES9p-aZZBJGn_hBReIO3-94" value="" style="line;strokeWidth=1;fillColor=none;align=left;verticalAlign=middle;spacingTop=-1;spacingLeft=3;spacingRight=3;rotatable=0;labelPosition=right;points=[];portConstraint=eastwest;" vertex="1" parent="ES9p-aZZBJGn_hBReIO3-92">
          <mxGeometry y="84" width="325" height="8" as="geometry" />
        </mxCell>
        <mxCell id="ES9p-aZZBJGn_hBReIO3-95" value="" style="part=1;html=1;resizeHeight=0;strokeColor=none;fillColor=none;align=left;verticalAlign=middle;spacingLeft=4;spacingRight=4;overflow=hidden;rotatable=0;points=[[0,0.5],[1,0.5]];portConstraint=eastwest;swimlaneFillColor=#fcfcca;strokeOpacity=100;fillOpacity=100;whiteSpace=wrap;fontSize=13;" vertex="1" parent="ES9p-aZZBJGn_hBReIO3-92">
          <mxGeometry y="92" width="325" height="70.25" as="geometry" />
        </mxCell>
        <mxCell id="ES9p-aZZBJGn_hBReIO3-96" value="" style="html=1;jettySize=18;whiteSpace=wrap;fontSize=13;strokeOpacity=100;strokeWidth=0.8;rounded=1;arcSize=12;edgeStyle=orthogonalEdgeStyle;startArrow=diamond;startFill=1;startSize=16;endArrow=none;exitX=0.5;exitY=-0.002;exitPerimeter=0;entryX=-0.001;entryY=0.5;entryPerimeter=0;lucidId=T1xRhG2NGToA;" edge="1" parent="WIyWlLk6GJQsqaUBKTNV-1" source="ES9p-aZZBJGn_hBReIO3-28" target="ES9p-aZZBJGn_hBReIO3-92">
          <mxGeometry width="100" height="100" relative="1" as="geometry">
            <Array as="points" />
          </mxGeometry>
        </mxCell>
        <mxCell id="ES9p-aZZBJGn_hBReIO3-97" value="1" style="text;html=1;resizable=0;labelBackgroundColor=default;align=center;verticalAlign=middle;fontStyle=1;fontColor=#333333;fontSize=13.3;" vertex="1" parent="ES9p-aZZBJGn_hBReIO3-96">
          <mxGeometry x="0.8815237149484014" relative="1" as="geometry">
            <mxPoint as="offset" />
          </mxGeometry>
        </mxCell>
        <mxCell id="ES9p-aZZBJGn_hBReIO3-98" value="" style="html=1;jettySize=18;whiteSpace=wrap;fontSize=13;strokeOpacity=100;strokeWidth=0.8;rounded=1;arcSize=12;edgeStyle=orthogonalEdgeStyle;startArrow=none;endArrow=diamond;endFill=1;endSize=16;exitX=0.5;exitY=1.002;exitPerimeter=0;entryX=0.485;entryY=-0.002;entryPerimeter=0;lucidId=a2xRYPnwzMkw;" edge="1" parent="WIyWlLk6GJQsqaUBKTNV-1" source="ES9p-aZZBJGn_hBReIO3-62" target="ES9p-aZZBJGn_hBReIO3-58">
          <mxGeometry width="100" height="100" relative="1" as="geometry">
            <Array as="points" />
          </mxGeometry>
        </mxCell>
        <mxCell id="ES9p-aZZBJGn_hBReIO3-99" value="1" style="text;html=1;resizable=0;labelBackgroundColor=default;align=center;verticalAlign=middle;fontStyle=1;fontColor=#333333;fontSize=13.3;" vertex="1" parent="ES9p-aZZBJGn_hBReIO3-98">
          <mxGeometry x="-0.7455502152954654" relative="1" as="geometry">
            <mxPoint as="offset" />
          </mxGeometry>
        </mxCell>
        <mxCell id="ES9p-aZZBJGn_hBReIO3-100" value="" style="html=1;jettySize=18;whiteSpace=wrap;fontSize=13;strokeOpacity=100;strokeWidth=0.8;rounded=1;arcSize=12;edgeStyle=orthogonalEdgeStyle;startArrow=none;endArrow=diamond;endFill=1;endSize=16;exitX=0.5;exitY=1.002;exitPerimeter=0;entryX=1.001;entryY=0.05;entryPerimeter=0;lucidId=t2xRyf09r01m;" edge="1" parent="WIyWlLk6GJQsqaUBKTNV-1" source="ES9p-aZZBJGn_hBReIO3-66" target="ES9p-aZZBJGn_hBReIO3-58">
          <mxGeometry width="100" height="100" relative="1" as="geometry">
            <Array as="points" />
          </mxGeometry>
        </mxCell>
        <mxCell id="ES9p-aZZBJGn_hBReIO3-101" value="1" style="text;html=1;resizable=0;labelBackgroundColor=default;align=center;verticalAlign=middle;fontStyle=1;fontColor=#333333;fontSize=13.3;" vertex="1" parent="ES9p-aZZBJGn_hBReIO3-100">
          <mxGeometry x="-0.9239472454038874" relative="1" as="geometry">
            <mxPoint as="offset" />
          </mxGeometry>
        </mxCell>
        <mxCell id="ES9p-aZZBJGn_hBReIO3-102" value="" style="html=1;overflow=block;blockSpacing=1;whiteSpace=wrap;fontSize=13;align=center;spacing=3.8;strokeColor=#333333;strokeOpacity=100;fillOpacity=0;rounded=1;absoluteArcSize=1;arcSize=9;fillColor=#000000;strokeWidth=0.8;lucidId=x2xR2nvkngMc;" vertex="1" parent="WIyWlLk6GJQsqaUBKTNV-1">
          <mxGeometry x="-1635" y="1882" width="1481" height="592" as="geometry" />
        </mxCell>
        <mxCell id="ES9p-aZZBJGn_hBReIO3-103" value="Phone Aggregate" style="html=1;overflow=block;blockSpacing=1;whiteSpace=wrap;fontSize=16.7;fontColor=#333333;fontStyle=1;align=left;spacing=3.8;strokeOpacity=0;fillOpacity=0;rounded=1;absoluteArcSize=1;arcSize=9;fillColor=#ffffff;dashed=1;fixDash=1;strokeWidth=0.8;lucidId=x2xRYpMVOo-L;" vertex="1" parent="WIyWlLk6GJQsqaUBKTNV-1">
          <mxGeometry x="-1635" y="1829" width="236" height="53" as="geometry" />
        </mxCell>
        <mxCell id="ES9p-aZZBJGn_hBReIO3-104" value="&lt;div style=&quot;display: flex; justify-content: center; text-align: center; align-items: baseline; font-size: 0; line-height: 1.25;margin-top: -2px;&quot;&gt;&lt;span&gt;&lt;span style=&quot;font-size:16.7px;color:#333333;font-style: italic;&quot;&gt;&amp;lt;&amp;lt;Aggregate Root&amp;gt;&amp;gt;&#xa;&lt;/span&gt;&lt;/span&gt;&lt;/div&gt;&lt;div style=&quot;display: flex; justify-content: center; text-align: center; align-items: baseline; font-size: 0; line-height: 1.25;margin-top: -2px;&quot;&gt;&lt;span&gt;&lt;span style=&quot;font-size:16.7px;color:#333333;font-style: italic;&quot;&gt;&amp;lt;&amp;lt;Entity&amp;gt;&amp;gt;&#xa;&lt;/span&gt;&lt;span style=&quot;font-size:16.7px;color:#333333;&quot;&gt;Phone&lt;/span&gt;&lt;/span&gt;&lt;/div&gt;" style="swimlane;childLayout=stackLayout;horizontal=1;horizontalStack=0;resizeParent=1;resizeParentMax=0;resizeLast=0;collapsible=0;fontStyle=0;marginBottom=0;swimlaneFillColor=#fcfcca;startSize=25;whiteSpace=wrap;overflow=block;blockSpacing=1;html=1;fontSize=13;align=left;spacing=0;strokeOpacity=100;fillOpacity=100;rounded=1;absoluteArcSize=1;arcSize=9;fillColor=#fcfcca;strokeWidth=0.8;" vertex="1" parent="WIyWlLk6GJQsqaUBKTNV-1">
          <mxGeometry x="-1555" y="2219" width="325" height="199.25" as="geometry" />
        </mxCell>
        <mxCell id="ES9p-aZZBJGn_hBReIO3-105" value="&lt;div style=&quot;display: flex; justify-content: center; text-align: center; align-items: baseline; font-size: 0; line-height: 1.25;margin-top: -2px;&quot;&gt;&lt;span&gt;&lt;span style=&quot;font-size:14px;&quot;&gt;- value: PhoneNumber&#xa;&lt;/span&gt;&lt;/span&gt;&lt;/div&gt;&lt;div style=&quot;display: flex; justify-content: center; text-align: center; align-items: baseline; font-size: 0; line-height: 1.25;margin-top: -2px;&quot;&gt;&lt;span&gt;&lt;span style=&quot;font-size:14px;&quot;&gt;- prefix: PhonePrefix&lt;/span&gt;&lt;/span&gt;&lt;/div&gt;" style="part=1;resizeHeight=0;strokeColor=none;fillColor=none;align=left;verticalAlign=middle;spacingLeft=4;spacingRight=4;rotatable=0;points=[[0,0.5],[1,0.5]];portConstraint=eastwest;swimlaneFillColor=#fcfcca;strokeOpacity=100;fillOpacity=100;whiteSpace=wrap;overflow=block;blockSpacing=1;html=1;fontSize=13;" vertex="1" parent="ES9p-aZZBJGn_hBReIO3-104">
          <mxGeometry y="25" width="325" height="78" as="geometry" />
        </mxCell>
        <mxCell id="ES9p-aZZBJGn_hBReIO3-106" value="" style="line;strokeWidth=1;fillColor=none;align=left;verticalAlign=middle;spacingTop=-1;spacingLeft=3;spacingRight=3;rotatable=0;labelPosition=right;points=[];portConstraint=eastwest;" vertex="1" parent="ES9p-aZZBJGn_hBReIO3-104">
          <mxGeometry y="103" width="325" height="8" as="geometry" />
        </mxCell>
        <mxCell id="ES9p-aZZBJGn_hBReIO3-107" value="" style="part=1;resizeHeight=0;strokeColor=none;fillColor=none;align=left;verticalAlign=middle;spacingLeft=4;spacingRight=4;rotatable=0;points=[[0,0.5],[1,0.5]];portConstraint=eastwest;swimlaneFillColor=#fcfcca;strokeOpacity=100;fillOpacity=100;whiteSpace=wrap;overflow=block;blockSpacing=1;html=1;fontSize=13;" vertex="1" parent="ES9p-aZZBJGn_hBReIO3-104">
          <mxGeometry y="111" width="325" height="88.25" as="geometry" />
        </mxCell>
        <mxCell id="ES9p-aZZBJGn_hBReIO3-108" value="&lt;div style=&quot;display: flex; justify-content: center; text-align: center; align-items: baseline; font-size: 0; line-height: 1.25;margin-top: -2px;&quot;&gt;&lt;span&gt;&lt;span style=&quot;font-size:16.7px;color:#333333;font-style: italic;&quot;&gt;&amp;lt;&amp;lt;Value Object&amp;gt;&amp;gt;&#xa;&lt;/span&gt;&lt;/span&gt;&lt;/div&gt;&lt;div style=&quot;display: flex; justify-content: center; text-align: center; align-items: baseline; font-size: 0; line-height: 1.25;margin-top: -2px;&quot;&gt;&lt;span&gt;&lt;span style=&quot;font-size:16.7px;color:#333333;&quot;&gt;&lt;span style=&quot;font-size:16.7px;color:#333333;&quot;&gt;PhonePrefix&lt;/span&gt;&lt;/span&gt;&lt;/span&gt;&lt;/div&gt;" style="swimlane;childLayout=stackLayout;horizontal=1;horizontalStack=0;resizeParent=1;resizeParentMax=0;resizeLast=0;collapsible=0;fontStyle=0;marginBottom=0;swimlaneFillColor=#fcfcca;startSize=25;whiteSpace=wrap;overflow=block;blockSpacing=1;html=1;fontSize=13;align=left;spacing=0;strokeOpacity=100;fillOpacity=100;rounded=1;absoluteArcSize=1;arcSize=9;fillColor=#fcfcca;strokeWidth=0.8;" vertex="1" parent="WIyWlLk6GJQsqaUBKTNV-1">
          <mxGeometry x="-1560" y="1921" width="325" height="162.25" as="geometry" />
        </mxCell>
        <mxCell id="ES9p-aZZBJGn_hBReIO3-109" value="- value: PhoneOperatorEnum" style="part=1;resizeHeight=0;strokeColor=none;fillColor=none;align=left;verticalAlign=middle;spacingLeft=4;spacingRight=4;rotatable=0;points=[[0,0.5],[1,0.5]];portConstraint=eastwest;swimlaneFillColor=#fcfcca;strokeOpacity=100;fillOpacity=100;whiteSpace=wrap;overflow=block;blockSpacing=1;html=1;fontSize=13;" vertex="1" parent="ES9p-aZZBJGn_hBReIO3-108">
          <mxGeometry y="25" width="325" height="59" as="geometry" />
        </mxCell>
        <mxCell id="ES9p-aZZBJGn_hBReIO3-110" value="" style="line;strokeWidth=1;fillColor=none;align=left;verticalAlign=middle;spacingTop=-1;spacingLeft=3;spacingRight=3;rotatable=0;labelPosition=right;points=[];portConstraint=eastwest;" vertex="1" parent="ES9p-aZZBJGn_hBReIO3-108">
          <mxGeometry y="84" width="325" height="8" as="geometry" />
        </mxCell>
        <mxCell id="ES9p-aZZBJGn_hBReIO3-111" value="- isUsableOperator(phoneNumber:):boolean" style="part=1;html=1;resizeHeight=0;strokeColor=none;fillColor=none;align=left;verticalAlign=middle;spacingLeft=4;spacingRight=4;overflow=hidden;rotatable=0;points=[[0,0.5],[1,0.5]];portConstraint=eastwest;swimlaneFillColor=#fcfcca;strokeOpacity=100;fillOpacity=100;whiteSpace=wrap;fontSize=14;fontColor=#333333;" vertex="1" parent="ES9p-aZZBJGn_hBReIO3-108">
          <mxGeometry y="92" width="325" height="70.25" as="geometry" />
        </mxCell>
        <mxCell id="ES9p-aZZBJGn_hBReIO3-112" value="&lt;div style=&quot;display: flex; justify-content: center; text-align: center; align-items: baseline; font-size: 0; line-height: 1.25;margin-top: -2px;&quot;&gt;&lt;span&gt;&lt;span style=&quot;font-size:16.7px;color:#333333;font-style: italic;&quot;&gt;&amp;lt;&amp;lt;enumerate&amp;gt;&amp;gt;&#xa;&lt;/span&gt;&lt;/span&gt;&lt;/div&gt;&lt;div style=&quot;display: flex; justify-content: center; text-align: center; align-items: baseline; font-size: 0; line-height: 1.25;margin-top: -2px;&quot;&gt;&lt;span&gt;&lt;span style=&quot;font-size:16.7px;color:#333333;&quot;&gt;&lt;span style=&quot;font-size:16.7px;color:#333333;&quot;&gt;PhoneOperatorEnum&lt;/span&gt;&lt;/span&gt;&lt;/span&gt;&lt;/div&gt;" style="swimlane;childLayout=stackLayout;horizontal=1;horizontalStack=0;resizeParent=1;resizeParentMax=0;resizeLast=0;collapsible=0;fontStyle=0;marginBottom=0;swimlaneFillColor=#fcfcca;startSize=25;whiteSpace=wrap;overflow=block;blockSpacing=1;html=1;fontSize=13;align=left;spacing=0;strokeOpacity=100;fillOpacity=100;rounded=1;absoluteArcSize=1;arcSize=9;fillColor=#fcfcca;strokeWidth=0.8;" vertex="1" parent="WIyWlLk6GJQsqaUBKTNV-1">
          <mxGeometry x="-1110" y="1921" width="325" height="199.25" as="geometry" />
        </mxCell>
        <mxCell id="ES9p-aZZBJGn_hBReIO3-113" value="&lt;div style=&quot;display: flex; justify-content: center; text-align: center; align-items: baseline; font-size: 0; line-height: 1.25;margin-top: -2px;&quot;&gt;&lt;span&gt;&lt;span style=&quot;font-size:14px;color:#333333;&quot;&gt;+DIGITEL&#xa;&lt;/span&gt;&lt;/span&gt;&lt;/div&gt;&lt;div style=&quot;display: flex; justify-content: center; text-align: center; align-items: baseline; font-size: 0; line-height: 1.25;margin-top: -2px;&quot;&gt;&lt;span&gt;&lt;span style=&quot;font-size:14px;color:#333333;&quot;&gt;+MOVISTAR&#xa;&lt;/span&gt;&lt;/span&gt;&lt;/div&gt;&lt;div style=&quot;display: flex; justify-content: center; text-align: center; align-items: baseline; font-size: 0; line-height: 1.25;margin-top: -2px;&quot;&gt;&lt;span&gt;&lt;span style=&quot;font-size:14px;color:#333333;&quot;&gt;+MOVISTAROTHER&lt;/span&gt;&lt;/span&gt;&lt;/div&gt;" style="part=1;resizeHeight=0;strokeColor=none;fillColor=none;align=left;verticalAlign=middle;spacingLeft=4;spacingRight=4;rotatable=0;points=[[0,0.5],[1,0.5]];portConstraint=eastwest;swimlaneFillColor=#fcfcca;strokeOpacity=100;fillOpacity=100;whiteSpace=wrap;overflow=block;blockSpacing=1;html=1;fontSize=13;" vertex="1" parent="ES9p-aZZBJGn_hBReIO3-112">
          <mxGeometry y="25" width="325" height="78" as="geometry" />
        </mxCell>
        <mxCell id="ES9p-aZZBJGn_hBReIO3-114" value="" style="line;strokeWidth=1;fillColor=none;align=left;verticalAlign=middle;spacingTop=-1;spacingLeft=3;spacingRight=3;rotatable=0;labelPosition=right;points=[];portConstraint=eastwest;" vertex="1" parent="ES9p-aZZBJGn_hBReIO3-112">
          <mxGeometry y="103" width="325" height="8" as="geometry" />
        </mxCell>
        <mxCell id="ES9p-aZZBJGn_hBReIO3-115" value="" style="part=1;resizeHeight=0;strokeColor=none;fillColor=none;align=left;verticalAlign=middle;spacingLeft=4;spacingRight=4;rotatable=0;points=[[0,0.5],[1,0.5]];portConstraint=eastwest;swimlaneFillColor=#fcfcca;strokeOpacity=100;fillOpacity=100;whiteSpace=wrap;overflow=block;blockSpacing=1;html=1;fontSize=13;" vertex="1" parent="ES9p-aZZBJGn_hBReIO3-112">
          <mxGeometry y="111" width="325" height="88.25" as="geometry" />
        </mxCell>
        <mxCell id="ES9p-aZZBJGn_hBReIO3-116" value="&lt;div style=&quot;display: flex; justify-content: center; text-align: center; align-items: baseline; font-size: 0; line-height: 1.25;margin-top: -2px;&quot;&gt;&lt;span&gt;&lt;span style=&quot;font-size:16.7px;color:#333333;font-style: italic;&quot;&gt;&amp;lt;&amp;lt;Value Object&amp;gt;&amp;gt;&#xa;&lt;/span&gt;&lt;/span&gt;&lt;/div&gt;&lt;div style=&quot;display: flex; justify-content: center; text-align: center; align-items: baseline; font-size: 0; line-height: 1.25;margin-top: -2px;&quot;&gt;&lt;span&gt;&lt;span style=&quot;font-size:16.7px;color:#333333;&quot;&gt;&lt;span style=&quot;font-size:16.7px;color:#333333;&quot;&gt;IdPhone&lt;/span&gt;&lt;/span&gt;&lt;/span&gt;&lt;/div&gt;" style="swimlane;childLayout=stackLayout;horizontal=1;horizontalStack=0;resizeParent=1;resizeParentMax=0;resizeLast=0;collapsible=0;fontStyle=0;marginBottom=0;swimlaneFillColor=#fcfcca;startSize=25;whiteSpace=wrap;overflow=block;blockSpacing=1;html=1;fontSize=13;align=left;spacing=0;strokeOpacity=100;fillOpacity=100;rounded=1;absoluteArcSize=1;arcSize=9;fillColor=#fcfcca;strokeWidth=0.8;" vertex="1" parent="WIyWlLk6GJQsqaUBKTNV-1">
          <mxGeometry x="-720" y="1985" width="325" height="217.25" as="geometry" />
        </mxCell>
        <mxCell id="ES9p-aZZBJGn_hBReIO3-117" value="- id: UUID" style="part=1;resizeHeight=0;strokeColor=none;fillColor=none;align=left;verticalAlign=middle;spacingLeft=4;spacingRight=4;rotatable=0;points=[[0,0.5],[1,0.5]];portConstraint=eastwest;swimlaneFillColor=#fcfcca;strokeOpacity=100;fillOpacity=100;whiteSpace=wrap;overflow=block;blockSpacing=1;html=1;fontSize=13;" vertex="1" parent="ES9p-aZZBJGn_hBReIO3-116">
          <mxGeometry y="25" width="325" height="87" as="geometry" />
        </mxCell>
        <mxCell id="ES9p-aZZBJGn_hBReIO3-118" value="" style="line;strokeWidth=1;fillColor=none;align=left;verticalAlign=middle;spacingTop=-1;spacingLeft=3;spacingRight=3;rotatable=0;labelPosition=right;points=[];portConstraint=eastwest;" vertex="1" parent="ES9p-aZZBJGn_hBReIO3-116">
          <mxGeometry y="112" width="325" height="8" as="geometry" />
        </mxCell>
        <mxCell id="ES9p-aZZBJGn_hBReIO3-119" value="&lt;div style=&quot;display: flex; justify-content: center; text-align: center; align-items: baseline; font-size: 0; line-height: 1.25;margin-top: -2px;&quot;&gt;&lt;span&gt;&lt;span style=&quot;font-size:14px;color:#333333;&quot;&gt;+ create(id: string): void&#xa;&lt;/span&gt;&lt;/span&gt;&lt;/div&gt;&lt;div style=&quot;display: flex; justify-content: center; text-align: center; align-items: baseline; font-size: 0; line-height: 1.25;margin-top: -2px;&quot;&gt;&lt;span&gt;&lt;span style=&quot;font-size:14px;color:#333333;&quot;&gt;+ getId(): string&#xa;&lt;/span&gt;&lt;/span&gt;&lt;/div&gt;&lt;div style=&quot;display: flex; justify-content: center; text-align: center; align-items: baseline; font-size: 0; line-height: 1.25;margin-top: -2px;&quot;&gt;&lt;span&gt;&lt;span style=&quot;font-size:14px;color:#333333;&quot;&gt;+ setId(id: string): void&#xa;&lt;/span&gt;&lt;/span&gt;&lt;/div&gt;&lt;div style=&quot;display: flex; justify-content: center; text-align: center; align-items: baseline; font-size: 0; line-height: 1.25;margin-top: -2px;&quot;&gt;&lt;span&gt;&lt;span style=&quot;font-size:14px;color:#333333;&quot;&gt;- checkUUID(id: string): boolean&lt;/span&gt;&lt;/span&gt;&lt;/div&gt;" style="part=1;html=1;resizeHeight=0;strokeColor=none;fillColor=none;align=left;verticalAlign=middle;spacingLeft=4;spacingRight=4;overflow=hidden;rotatable=0;points=[[0,0.5],[1,0.5]];portConstraint=eastwest;swimlaneFillColor=#fcfcca;strokeOpacity=100;fillOpacity=100;whiteSpace=wrap;fontSize=14;fontColor=#333333;" vertex="1" parent="ES9p-aZZBJGn_hBReIO3-116">
          <mxGeometry y="120" width="325" height="97.25" as="geometry" />
        </mxCell>
        <mxCell id="ES9p-aZZBJGn_hBReIO3-120" value="" style="html=1;jettySize=18;whiteSpace=wrap;fontSize=13;strokeOpacity=100;strokeWidth=0.8;rounded=1;arcSize=12;edgeStyle=orthogonalEdgeStyle;startArrow=none;endArrow=diamond;endFill=1;endSize=16;exitX=0.5;exitY=1.003;exitPerimeter=0;entryX=0.485;entryY=-0.002;entryPerimeter=0;lucidId=x2xRHpot0ZAI;" edge="1" parent="WIyWlLk6GJQsqaUBKTNV-1" source="ES9p-aZZBJGn_hBReIO3-108" target="ES9p-aZZBJGn_hBReIO3-104">
          <mxGeometry width="100" height="100" relative="1" as="geometry">
            <Array as="points" />
          </mxGeometry>
        </mxCell>
        <mxCell id="ES9p-aZZBJGn_hBReIO3-121" value="1" style="text;html=1;resizable=0;labelBackgroundColor=default;align=center;verticalAlign=middle;fontStyle=1;fontColor=#333333;fontSize=13.3;" vertex="1" parent="ES9p-aZZBJGn_hBReIO3-120">
          <mxGeometry x="-0.7633831605178237" relative="1" as="geometry">
            <mxPoint as="offset" />
          </mxGeometry>
        </mxCell>
        <mxCell id="ES9p-aZZBJGn_hBReIO3-122" value="" style="html=1;jettySize=18;whiteSpace=wrap;fontSize=13;strokeOpacity=100;strokeWidth=0.8;rounded=1;arcSize=12;edgeStyle=orthogonalEdgeStyle;startArrow=none;endArrow=diamond;endFill=1;endSize=16;exitX=0.5;exitY=1.002;exitPerimeter=0;entryX=1.001;entryY=0.301;entryPerimeter=0;lucidId=K2xR7xDa-jjV;" edge="1" parent="WIyWlLk6GJQsqaUBKTNV-1" source="ES9p-aZZBJGn_hBReIO3-70" target="ES9p-aZZBJGn_hBReIO3-58">
          <mxGeometry width="100" height="100" relative="1" as="geometry">
            <Array as="points">
              <mxPoint x="987" y="1160" />
              <mxPoint x="727" y="1160" />
              <mxPoint x="727" y="1279" />
            </Array>
          </mxGeometry>
        </mxCell>
        <mxCell id="ES9p-aZZBJGn_hBReIO3-123" value="1" style="text;html=1;resizable=0;labelBackgroundColor=default;align=center;verticalAlign=middle;fontStyle=1;fontColor=#333333;fontSize=13.3;" vertex="1" parent="ES9p-aZZBJGn_hBReIO3-122">
          <mxGeometry x="-0.9668501998974812" relative="1" as="geometry">
            <mxPoint as="offset" />
          </mxGeometry>
        </mxCell>
        <mxCell id="ES9p-aZZBJGn_hBReIO3-124" value="&lt;div style=&quot;display: flex; justify-content: center; text-align: center; align-items: baseline; font-size: 0; line-height: 1.25;margin-top: -2px;&quot;&gt;&lt;span&gt;&lt;span style=&quot;font-size:16.7px;color:#333333;font-style: italic;&quot;&gt;&amp;lt;&amp;lt;Entity&amp;gt;&amp;gt;&#xa;&lt;/span&gt;&lt;/span&gt;&lt;/div&gt;&lt;div style=&quot;display: flex; justify-content: center; text-align: center; align-items: baseline; font-size: 0; line-height: 1.25;margin-top: -2px;&quot;&gt;&lt;span&gt;&lt;span style=&quot;font-size:16.7px;color:#333333;&quot;&gt;&lt;span style=&quot;font-size:16.7px;color:#333333;&quot;&gt;Reproductions&lt;/span&gt;&lt;/span&gt;&lt;/span&gt;&lt;/div&gt;" style="swimlane;childLayout=stackLayout;horizontal=1;horizontalStack=0;resizeParent=1;resizeParentMax=0;resizeLast=0;collapsible=0;fontStyle=0;marginBottom=0;swimlaneFillColor=#fcfcca;startSize=25;whiteSpace=wrap;overflow=block;blockSpacing=1;html=1;fontSize=13;align=left;spacing=0;strokeOpacity=100;fillOpacity=100;rounded=1;absoluteArcSize=1;arcSize=9;fillColor=#fcfcca;strokeWidth=0.8;" vertex="1" parent="WIyWlLk6GJQsqaUBKTNV-1">
          <mxGeometry x="-1645" y="645" width="325" height="162.25" as="geometry" />
        </mxCell>
        <mxCell id="ES9p-aZZBJGn_hBReIO3-125" value="- amount: number" style="part=1;resizeHeight=0;strokeColor=none;fillColor=none;align=left;verticalAlign=middle;spacingLeft=4;spacingRight=4;rotatable=0;points=[[0,0.5],[1,0.5]];portConstraint=eastwest;swimlaneFillColor=#fcfcca;strokeOpacity=100;fillOpacity=100;whiteSpace=wrap;overflow=block;blockSpacing=1;html=1;fontSize=13;" vertex="1" parent="ES9p-aZZBJGn_hBReIO3-124">
          <mxGeometry y="25" width="325" height="59" as="geometry" />
        </mxCell>
        <mxCell id="ES9p-aZZBJGn_hBReIO3-126" value="" style="line;strokeWidth=1;fillColor=none;align=left;verticalAlign=middle;spacingTop=-1;spacingLeft=3;spacingRight=3;rotatable=0;labelPosition=right;points=[];portConstraint=eastwest;" vertex="1" parent="ES9p-aZZBJGn_hBReIO3-124">
          <mxGeometry y="84" width="325" height="8" as="geometry" />
        </mxCell>
        <mxCell id="ES9p-aZZBJGn_hBReIO3-127" value="+ addReproduction(): void" style="part=1;html=1;resizeHeight=0;strokeColor=none;fillColor=none;align=left;verticalAlign=middle;spacingLeft=4;spacingRight=4;overflow=hidden;rotatable=0;points=[[0,0.5],[1,0.5]];portConstraint=eastwest;swimlaneFillColor=#fcfcca;strokeOpacity=100;fillOpacity=100;whiteSpace=wrap;fontSize=14;fontColor=#333333;" vertex="1" parent="ES9p-aZZBJGn_hBReIO3-124">
          <mxGeometry y="92" width="325" height="70.25" as="geometry" />
        </mxCell>
        <mxCell id="ES9p-aZZBJGn_hBReIO3-128" value="" style="html=1;jettySize=18;whiteSpace=wrap;fontSize=13;strokeOpacity=100;strokeWidth=0.8;rounded=1;arcSize=12;edgeStyle=orthogonalEdgeStyle;startArrow=none;endArrow=diamond;endFill=1;endSize=16;exitX=-0.001;exitY=0.5;exitPerimeter=0;entryX=1.001;entryY=0.574;entryPerimeter=0;lucidId=62xRP_t_Ax-m;" edge="1" parent="WIyWlLk6GJQsqaUBKTNV-1" source="ES9p-aZZBJGn_hBReIO3-82" target="ES9p-aZZBJGn_hBReIO3-58">
          <mxGeometry width="100" height="100" relative="1" as="geometry">
            <Array as="points" />
          </mxGeometry>
        </mxCell>
        <mxCell id="ES9p-aZZBJGn_hBReIO3-129" value="1" style="text;html=1;resizable=0;labelBackgroundColor=default;align=center;verticalAlign=middle;fontStyle=1;fontColor=#333333;fontSize=13.3;" vertex="1" parent="ES9p-aZZBJGn_hBReIO3-128">
          <mxGeometry x="-0.9301619483469342" relative="1" as="geometry">
            <mxPoint as="offset" />
          </mxGeometry>
        </mxCell>
        <mxCell id="ES9p-aZZBJGn_hBReIO3-130" value="&lt;div style=&quot;display: flex; justify-content: center; text-align: center; align-items: baseline; font-size: 0; line-height: 1.25;margin-top: -2px;&quot;&gt;&lt;span&gt;&lt;span style=&quot;font-size:16.7px;color:#333333;font-style: italic;&quot;&gt;&amp;lt;&amp;lt;Value Object&amp;gt;&amp;gt;&#xa;&lt;/span&gt;&lt;/span&gt;&lt;/div&gt;&lt;div style=&quot;display: flex; justify-content: center; text-align: center; align-items: baseline; font-size: 0; line-height: 1.25;margin-top: -2px;&quot;&gt;&lt;span&gt;&lt;span style=&quot;font-size:16.7px;color:#333333;&quot;&gt;&lt;span style=&quot;font-size:16.7px;color:#333333;&quot;&gt;creation_date_song&lt;/span&gt;&lt;/span&gt;&lt;/span&gt;&lt;/div&gt;" style="swimlane;childLayout=stackLayout;horizontal=1;horizontalStack=0;resizeParent=1;resizeParentMax=0;resizeLast=0;collapsible=0;fontStyle=0;marginBottom=0;swimlaneFillColor=#fcfcca;startSize=25;whiteSpace=wrap;overflow=block;blockSpacing=1;html=1;fontSize=13;align=left;spacing=0;strokeOpacity=100;fillOpacity=100;rounded=1;absoluteArcSize=1;arcSize=9;fillColor=#fcfcca;strokeWidth=0.8;" vertex="1" parent="WIyWlLk6GJQsqaUBKTNV-1">
          <mxGeometry x="-1200" y="-225" width="325" height="162.25" as="geometry" />
        </mxCell>
        <mxCell id="ES9p-aZZBJGn_hBReIO3-131" value="date:Date" style="part=1;resizeHeight=0;strokeColor=none;fillColor=none;align=left;verticalAlign=middle;spacingLeft=4;spacingRight=4;rotatable=0;points=[[0,0.5],[1,0.5]];portConstraint=eastwest;swimlaneFillColor=#fcfcca;strokeOpacity=100;fillOpacity=100;whiteSpace=wrap;overflow=block;blockSpacing=1;html=1;fontSize=13;" vertex="1" parent="ES9p-aZZBJGn_hBReIO3-130">
          <mxGeometry y="25" width="325" height="59" as="geometry" />
        </mxCell>
        <mxCell id="ES9p-aZZBJGn_hBReIO3-132" value="" style="line;strokeWidth=1;fillColor=none;align=left;verticalAlign=middle;spacingTop=-1;spacingLeft=3;spacingRight=3;rotatable=0;labelPosition=right;points=[];portConstraint=eastwest;" vertex="1" parent="ES9p-aZZBJGn_hBReIO3-130">
          <mxGeometry y="84" width="325" height="8" as="geometry" />
        </mxCell>
        <mxCell id="ES9p-aZZBJGn_hBReIO3-133" value="" style="part=1;html=1;resizeHeight=0;strokeColor=none;fillColor=none;align=left;verticalAlign=middle;spacingLeft=4;spacingRight=4;overflow=hidden;rotatable=0;points=[[0,0.5],[1,0.5]];portConstraint=eastwest;swimlaneFillColor=#fcfcca;strokeOpacity=100;fillOpacity=100;whiteSpace=wrap;fontSize=13;" vertex="1" parent="ES9p-aZZBJGn_hBReIO3-130">
          <mxGeometry y="92" width="325" height="70.25" as="geometry" />
        </mxCell>
        <mxCell id="ES9p-aZZBJGn_hBReIO3-134" value="" style="html=1;jettySize=18;whiteSpace=wrap;fontSize=13;strokeOpacity=100;strokeWidth=0.8;rounded=1;arcSize=12;edgeStyle=orthogonalEdgeStyle;startArrow=diamond;startFill=1;startSize=16;endArrow=none;exitX=-0.001;exitY=0.223;exitPerimeter=0;entryX=0.5;entryY=-0.003;entryPerimeter=0;lucidId=w3xRjQliOv4f;" edge="1" parent="WIyWlLk6GJQsqaUBKTNV-1" source="ES9p-aZZBJGn_hBReIO3-28" target="ES9p-aZZBJGn_hBReIO3-130">
          <mxGeometry width="100" height="100" relative="1" as="geometry">
            <Array as="points" />
          </mxGeometry>
        </mxCell>
        <mxCell id="ES9p-aZZBJGn_hBReIO3-135" value="1" style="text;html=1;resizable=0;labelBackgroundColor=default;align=center;verticalAlign=middle;fontStyle=1;fontColor=#333333;fontSize=13.3;" vertex="1" parent="ES9p-aZZBJGn_hBReIO3-134">
          <mxGeometry x="0.8815237149484014" relative="1" as="geometry">
            <mxPoint as="offset" />
          </mxGeometry>
        </mxCell>
        <mxCell id="ES9p-aZZBJGn_hBReIO3-136" value="" style="html=1;jettySize=18;whiteSpace=wrap;fontSize=13;strokeOpacity=100;strokeWidth=0.8;rounded=1;arcSize=12;edgeStyle=orthogonalEdgeStyle;startArrow=diamond;startFill=1;startSize=16;endArrow=none;exitX=1.001;exitY=0.489;exitPerimeter=0;entryX=-0.001;entryY=0.446;entryPerimeter=0;lucidId=N3xRCL3~yVIg;" edge="1" parent="WIyWlLk6GJQsqaUBKTNV-1" source="ES9p-aZZBJGn_hBReIO3-28" target="ES9p-aZZBJGn_hBReIO3-138">
          <mxGeometry width="100" height="100" relative="1" as="geometry">
            <Array as="points" />
          </mxGeometry>
        </mxCell>
        <mxCell id="ES9p-aZZBJGn_hBReIO3-137" value="1" style="text;html=1;resizable=0;labelBackgroundColor=default;align=center;verticalAlign=middle;fontStyle=1;fontColor=#333333;fontSize=13.3;" vertex="1" parent="ES9p-aZZBJGn_hBReIO3-136">
          <mxGeometry x="0.8815237149484014" relative="1" as="geometry">
            <mxPoint as="offset" />
          </mxGeometry>
        </mxCell>
        <mxCell id="ES9p-aZZBJGn_hBReIO3-138" value="&lt;div style=&quot;display: flex; justify-content: center; text-align: center; align-items: baseline; font-size: 0; line-height: 1.25;margin-top: -2px;&quot;&gt;&lt;span&gt;&lt;span style=&quot;font-size:16.7px;color:#333333;font-style: italic;&quot;&gt;&amp;lt;&amp;lt;Value Object&amp;gt;&amp;gt;&#xa;&lt;/span&gt;&lt;/span&gt;&lt;/div&gt;&lt;div style=&quot;display: flex; justify-content: center; text-align: center; align-items: baseline; font-size: 0; line-height: 1.25;margin-top: -2px;&quot;&gt;&lt;span&gt;&lt;span style=&quot;font-size:16.7px;color:#333333;font-style: italic;&quot;&gt;song_&lt;/span&gt;&lt;span style=&quot;font-size:16.7px;color:#333333;&quot;&gt;reference&lt;/span&gt;&lt;/span&gt;&lt;/div&gt;" style="swimlane;childLayout=stackLayout;horizontal=1;horizontalStack=0;resizeParent=1;resizeParentMax=0;resizeLast=0;collapsible=0;fontStyle=0;marginBottom=0;swimlaneFillColor=#fcfcca;startSize=25;whiteSpace=wrap;overflow=block;blockSpacing=1;html=1;fontSize=13;align=left;spacing=0;strokeOpacity=100;fillOpacity=100;rounded=1;absoluteArcSize=1;arcSize=9;fillColor=#fcfcca;strokeWidth=0.8;" vertex="1" parent="WIyWlLk6GJQsqaUBKTNV-1">
          <mxGeometry x="-465" y="-240" width="325" height="162.25" as="geometry" />
        </mxCell>
        <mxCell id="ES9p-aZZBJGn_hBReIO3-139" value="reference:string" style="part=1;resizeHeight=0;strokeColor=none;fillColor=none;align=left;verticalAlign=middle;spacingLeft=4;spacingRight=4;rotatable=0;points=[[0,0.5],[1,0.5]];portConstraint=eastwest;swimlaneFillColor=#fcfcca;strokeOpacity=100;fillOpacity=100;whiteSpace=wrap;overflow=block;blockSpacing=1;html=1;fontSize=13;" vertex="1" parent="ES9p-aZZBJGn_hBReIO3-138">
          <mxGeometry y="25" width="325" height="59" as="geometry" />
        </mxCell>
        <mxCell id="ES9p-aZZBJGn_hBReIO3-140" value="" style="line;strokeWidth=1;fillColor=none;align=left;verticalAlign=middle;spacingTop=-1;spacingLeft=3;spacingRight=3;rotatable=0;labelPosition=right;points=[];portConstraint=eastwest;" vertex="1" parent="ES9p-aZZBJGn_hBReIO3-138">
          <mxGeometry y="84" width="325" height="8" as="geometry" />
        </mxCell>
        <mxCell id="ES9p-aZZBJGn_hBReIO3-141" value="" style="part=1;html=1;resizeHeight=0;strokeColor=none;fillColor=none;align=left;verticalAlign=middle;spacingLeft=4;spacingRight=4;overflow=hidden;rotatable=0;points=[[0,0.5],[1,0.5]];portConstraint=eastwest;swimlaneFillColor=#fcfcca;strokeOpacity=100;fillOpacity=100;whiteSpace=wrap;fontSize=13;" vertex="1" parent="ES9p-aZZBJGn_hBReIO3-138">
          <mxGeometry y="92" width="325" height="70.25" as="geometry" />
        </mxCell>
        <mxCell id="ES9p-aZZBJGn_hBReIO3-142" value="&lt;div style=&quot;display: flex; justify-content: center; text-align: center; align-items: baseline; font-size: 0; line-height: 1.25;margin-top: -2px;&quot;&gt;&lt;span&gt;&lt;span style=&quot;font-size:16.7px;color:#333333;font-style: italic;&quot;&gt;&amp;lt;&amp;lt;Value Object&amp;gt;&amp;gt;&#xa;&lt;/span&gt;&lt;/span&gt;&lt;/div&gt;&lt;div style=&quot;display: flex; justify-content: center; text-align: center; align-items: baseline; font-size: 0; line-height: 1.25;margin-top: -2px;&quot;&gt;&lt;span&gt;&lt;span style=&quot;font-size:16.7px;color:#333333;&quot;&gt;&lt;span style=&quot;font-size:16.7px;color:#333333;&quot;&gt;song_preview&lt;/span&gt;&lt;/span&gt;&lt;/span&gt;&lt;/div&gt;" style="swimlane;childLayout=stackLayout;horizontal=1;horizontalStack=0;resizeParent=1;resizeParentMax=0;resizeLast=0;collapsible=0;fontStyle=0;marginBottom=0;swimlaneFillColor=#fcfcca;startSize=25;whiteSpace=wrap;overflow=block;blockSpacing=1;html=1;fontSize=13;align=left;spacing=0;strokeOpacity=100;fillOpacity=100;rounded=1;absoluteArcSize=1;arcSize=9;fillColor=#fcfcca;strokeWidth=0.8;" vertex="1" parent="WIyWlLk6GJQsqaUBKTNV-1">
          <mxGeometry x="-1200" y="-29" width="325" height="162.25" as="geometry" />
        </mxCell>
        <mxCell id="ES9p-aZZBJGn_hBReIO3-143" value="preview:string" style="part=1;resizeHeight=0;strokeColor=none;fillColor=none;align=left;verticalAlign=middle;spacingLeft=4;spacingRight=4;rotatable=0;points=[[0,0.5],[1,0.5]];portConstraint=eastwest;swimlaneFillColor=#fcfcca;strokeOpacity=100;fillOpacity=100;whiteSpace=wrap;overflow=block;blockSpacing=1;html=1;fontSize=13;" vertex="1" parent="ES9p-aZZBJGn_hBReIO3-142">
          <mxGeometry y="25" width="325" height="59" as="geometry" />
        </mxCell>
        <mxCell id="ES9p-aZZBJGn_hBReIO3-144" value="" style="line;strokeWidth=1;fillColor=none;align=left;verticalAlign=middle;spacingTop=-1;spacingLeft=3;spacingRight=3;rotatable=0;labelPosition=right;points=[];portConstraint=eastwest;" vertex="1" parent="ES9p-aZZBJGn_hBReIO3-142">
          <mxGeometry y="84" width="325" height="8" as="geometry" />
        </mxCell>
        <mxCell id="ES9p-aZZBJGn_hBReIO3-145" value="" style="part=1;html=1;resizeHeight=0;strokeColor=none;fillColor=none;align=left;verticalAlign=middle;spacingLeft=4;spacingRight=4;overflow=hidden;rotatable=0;points=[[0,0.5],[1,0.5]];portConstraint=eastwest;swimlaneFillColor=#fcfcca;strokeOpacity=100;fillOpacity=100;whiteSpace=wrap;fontSize=13;" vertex="1" parent="ES9p-aZZBJGn_hBReIO3-142">
          <mxGeometry y="92" width="325" height="70.25" as="geometry" />
        </mxCell>
        <mxCell id="ES9p-aZZBJGn_hBReIO3-146" value="" style="html=1;jettySize=18;whiteSpace=wrap;fontSize=13;strokeOpacity=100;strokeWidth=0.8;rounded=1;arcSize=12;edgeStyle=orthogonalEdgeStyle;startArrow=diamond;startFill=1;startSize=16;endArrow=none;exitX=0.249;exitY=1.002;exitPerimeter=0;entryX=1.001;entryY=0.5;entryPerimeter=0;lucidId=I4xRZBUFJJhf;" edge="1" parent="WIyWlLk6GJQsqaUBKTNV-1" source="ES9p-aZZBJGn_hBReIO3-28" target="ES9p-aZZBJGn_hBReIO3-142">
          <mxGeometry width="100" height="100" relative="1" as="geometry">
            <Array as="points" />
          </mxGeometry>
        </mxCell>
        <mxCell id="ES9p-aZZBJGn_hBReIO3-147" value="1" style="text;html=1;resizable=0;labelBackgroundColor=default;align=center;verticalAlign=middle;fontStyle=1;fontColor=#333333;fontSize=13.3;" vertex="1" parent="ES9p-aZZBJGn_hBReIO3-146">
          <mxGeometry x="0.8815237149484014" relative="1" as="geometry">
            <mxPoint as="offset" />
          </mxGeometry>
        </mxCell>
        <mxCell id="ES9p-aZZBJGn_hBReIO3-148" value="&lt;div style=&quot;display: flex; justify-content: center; text-align: center; align-items: baseline; font-size: 0; line-height: 1.25;margin-top: -2px;&quot;&gt;&lt;span&gt;&lt;span style=&quot;font-size:16.7px;font-style: italic;&quot;&gt;&amp;lt;&amp;lt;Aggregate Root&amp;gt;&amp;gt;&#xa;&lt;/span&gt;&lt;/span&gt;&lt;/div&gt;&lt;div style=&quot;display: flex; justify-content: center; text-align: center; align-items: baseline; font-size: 0; line-height: 1.25;margin-top: -2px;&quot;&gt;&lt;span&gt;&lt;span style=&quot;font-size:16.7px;font-style: italic;&quot;&gt;&amp;lt;&amp;lt;Entity&amp;gt;&amp;gt;&#xa;&lt;/span&gt;&lt;span style=&quot;font-size:16.7px;&quot;&gt;Promotion&lt;/span&gt;&lt;/span&gt;&lt;/div&gt;" style="swimlane;childLayout=stackLayout;horizontal=1;horizontalStack=0;resizeParent=1;resizeParentMax=0;resizeLast=0;collapsible=0;fontStyle=0;marginBottom=0;swimlaneFillColor=#fcfcca;startSize=25;whiteSpace=wrap;overflow=block;blockSpacing=1;html=1;fontSize=13;align=left;spacing=0;strokeOpacity=100;fillOpacity=100;rounded=1;absoluteArcSize=1;arcSize=9;fillColor=#fcfcca;strokeWidth=0.8;" vertex="1" parent="WIyWlLk6GJQsqaUBKTNV-1">
          <mxGeometry x="1526" y="1014" width="325" height="181.25" as="geometry" />
        </mxCell>
        <mxCell id="ES9p-aZZBJGn_hBReIO3-149" value="" style="part=1;resizeHeight=0;strokeColor=none;fillColor=none;align=left;verticalAlign=middle;spacingLeft=4;spacingRight=4;rotatable=0;points=[[0,0.5],[1,0.5]];portConstraint=eastwest;swimlaneFillColor=#fcfcca;strokeOpacity=100;fillOpacity=100;whiteSpace=wrap;overflow=block;blockSpacing=1;html=1;fontSize=13;" vertex="1" parent="ES9p-aZZBJGn_hBReIO3-148">
          <mxGeometry y="25" width="325" height="69" as="geometry" />
        </mxCell>
        <mxCell id="ES9p-aZZBJGn_hBReIO3-150" value="" style="line;strokeWidth=1;fillColor=none;align=left;verticalAlign=middle;spacingTop=-1;spacingLeft=3;spacingRight=3;rotatable=0;labelPosition=right;points=[];portConstraint=eastwest;" vertex="1" parent="ES9p-aZZBJGn_hBReIO3-148">
          <mxGeometry y="94" width="325" height="8" as="geometry" />
        </mxCell>
        <mxCell id="ES9p-aZZBJGn_hBReIO3-151" value="+ findById(id: string): Promotion" style="part=1;html=1;resizeHeight=0;strokeColor=none;fillColor=none;align=left;verticalAlign=middle;spacingLeft=4;spacingRight=4;overflow=hidden;rotatable=0;points=[[0,0.5],[1,0.5]];portConstraint=eastwest;swimlaneFillColor=#fcfcca;strokeOpacity=100;fillOpacity=100;whiteSpace=wrap;fontSize=14;" vertex="1" parent="ES9p-aZZBJGn_hBReIO3-148">
          <mxGeometry y="102" width="325" height="79.25" as="geometry" />
        </mxCell>
        <mxCell id="ES9p-aZZBJGn_hBReIO3-152" value="" style="html=1;jettySize=18;whiteSpace=wrap;fontSize=13;strokeOpacity=100;strokeWidth=0.8;rounded=1;arcSize=12;edgeStyle=orthogonalEdgeStyle;startArrow=diamond;startFill=1;startSize=16;endArrow=none;exitX=0.5;exitY=1.002;exitPerimeter=0;entryX=0.515;entryY=-0.003;entryPerimeter=0;lucidId=O5xRQJKhPwDH;" edge="1" parent="WIyWlLk6GJQsqaUBKTNV-1" source="ES9p-aZZBJGn_hBReIO3-54" target="ES9p-aZZBJGn_hBReIO3-124">
          <mxGeometry width="100" height="100" relative="1" as="geometry">
            <Array as="points" />
          </mxGeometry>
        </mxCell>
        <mxCell id="ES9p-aZZBJGn_hBReIO3-153" value="1" style="text;html=1;resizable=0;labelBackgroundColor=default;align=center;verticalAlign=middle;fontStyle=1;fontColor=#333333;fontSize=13.3;" vertex="1" parent="ES9p-aZZBJGn_hBReIO3-152">
          <mxGeometry x="0.6920448942406332" relative="1" as="geometry">
            <mxPoint as="offset" />
          </mxGeometry>
        </mxCell>
        <mxCell id="ES9p-aZZBJGn_hBReIO3-154" value="&lt;div style=&quot;display: flex; justify-content: center; text-align: center; align-items: baseline; font-size: 0; line-height: 1.25;margin-top: -2px;&quot;&gt;&lt;span&gt;&lt;span style=&quot;font-size:16.7px;font-style: italic;&quot;&gt;&amp;lt;&amp;lt;Value Object&amp;gt;&amp;gt;&#xa;&lt;/span&gt;&lt;/span&gt;&lt;/div&gt;&lt;div style=&quot;display: flex; justify-content: center; text-align: center; align-items: baseline; font-size: 0; line-height: 1.25;margin-top: -2px;&quot;&gt;&lt;span&gt;&lt;span style=&quot;font-size:16.7px;&quot;&gt;&lt;span style=&quot;font-size:16.7px;&quot;&gt;PromotionId&lt;/span&gt;&lt;/span&gt;&lt;/span&gt;&lt;/div&gt;" style="swimlane;childLayout=stackLayout;horizontal=1;horizontalStack=0;resizeParent=1;resizeParentMax=0;resizeLast=0;collapsible=0;fontStyle=0;marginBottom=0;swimlaneFillColor=#fcfcca;startSize=25;whiteSpace=wrap;overflow=block;blockSpacing=1;html=1;fontSize=13;align=left;spacing=0;strokeOpacity=100;fillOpacity=100;rounded=1;absoluteArcSize=1;arcSize=9;fillColor=#fcfcca;strokeWidth=0.8;" vertex="1" parent="WIyWlLk6GJQsqaUBKTNV-1">
          <mxGeometry x="2029" y="996" width="325" height="217.25" as="geometry" />
        </mxCell>
        <mxCell id="ES9p-aZZBJGn_hBReIO3-155" value="- id: String" style="part=1;resizeHeight=0;strokeColor=none;fillColor=none;align=left;verticalAlign=middle;spacingLeft=4;spacingRight=4;rotatable=0;points=[[0,0.5],[1,0.5]];portConstraint=eastwest;swimlaneFillColor=#fcfcca;strokeOpacity=100;fillOpacity=100;whiteSpace=wrap;overflow=block;blockSpacing=1;html=1;fontSize=13;" vertex="1" parent="ES9p-aZZBJGn_hBReIO3-154">
          <mxGeometry y="25" width="325" height="87" as="geometry" />
        </mxCell>
        <mxCell id="ES9p-aZZBJGn_hBReIO3-156" value="" style="line;strokeWidth=1;fillColor=none;align=left;verticalAlign=middle;spacingTop=-1;spacingLeft=3;spacingRight=3;rotatable=0;labelPosition=right;points=[];portConstraint=eastwest;" vertex="1" parent="ES9p-aZZBJGn_hBReIO3-154">
          <mxGeometry y="112" width="325" height="8" as="geometry" />
        </mxCell>
        <mxCell id="ES9p-aZZBJGn_hBReIO3-157" value="&lt;div style=&quot;display: flex; justify-content: center; text-align: center; align-items: baseline; font-size: 0; line-height: 1.25;margin-top: -2px;&quot;&gt;&lt;span&gt;&lt;span style=&quot;font-size:14px;&quot;&gt;+ create(id: string): void&#xa;&lt;/span&gt;&lt;/span&gt;&lt;/div&gt;&lt;div style=&quot;display: flex; justify-content: center; text-align: center; align-items: baseline; font-size: 0; line-height: 1.25;margin-top: -2px;&quot;&gt;&lt;span&gt;&lt;span style=&quot;font-size:14px;&quot;&gt;+ getId(): string&#xa;&lt;/span&gt;&lt;/span&gt;&lt;/div&gt;&lt;div style=&quot;display: flex; justify-content: center; text-align: center; align-items: baseline; font-size: 0; line-height: 1.25;margin-top: -2px;&quot;&gt;&lt;span&gt;&lt;span style=&quot;font-size:14px;&quot;&gt;+ setId(id: string): void&#xa;&lt;/span&gt;&lt;/span&gt;&lt;/div&gt;&lt;div style=&quot;display: flex; justify-content: center; text-align: center; align-items: baseline; font-size: 0; line-height: 1.25;margin-top: -2px;&quot;&gt;&lt;span&gt;&lt;span style=&quot;font-size:14px;&quot;&gt;- checkUUID(id: string): boolean&lt;/span&gt;&lt;/span&gt;&lt;/div&gt;" style="part=1;html=1;resizeHeight=0;strokeColor=none;fillColor=none;align=left;verticalAlign=middle;spacingLeft=4;spacingRight=4;overflow=hidden;rotatable=0;points=[[0,0.5],[1,0.5]];portConstraint=eastwest;swimlaneFillColor=#fcfcca;strokeOpacity=100;fillOpacity=100;whiteSpace=wrap;fontSize=14;" vertex="1" parent="ES9p-aZZBJGn_hBReIO3-154">
          <mxGeometry y="120" width="325" height="97.25" as="geometry" />
        </mxCell>
        <mxCell id="ES9p-aZZBJGn_hBReIO3-158" value="" style="html=1;jettySize=18;whiteSpace=wrap;fontSize=13;strokeOpacity=100;strokeWidth=0.8;rounded=1;arcSize=12;edgeStyle=orthogonalEdgeStyle;startArrow=diamond;startFill=1;startSize=16;endArrow=none;exitX=0.5;exitY=-0.002;exitPerimeter=0;entryX=0.5;entryY=1.002;entryPerimeter=0;lucidId=m6xRVQr.WkQc;" edge="1" parent="WIyWlLk6GJQsqaUBKTNV-1" source="ES9p-aZZBJGn_hBReIO3-54" target="ES9p-aZZBJGn_hBReIO3-74">
          <mxGeometry width="100" height="100" relative="1" as="geometry">
            <Array as="points" />
          </mxGeometry>
        </mxCell>
        <mxCell id="ES9p-aZZBJGn_hBReIO3-159" value="1" style="text;html=1;resizable=0;labelBackgroundColor=default;align=center;verticalAlign=middle;fontStyle=1;fontColor=#333333;fontSize=13.3;" vertex="1" parent="ES9p-aZZBJGn_hBReIO3-158">
          <mxGeometry x="0.6883931656717841" relative="1" as="geometry">
            <mxPoint as="offset" />
          </mxGeometry>
        </mxCell>
        <mxCell id="ES9p-aZZBJGn_hBReIO3-160" value="" style="html=1;jettySize=18;whiteSpace=wrap;fontSize=13;strokeOpacity=100;strokeWidth=0.8;rounded=1;arcSize=12;edgeStyle=orthogonalEdgeStyle;startArrow=diamond;startFill=1;startSize=16;endArrow=none;exitX=1.001;exitY=0.85;exitPerimeter=0;entryX=-0.001;entryY=0.5;entryPerimeter=0;lucidId=I6xRM5.W_A8W;" edge="1" parent="WIyWlLk6GJQsqaUBKTNV-1" source="ES9p-aZZBJGn_hBReIO3-28" target="ES9p-aZZBJGn_hBReIO3-164">
          <mxGeometry width="100" height="100" relative="1" as="geometry">
            <Array as="points" />
          </mxGeometry>
        </mxCell>
        <mxCell id="ES9p-aZZBJGn_hBReIO3-161" value="1" style="text;html=1;resizable=0;labelBackgroundColor=default;align=center;verticalAlign=middle;fontStyle=1;fontColor=#333333;fontSize=13.3;" vertex="1" parent="ES9p-aZZBJGn_hBReIO3-160">
          <mxGeometry x="0.8815237149484014" relative="1" as="geometry">
            <mxPoint as="offset" />
          </mxGeometry>
        </mxCell>
        <mxCell id="ES9p-aZZBJGn_hBReIO3-162" value="" style="html=1;jettySize=18;whiteSpace=wrap;fontSize=13;strokeOpacity=100;strokeWidth=0.8;rounded=1;arcSize=12;edgeStyle=orthogonalEdgeStyle;startArrow=diamond;startFill=1;startSize=16;endArrow=none;exitX=-0.001;exitY=0.175;exitPerimeter=0;entryX=0.5;entryY=1.002;entryPerimeter=0;lucidId=J6xRfB~AWmJj;" edge="1" parent="WIyWlLk6GJQsqaUBKTNV-1" source="ES9p-aZZBJGn_hBReIO3-54" target="ES9p-aZZBJGn_hBReIO3-78">
          <mxGeometry width="100" height="100" relative="1" as="geometry">
            <Array as="points" />
          </mxGeometry>
        </mxCell>
        <mxCell id="ES9p-aZZBJGn_hBReIO3-163" value="1" style="text;html=1;resizable=0;labelBackgroundColor=default;align=center;verticalAlign=middle;fontStyle=1;fontColor=#333333;fontSize=13.3;" vertex="1" parent="ES9p-aZZBJGn_hBReIO3-162">
          <mxGeometry x="0.9095936938741049" relative="1" as="geometry">
            <mxPoint as="offset" />
          </mxGeometry>
        </mxCell>
        <mxCell id="ES9p-aZZBJGn_hBReIO3-164" value="&lt;div style=&quot;display: flex; justify-content: center; text-align: center; align-items: baseline; font-size: 0; line-height: 1.25;margin-top: -2px;&quot;&gt;&lt;span&gt;&lt;span style=&quot;font-size:16.7px;color:#333333;font-style: italic;&quot;&gt;&amp;lt;&amp;lt;Value Object&amp;gt;&amp;gt;&#xa;&lt;/span&gt;&lt;/span&gt;&lt;/div&gt;&lt;div style=&quot;display: flex; justify-content: center; text-align: center; align-items: baseline; font-size: 0; line-height: 1.25;margin-top: -2px;&quot;&gt;&lt;span&gt;&lt;span style=&quot;font-size:16.7px;color:#333333;font-style: italic;&quot;&gt;song_&lt;/span&gt;&lt;span style=&quot;font-size:16.7px;color:#333333;&quot;&gt;image&lt;/span&gt;&lt;/span&gt;&lt;/div&gt;" style="swimlane;childLayout=stackLayout;horizontal=1;horizontalStack=0;resizeParent=1;resizeParentMax=0;resizeLast=0;collapsible=0;fontStyle=0;marginBottom=0;swimlaneFillColor=#fcfcca;startSize=25;whiteSpace=wrap;overflow=block;blockSpacing=1;html=1;fontSize=13;align=left;spacing=0;strokeOpacity=100;fillOpacity=100;rounded=1;absoluteArcSize=1;arcSize=9;fillColor=#fcfcca;strokeWidth=0.8;" vertex="1" parent="WIyWlLk6GJQsqaUBKTNV-1">
          <mxGeometry x="-465" y="-29" width="325" height="162.25" as="geometry" />
        </mxCell>
        <mxCell id="ES9p-aZZBJGn_hBReIO3-165" value="image:buffer" style="part=1;resizeHeight=0;strokeColor=none;fillColor=none;align=left;verticalAlign=middle;spacingLeft=4;spacingRight=4;rotatable=0;points=[[0,0.5],[1,0.5]];portConstraint=eastwest;swimlaneFillColor=#fcfcca;strokeOpacity=100;fillOpacity=100;whiteSpace=wrap;overflow=block;blockSpacing=1;html=1;fontSize=13;" vertex="1" parent="ES9p-aZZBJGn_hBReIO3-164">
          <mxGeometry y="25" width="325" height="59" as="geometry" />
        </mxCell>
        <mxCell id="ES9p-aZZBJGn_hBReIO3-166" value="" style="line;strokeWidth=1;fillColor=none;align=left;verticalAlign=middle;spacingTop=-1;spacingLeft=3;spacingRight=3;rotatable=0;labelPosition=right;points=[];portConstraint=eastwest;" vertex="1" parent="ES9p-aZZBJGn_hBReIO3-164">
          <mxGeometry y="84" width="325" height="8" as="geometry" />
        </mxCell>
        <mxCell id="ES9p-aZZBJGn_hBReIO3-167" value="" style="part=1;html=1;resizeHeight=0;strokeColor=none;fillColor=none;align=left;verticalAlign=middle;spacingLeft=4;spacingRight=4;overflow=hidden;rotatable=0;points=[[0,0.5],[1,0.5]];portConstraint=eastwest;swimlaneFillColor=#fcfcca;strokeOpacity=100;fillOpacity=100;whiteSpace=wrap;fontSize=13;" vertex="1" parent="ES9p-aZZBJGn_hBReIO3-164">
          <mxGeometry y="92" width="325" height="70.25" as="geometry" />
        </mxCell>
        <mxCell id="ES9p-aZZBJGn_hBReIO3-168" value="&lt;div style=&quot;display: flex; justify-content: center; text-align: center; align-items: baseline; font-size: 0; line-height: 1.25;margin-top: -2px;&quot;&gt;&lt;span&gt;&lt;span style=&quot;font-size:16.7px;font-style: italic;&quot;&gt;&amp;lt;&amp;lt;Value Object&amp;gt;&amp;gt;&#xa;&lt;/span&gt;&lt;/span&gt;&lt;/div&gt;&lt;div style=&quot;display: flex; justify-content: center; text-align: center; align-items: baseline; font-size: 0; line-height: 1.25;margin-top: -2px;&quot;&gt;&lt;span&gt;&lt;span style=&quot;font-size:16.7px;&quot;&gt;&lt;span style=&quot;font-size:16.7px;&quot;&gt;image_reference&lt;/span&gt;&lt;/span&gt;&lt;/span&gt;&lt;/div&gt;" style="swimlane;childLayout=stackLayout;horizontal=1;horizontalStack=0;resizeParent=1;resizeParentMax=0;resizeLast=0;collapsible=0;fontStyle=0;marginBottom=0;swimlaneFillColor=#fcfcca;startSize=25;whiteSpace=wrap;overflow=block;blockSpacing=1;html=1;fontSize=13;align=left;spacing=0;strokeOpacity=100;fillOpacity=100;rounded=1;absoluteArcSize=1;arcSize=9;fillColor=#fcfcca;strokeWidth=0.8;" vertex="1" parent="WIyWlLk6GJQsqaUBKTNV-1">
          <mxGeometry x="2029" y="1230" width="325" height="217.25" as="geometry" />
        </mxCell>
        <mxCell id="ES9p-aZZBJGn_hBReIO3-169" value="- reference: String" style="part=1;resizeHeight=0;strokeColor=none;fillColor=none;align=left;verticalAlign=middle;spacingLeft=4;spacingRight=4;rotatable=0;points=[[0,0.5],[1,0.5]];portConstraint=eastwest;swimlaneFillColor=#fcfcca;strokeOpacity=100;fillOpacity=100;whiteSpace=wrap;overflow=block;blockSpacing=1;html=1;fontSize=13;" vertex="1" parent="ES9p-aZZBJGn_hBReIO3-168">
          <mxGeometry y="25" width="325" height="87" as="geometry" />
        </mxCell>
        <mxCell id="ES9p-aZZBJGn_hBReIO3-170" value="" style="line;strokeWidth=1;fillColor=none;align=left;verticalAlign=middle;spacingTop=-1;spacingLeft=3;spacingRight=3;rotatable=0;labelPosition=right;points=[];portConstraint=eastwest;" vertex="1" parent="ES9p-aZZBJGn_hBReIO3-168">
          <mxGeometry y="112" width="325" height="8" as="geometry" />
        </mxCell>
        <mxCell id="ES9p-aZZBJGn_hBReIO3-171" value="&lt;div style=&quot;display: flex; justify-content: center; text-align: center; align-items: baseline; font-size: 0; line-height: 1.25;margin-top: -2px;&quot;&gt;&lt;span&gt;&lt;span style=&quot;font-size:14px;&quot;&gt;+ create(reference: string): void&#xa;&lt;/span&gt;&lt;/span&gt;&lt;/div&gt;&lt;div style=&quot;display: flex; justify-content: center; text-align: center; align-items: baseline; font-size: 0; line-height: 1.25;margin-top: -2px;&quot;&gt;&lt;span&gt;&lt;span style=&quot;font-size:14px;&quot;&gt;+ getReference(): string&#xa;&lt;/span&gt;&lt;/span&gt;&lt;/div&gt;&lt;div style=&quot;display: flex; justify-content: center; text-align: center; align-items: baseline; font-size: 0; line-height: 1.25;margin-top: -2px;&quot;&gt;&lt;span&gt;&lt;span style=&quot;font-size:14px;&quot;&gt;+ setReference(reference: string): void&#xa;&lt;/span&gt;&lt;/span&gt;&lt;/div&gt;&lt;div style=&quot;display: flex; justify-content: center; text-align: center; align-items: baseline; font-size: 0; line-height: 1.25;margin-top: -2px;&quot;&gt;&lt;span&gt;&lt;span style=&quot;font-size:14px;&quot;&gt;- checkReference(reference: string): boolean&lt;/span&gt;&lt;/span&gt;&lt;/div&gt;" style="part=1;html=1;resizeHeight=0;strokeColor=none;fillColor=none;align=left;verticalAlign=middle;spacingLeft=4;spacingRight=4;overflow=hidden;rotatable=0;points=[[0,0.5],[1,0.5]];portConstraint=eastwest;swimlaneFillColor=#fcfcca;strokeOpacity=100;fillOpacity=100;whiteSpace=wrap;fontSize=14;" vertex="1" parent="ES9p-aZZBJGn_hBReIO3-168">
          <mxGeometry y="120" width="325" height="97.25" as="geometry" />
        </mxCell>
        <mxCell id="ES9p-aZZBJGn_hBReIO3-172" value="" style="html=1;jettySize=18;whiteSpace=wrap;fontSize=13;strokeOpacity=100;strokeWidth=0.8;rounded=1;arcSize=12;edgeStyle=orthogonalEdgeStyle;startArrow=diamond;startFill=1;startSize=16;endArrow=none;exitX=-0.001;exitY=0.5;exitPerimeter=0;entryX=0.5;entryY=1.002;entryPerimeter=0;lucidId=b7xR~kvnWz~x;" edge="1" parent="WIyWlLk6GJQsqaUBKTNV-1" source="ES9p-aZZBJGn_hBReIO3-54" target="ES9p-aZZBJGn_hBReIO3-86">
          <mxGeometry width="100" height="100" relative="1" as="geometry">
            <Array as="points" />
          </mxGeometry>
        </mxCell>
        <mxCell id="ES9p-aZZBJGn_hBReIO3-173" value="1" style="text;html=1;resizable=0;labelBackgroundColor=default;align=center;verticalAlign=middle;fontStyle=1;fontColor=#333333;fontSize=13.3;" vertex="1" parent="ES9p-aZZBJGn_hBReIO3-172">
          <mxGeometry x="0.9447760161783632" relative="1" as="geometry">
            <mxPoint as="offset" />
          </mxGeometry>
        </mxCell>
        <mxCell id="ES9p-aZZBJGn_hBReIO3-174" value="" style="html=1;jettySize=18;whiteSpace=wrap;fontSize=13;strokeOpacity=100;strokeWidth=0.8;rounded=1;arcSize=12;edgeStyle=orthogonalEdgeStyle;startArrow=none;endArrow=diamond;endFill=1;endSize=16;exitX=-0.001;exitY=0.5;exitPerimeter=0;entryX=1.001;entryY=0.5;entryPerimeter=0;lucidId=P7xRiaELuysO;" edge="1" parent="WIyWlLk6GJQsqaUBKTNV-1" source="ES9p-aZZBJGn_hBReIO3-154" target="ES9p-aZZBJGn_hBReIO3-148">
          <mxGeometry width="100" height="100" relative="1" as="geometry">
            <Array as="points" />
          </mxGeometry>
        </mxCell>
        <mxCell id="ES9p-aZZBJGn_hBReIO3-175" value="1" style="text;html=1;resizable=0;labelBackgroundColor=default;align=center;verticalAlign=middle;fontStyle=1;fontSize=13.3;" vertex="1" parent="ES9p-aZZBJGn_hBReIO3-174">
          <mxGeometry x="-0.8517762400325373" relative="1" as="geometry">
            <mxPoint as="offset" />
          </mxGeometry>
        </mxCell>
        <mxCell id="ES9p-aZZBJGn_hBReIO3-176" value="" style="html=1;jettySize=18;whiteSpace=wrap;fontSize=13;strokeOpacity=100;strokeWidth=0.8;rounded=1;arcSize=12;edgeStyle=orthogonalEdgeStyle;startArrow=none;endArrow=diamond;endFill=1;endSize=16;exitX=0.391;exitY=1.002;exitPerimeter=0;entryX=1.001;entryY=0.759;entryPerimeter=0;lucidId=S7xRdM82dvCV;" edge="1" parent="WIyWlLk6GJQsqaUBKTNV-1" source="ES9p-aZZBJGn_hBReIO3-112" target="ES9p-aZZBJGn_hBReIO3-108">
          <mxGeometry width="100" height="100" relative="1" as="geometry">
            <Array as="points" />
          </mxGeometry>
        </mxCell>
        <mxCell id="ES9p-aZZBJGn_hBReIO3-177" value="1" style="text;html=1;resizable=0;labelBackgroundColor=default;align=center;verticalAlign=middle;fontStyle=1;fontColor=#333333;fontSize=13.3;" vertex="1" parent="ES9p-aZZBJGn_hBReIO3-176">
          <mxGeometry x="-0.946107013810703" relative="1" as="geometry">
            <mxPoint as="offset" />
          </mxGeometry>
        </mxCell>
        <mxCell id="ES9p-aZZBJGn_hBReIO3-178" value="" style="html=1;jettySize=18;whiteSpace=wrap;fontSize=13;strokeOpacity=100;strokeWidth=0.8;rounded=1;arcSize=12;edgeStyle=orthogonalEdgeStyle;startArrow=none;endArrow=diamond;endFill=1;endSize=16;exitX=0.24;exitY=1.002;exitPerimeter=0;entryX=1.001;entryY=0.156;entryPerimeter=0;lucidId=07xRdJH3YWE3;" edge="1" parent="WIyWlLk6GJQsqaUBKTNV-1" source="ES9p-aZZBJGn_hBReIO3-116" target="ES9p-aZZBJGn_hBReIO3-104">
          <mxGeometry width="100" height="100" relative="1" as="geometry">
            <Array as="points">
              <mxPoint x="-642" y="2247" />
            </Array>
          </mxGeometry>
        </mxCell>
        <mxCell id="ES9p-aZZBJGn_hBReIO3-179" value="1" style="text;html=1;resizable=0;labelBackgroundColor=default;align=center;verticalAlign=middle;fontStyle=1;fontColor=#333333;fontSize=13.3;" vertex="1" parent="ES9p-aZZBJGn_hBReIO3-178">
          <mxGeometry x="-0.9583176474104933" relative="1" as="geometry">
            <mxPoint as="offset" />
          </mxGeometry>
        </mxCell>
        <mxCell id="ES9p-aZZBJGn_hBReIO3-180" value="" style="html=1;jettySize=18;whiteSpace=wrap;fontSize=13;strokeOpacity=100;strokeWidth=0.8;rounded=1;arcSize=12;edgeStyle=orthogonalEdgeStyle;startArrow=none;endArrow=diamond;endFill=1;endSize=16;exitX=-0.001;exitY=0.5;exitPerimeter=0;entryX=0.5;entryY=1.002;entryPerimeter=0;lucidId=87xRgWj6dANX;" edge="1" parent="WIyWlLk6GJQsqaUBKTNV-1" source="ES9p-aZZBJGn_hBReIO3-168" target="ES9p-aZZBJGn_hBReIO3-148">
          <mxGeometry width="100" height="100" relative="1" as="geometry">
            <Array as="points">
              <mxPoint x="1689" y="1329" />
            </Array>
          </mxGeometry>
        </mxCell>
        <mxCell id="ES9p-aZZBJGn_hBReIO3-181" value="1" style="text;html=1;resizable=0;labelBackgroundColor=default;align=center;verticalAlign=middle;fontStyle=1;fontSize=13.3;" vertex="1" parent="ES9p-aZZBJGn_hBReIO3-180">
          <mxGeometry x="-0.9198061737976936" relative="1" as="geometry">
            <mxPoint as="offset" />
          </mxGeometry>
        </mxCell>
        <mxCell id="ES9p-aZZBJGn_hBReIO3-182" value="&amp;lt;&amp;lt;Value Object&amp;gt;&amp;gt;&#xa;song_genres" style="html=1;overflow=block;blockSpacing=1;swimlane;childLayout=stackLayout;horizontal=1;horizontalStack=0;resizeParent=1;resizeParentMax=0;resizeLast=0;collapsible=0;marginBottom=0;swimlaneFillColor=#fcfcca;startSize=25;whiteSpace=wrap;fontSize=16.7;fontColor=#333333;fontStyle=2;align=center;spacing=0;strokeOpacity=100;fillOpacity=100;rounded=1;absoluteArcSize=1;arcSize=9;fillColor=#fcfcca;strokeWidth=0.8;" vertex="1" parent="WIyWlLk6GJQsqaUBKTNV-1">
          <mxGeometry x="-837" y="180" width="325" height="162.25" as="geometry" />
        </mxCell>
        <mxCell id="ES9p-aZZBJGn_hBReIO3-183" value="image:buffer" style="part=1;html=1;resizeHeight=0;strokeColor=none;fillColor=none;align=left;verticalAlign=middle;spacingLeft=4;spacingRight=4;overflow=hidden;rotatable=0;points=[[0,0.5],[1,0.5]];portConstraint=eastwest;swimlaneFillColor=#fcfcca;strokeOpacity=100;fillOpacity=100;whiteSpace=wrap;fontSize=14;fontColor=#333333;" vertex="1" parent="ES9p-aZZBJGn_hBReIO3-182">
          <mxGeometry y="25" width="325" height="59" as="geometry" />
        </mxCell>
        <mxCell id="ES9p-aZZBJGn_hBReIO3-184" value="" style="line;strokeWidth=1;fillColor=none;align=left;verticalAlign=middle;spacingTop=-1;spacingLeft=3;spacingRight=3;rotatable=0;labelPosition=right;points=[];portConstraint=eastwest;" vertex="1" parent="ES9p-aZZBJGn_hBReIO3-182">
          <mxGeometry y="84" width="325" height="8" as="geometry" />
        </mxCell>
        <mxCell id="ES9p-aZZBJGn_hBReIO3-185" value="" style="part=1;html=1;resizeHeight=0;strokeColor=none;fillColor=none;align=left;verticalAlign=middle;spacingLeft=4;spacingRight=4;overflow=hidden;rotatable=0;points=[[0,0.5],[1,0.5]];portConstraint=eastwest;swimlaneFillColor=#fcfcca;strokeOpacity=100;fillOpacity=100;whiteSpace=wrap;fontSize=13;" vertex="1" parent="ES9p-aZZBJGn_hBReIO3-182">
          <mxGeometry y="92" width="325" height="70.25" as="geometry" />
        </mxCell>
        <mxCell id="ES9p-aZZBJGn_hBReIO3-186" value="" style="html=1;jettySize=18;whiteSpace=wrap;fontSize=13;strokeOpacity=100;strokeWidth=0.8;rounded=1;arcSize=12;edgeStyle=orthogonalEdgeStyle;startArrow=diamond;startFill=1;startSize=16;endArrow=none;exitX=0.5;exitY=1.002;exitPerimeter=0;entryX=0.492;entryY=-0.003;entryPerimeter=0;lucidId=h8xRYCPRDxlT;" edge="1" parent="WIyWlLk6GJQsqaUBKTNV-1" source="ES9p-aZZBJGn_hBReIO3-28" target="ES9p-aZZBJGn_hBReIO3-182">
          <mxGeometry width="100" height="100" relative="1" as="geometry">
            <Array as="points" />
          </mxGeometry>
        </mxCell>
        <mxCell id="ES9p-aZZBJGn_hBReIO3-187" value="1" style="text;html=1;resizable=0;labelBackgroundColor=default;align=center;verticalAlign=middle;fontStyle=1;fontColor=#333333;fontSize=13.3;" vertex="1" parent="ES9p-aZZBJGn_hBReIO3-186">
          <mxGeometry x="0.8815237149484014" relative="1" as="geometry">
            <mxPoint as="offset" />
          </mxGeometry>
        </mxCell>
        <mxCell id="ES9p-aZZBJGn_hBReIO3-188" value="&lt;div style=&quot;display: flex; justify-content: center; text-align: center; align-items: baseline; font-size: 0; line-height: 1.25;margin-top: -2px;&quot;&gt;&lt;span&gt;&lt;span style=&quot;font-size:16.7px;color:#333333;font-style: italic;&quot;&gt;&amp;lt;&amp;lt;Value Object&amp;gt;&amp;gt;&#xa;&lt;/span&gt;&lt;/span&gt;&lt;/div&gt;&lt;div style=&quot;display: flex; justify-content: center; text-align: center; align-items: baseline; font-size: 0; line-height: 1.25;margin-top: -2px;&quot;&gt;&lt;span&gt;&lt;span style=&quot;font-size:16.7px;color:#333333;&quot;&gt;&lt;span style=&quot;font-size:16.7px;color:#333333;&quot;&gt;Duration&lt;/span&gt;&lt;/span&gt;&lt;/span&gt;&lt;/div&gt;" style="swimlane;childLayout=stackLayout;horizontal=1;horizontalStack=0;resizeParent=1;resizeParentMax=0;resizeLast=0;collapsible=0;fontStyle=0;marginBottom=0;swimlaneFillColor=#fcfcca;startSize=25;whiteSpace=wrap;overflow=block;blockSpacing=1;html=1;fontSize=13;align=left;spacing=0;strokeOpacity=100;fillOpacity=100;rounded=1;absoluteArcSize=1;arcSize=9;fillColor=#fcfcca;strokeWidth=0.8;" vertex="1" parent="WIyWlLk6GJQsqaUBKTNV-1">
          <mxGeometry x="-2355" y="600" width="325" height="217.25" as="geometry" />
        </mxCell>
        <mxCell id="ES9p-aZZBJGn_hBReIO3-189" value="- duration: String" style="part=1;resizeHeight=0;strokeColor=none;fillColor=none;align=left;verticalAlign=middle;spacingLeft=4;spacingRight=4;rotatable=0;points=[[0,0.5],[1,0.5]];portConstraint=eastwest;swimlaneFillColor=#fcfcca;strokeOpacity=100;fillOpacity=100;whiteSpace=wrap;overflow=block;blockSpacing=1;html=1;fontSize=13;" vertex="1" parent="ES9p-aZZBJGn_hBReIO3-188">
          <mxGeometry y="25" width="325" height="87" as="geometry" />
        </mxCell>
        <mxCell id="ES9p-aZZBJGn_hBReIO3-190" value="" style="line;strokeWidth=1;fillColor=none;align=left;verticalAlign=middle;spacingTop=-1;spacingLeft=3;spacingRight=3;rotatable=0;labelPosition=right;points=[];portConstraint=eastwest;" vertex="1" parent="ES9p-aZZBJGn_hBReIO3-188">
          <mxGeometry y="112" width="325" height="8" as="geometry" />
        </mxCell>
        <mxCell id="ES9p-aZZBJGn_hBReIO3-191" value="&lt;div style=&quot;display: flex; justify-content: center; text-align: center; align-items: baseline; font-size: 0; line-height: 1.25;margin-top: -2px;&quot;&gt;&lt;span&gt;&lt;span style=&quot;font-size:14px;color:#333333;&quot;&gt;+ create(duration: string): void&#xa;&lt;/span&gt;&lt;/span&gt;&lt;/div&gt;&lt;div style=&quot;display: flex; justify-content: center; text-align: center; align-items: baseline; font-size: 0; line-height: 1.25;margin-top: -2px;&quot;&gt;&lt;span&gt;&lt;span style=&quot;font-size:14px;color:#333333;&quot;&gt;+ getDuration(): string&#xa;&lt;/span&gt;&lt;/span&gt;&lt;/div&gt;&lt;div style=&quot;display: flex; justify-content: center; text-align: center; align-items: baseline; font-size: 0; line-height: 1.25;margin-top: -2px;&quot;&gt;&lt;span&gt;&lt;span style=&quot;font-size:14px;color:#333333;&quot;&gt;+ setDuration(duration: string): void&#xa;&lt;/span&gt;&lt;/span&gt;&lt;/div&gt;&lt;div style=&quot;display: flex; justify-content: center; text-align: center; align-items: baseline; font-size: 0; line-height: 1.25;margin-top: -2px;&quot;&gt;&lt;span&gt;&lt;span style=&quot;font-size:14px;color:#333333;&quot;&gt;- checkDuration(duration: string): boolean&lt;/span&gt;&lt;/span&gt;&lt;/div&gt;" style="part=1;html=1;resizeHeight=0;strokeColor=none;fillColor=none;align=left;verticalAlign=middle;spacingLeft=4;spacingRight=4;overflow=hidden;rotatable=0;points=[[0,0.5],[1,0.5]];portConstraint=eastwest;swimlaneFillColor=#fcfcca;strokeOpacity=100;fillOpacity=100;whiteSpace=wrap;fontSize=14;fontColor=#333333;" vertex="1" parent="ES9p-aZZBJGn_hBReIO3-188">
          <mxGeometry y="120" width="325" height="97.25" as="geometry" />
        </mxCell>
        <mxCell id="ES9p-aZZBJGn_hBReIO3-192" value="" style="html=1;jettySize=18;whiteSpace=wrap;fontSize=13;strokeOpacity=100;strokeWidth=0.8;rounded=1;arcSize=12;edgeStyle=orthogonalEdgeStyle;startArrow=none;endArrow=diamond;endFill=1;endSize=16;exitX=0.5;exitY=-0.002;exitPerimeter=0;entryX=-0.001;entryY=0.75;entryPerimeter=0;lucidId=B-xRt_Wj4J8U;" edge="1" parent="WIyWlLk6GJQsqaUBKTNV-1" source="ES9p-aZZBJGn_hBReIO3-188" target="ES9p-aZZBJGn_hBReIO3-54">
          <mxGeometry width="100" height="100" relative="1" as="geometry">
            <Array as="points" />
          </mxGeometry>
        </mxCell>
        <mxCell id="ES9p-aZZBJGn_hBReIO3-193" value="1" style="text;html=1;resizable=0;labelBackgroundColor=default;align=center;verticalAlign=middle;fontStyle=1;fontColor=#333333;fontSize=13.3;" vertex="1" parent="ES9p-aZZBJGn_hBReIO3-192">
          <mxGeometry x="-0.958166760012777" relative="1" as="geometry">
            <mxPoint as="offset" />
          </mxGeometry>
        </mxCell>
        <mxCell id="ES9p-aZZBJGn_hBReIO3-194" value="" style="html=1;jettySize=18;whiteSpace=wrap;fontSize=13;strokeOpacity=100;strokeWidth=0.8;rounded=1;arcSize=12;edgeStyle=orthogonalEdgeStyle;startArrow=none;endArrow=block;endFill=1;exitX=1;exitY=0.906;exitPerimeter=0;entryX=0.07;entryY=1.001;entryPerimeter=0;lucidId=m_xR.OBdJqVP;" edge="1" parent="WIyWlLk6GJQsqaUBKTNV-1" source="ES9p-aZZBJGn_hBReIO3-49" target="ES9p-aZZBJGn_hBReIO3-1">
          <mxGeometry width="100" height="100" relative="1" as="geometry">
            <Array as="points" />
          </mxGeometry>
        </mxCell>
        <mxCell id="ES9p-aZZBJGn_hBReIO3-195" value="Use" style="text;html=1;resizable=0;labelBackgroundColor=default;align=center;verticalAlign=middle;fontStyle=1;fontColor=#333333;fontSize=21.7;" vertex="1" parent="ES9p-aZZBJGn_hBReIO3-194">
          <mxGeometry x="-0.05899991572927621" relative="1" as="geometry">
            <mxPoint y="-81.45400000000006" as="offset" />
          </mxGeometry>
        </mxCell>
        <mxCell id="ES9p-aZZBJGn_hBReIO3-196" value="" style="html=1;jettySize=18;whiteSpace=wrap;fontSize=13;strokeOpacity=100;strokeWidth=0.8;rounded=1;arcSize=12;edgeStyle=orthogonalEdgeStyle;startArrow=none;endArrow=block;endFill=1;exitX=1;exitY=0.612;exitPerimeter=0;entryX=0.5;entryY=1;entryPerimeter=0;lucidId=v_xRxo5GiHYS;" edge="1" parent="WIyWlLk6GJQsqaUBKTNV-1" source="ES9p-aZZBJGn_hBReIO3-49" target="ES9p-aZZBJGn_hBReIO3-26">
          <mxGeometry width="100" height="100" relative="1" as="geometry">
            <Array as="points" />
          </mxGeometry>
        </mxCell>
        <mxCell id="ES9p-aZZBJGn_hBReIO3-197" value="Use" style="text;html=1;resizable=0;labelBackgroundColor=default;align=center;verticalAlign=middle;fontStyle=1;fontColor=#333333;fontSize=21.7;" vertex="1" parent="ES9p-aZZBJGn_hBReIO3-196">
          <mxGeometry x="0.0512717527256803" relative="1" as="geometry">
            <mxPoint as="offset" />
          </mxGeometry>
        </mxCell>
        <mxCell id="ES9p-aZZBJGn_hBReIO3-198" value="&lt;div style=&quot;display: flex; justify-content: center; text-align: center; align-items: baseline; font-size: 0; line-height: 1.25;margin-top: -2px;&quot;&gt;&lt;span&gt;&lt;span style=&quot;font-size:16.7px;color:#333333;font-style: italic;&quot;&gt;&amp;lt;&amp;lt;Value Object&amp;gt;&amp;gt;&#xa;&lt;/span&gt;&lt;/span&gt;&lt;/div&gt;&lt;div style=&quot;display: flex; justify-content: center; text-align: center; align-items: baseline; font-size: 0; line-height: 1.25;margin-top: -2px;&quot;&gt;&lt;span&gt;&lt;span style=&quot;font-size:16.7px;color:#333333;&quot;&gt;&lt;span style=&quot;font-size:16.7px;color:#333333;&quot;&gt;PhoneNumber&lt;/span&gt;&lt;/span&gt;&lt;/span&gt;&lt;/div&gt;" style="swimlane;childLayout=stackLayout;horizontal=1;horizontalStack=0;resizeParent=1;resizeParentMax=0;resizeLast=0;collapsible=0;fontStyle=0;marginBottom=0;swimlaneFillColor=#fcfcca;startSize=25;whiteSpace=wrap;overflow=block;blockSpacing=1;html=1;fontSize=13;align=left;spacing=0;strokeOpacity=100;fillOpacity=100;rounded=1;absoluteArcSize=1;arcSize=9;fillColor=#fcfcca;strokeWidth=0.8;" vertex="1" parent="WIyWlLk6GJQsqaUBKTNV-1">
          <mxGeometry x="-815" y="2285" width="325" height="162.25" as="geometry" />
        </mxCell>
        <mxCell id="ES9p-aZZBJGn_hBReIO3-199" value="- value: number" style="part=1;resizeHeight=0;strokeColor=none;fillColor=none;align=left;verticalAlign=middle;spacingLeft=4;spacingRight=4;rotatable=0;points=[[0,0.5],[1,0.5]];portConstraint=eastwest;swimlaneFillColor=#fcfcca;strokeOpacity=100;fillOpacity=100;whiteSpace=wrap;overflow=block;blockSpacing=1;html=1;fontSize=13;" vertex="1" parent="ES9p-aZZBJGn_hBReIO3-198">
          <mxGeometry y="25" width="325" height="59" as="geometry" />
        </mxCell>
        <mxCell id="ES9p-aZZBJGn_hBReIO3-200" value="" style="line;strokeWidth=1;fillColor=none;align=left;verticalAlign=middle;spacingTop=-1;spacingLeft=3;spacingRight=3;rotatable=0;labelPosition=right;points=[];portConstraint=eastwest;" vertex="1" parent="ES9p-aZZBJGn_hBReIO3-198">
          <mxGeometry y="84" width="325" height="8" as="geometry" />
        </mxCell>
        <mxCell id="ES9p-aZZBJGn_hBReIO3-201" value="isValidLenght():boolean" style="part=1;html=1;resizeHeight=0;strokeColor=none;fillColor=none;align=left;verticalAlign=middle;spacingLeft=4;spacingRight=4;overflow=hidden;rotatable=0;points=[[0,0.5],[1,0.5]];portConstraint=eastwest;swimlaneFillColor=#fcfcca;strokeOpacity=100;fillOpacity=100;whiteSpace=wrap;fontSize=14;fontColor=#333333;" vertex="1" parent="ES9p-aZZBJGn_hBReIO3-198">
          <mxGeometry y="92" width="325" height="70.25" as="geometry" />
        </mxCell>
        <mxCell id="ES9p-aZZBJGn_hBReIO3-202" value="" style="html=1;jettySize=18;whiteSpace=wrap;fontSize=13;strokeOpacity=100;strokeWidth=0.8;rounded=1;arcSize=12;edgeStyle=orthogonalEdgeStyle;startArrow=none;endArrow=diamond;endFill=1;endSize=16;exitX=-0.001;exitY=0.5;exitPerimeter=0;entryX=0.5;entryY=1.002;entryPerimeter=0;lucidId=zmyRd2rUq2SE;" edge="1" parent="WIyWlLk6GJQsqaUBKTNV-1" source="ES9p-aZZBJGn_hBReIO3-198" target="ES9p-aZZBJGn_hBReIO3-104">
          <mxGeometry width="100" height="100" relative="1" as="geometry">
            <Array as="points">
              <mxPoint x="-845" y="2356" />
              <mxPoint x="-845" y="2427" />
              <mxPoint x="-1392" y="2427" />
            </Array>
          </mxGeometry>
        </mxCell>
        <mxCell id="ES9p-aZZBJGn_hBReIO3-203" value="1" style="text;html=1;resizable=0;labelBackgroundColor=default;align=center;verticalAlign=middle;fontStyle=1;fontColor=#333333;fontSize=13.3;" vertex="1" parent="ES9p-aZZBJGn_hBReIO3-202">
          <mxGeometry x="-0.9583176474104933" relative="1" as="geometry">
            <mxPoint y="55.86200000000008" as="offset" />
          </mxGeometry>
        </mxCell>
        <mxCell id="ES9p-aZZBJGn_hBReIO3-204" value="" style="html=1;jettySize=18;whiteSpace=wrap;fontSize=13;strokeOpacity=100;strokeWidth=0.8;rounded=1;arcSize=12;edgeStyle=orthogonalEdgeStyle;startArrow=none;exitX=0;exitY=0.191;exitPerimeter=0;entryX=0.359;entryY=-0.001;entryPerimeter=0;lucidId=QwyR_WzmA-JC;" edge="1" parent="WIyWlLk6GJQsqaUBKTNV-1" source="ES9p-aZZBJGn_hBReIO3-46" target="ES9p-aZZBJGn_hBReIO3-102">
          <mxGeometry width="100" height="100" relative="1" as="geometry">
            <Array as="points">
              <mxPoint x="-232" y="1635" />
              <mxPoint x="-232" y="1795" />
              <mxPoint x="-1102" y="1795" />
            </Array>
          </mxGeometry>
        </mxCell>
        <mxCell id="ES9p-aZZBJGn_hBReIO3-205" value="Use" style="text;html=1;resizable=0;labelBackgroundColor=default;align=center;verticalAlign=middle;fontStyle=1;fontColor=#333333;fontSize=21.7;" vertex="1" parent="ES9p-aZZBJGn_hBReIO3-204">
          <mxGeometry x="0.48388509741454233" relative="1" as="geometry">
            <mxPoint as="offset" />
          </mxGeometry>
        </mxCell>
        <mxCell id="ES9p-aZZBJGn_hBReIO3-206" value="" style="html=1;jettySize=18;whiteSpace=wrap;fontSize=13;strokeOpacity=100;strokeWidth=0.8;rounded=1;arcSize=12;edgeStyle=orthogonalEdgeStyle;startArrow=none;endArrow=block;endFill=1;exitX=0.273;exitY=1.001;exitPerimeter=0;entryX=0.33;entryY=-0.002;entryPerimeter=0;lucidId=vxyRFzDQZ5bI;" edge="1" parent="WIyWlLk6GJQsqaUBKTNV-1" source="ES9p-aZZBJGn_hBReIO3-49" target="ES9p-aZZBJGn_hBReIO3-209">
          <mxGeometry width="100" height="100" relative="1" as="geometry">
            <Array as="points" />
          </mxGeometry>
        </mxCell>
        <mxCell id="ES9p-aZZBJGn_hBReIO3-207" value="&amp;lt;&amp;lt;publish&amp;gt;&amp;gt;" style="text;html=1;resizable=0;labelBackgroundColor=default;align=center;verticalAlign=middle;fontStyle=1;fontSize=16.7;" vertex="1" parent="ES9p-aZZBJGn_hBReIO3-206">
          <mxGeometry x="-0.13888742816749455" relative="1" as="geometry">
            <mxPoint as="offset" />
          </mxGeometry>
        </mxCell>
        <mxCell id="ES9p-aZZBJGn_hBReIO3-208" value="" style="group;dropTarget=0;pointerEvents=0;" vertex="1" parent="WIyWlLk6GJQsqaUBKTNV-1">
          <mxGeometry x="-2447" y="931" width="642" height="240" as="geometry" />
        </mxCell>
        <mxCell id="ES9p-aZZBJGn_hBReIO3-209" value="" style="html=1;overflow=block;blockSpacing=1;whiteSpace=wrap;fontSize=13;align=center;spacing=3.8;strokeColor=#333333;strokeOpacity=100;fillOpacity=0;rounded=1;absoluteArcSize=1;arcSize=9;fillColor=#000000;dashed=1;fixDash=1;strokeWidth=0.8;lucidId=gByREWGDXhBn;" vertex="1" parent="ES9p-aZZBJGn_hBReIO3-208">
          <mxGeometry y="30" width="642" height="210" as="geometry" />
        </mxCell>
        <mxCell id="ES9p-aZZBJGn_hBReIO3-210" value="Domain Events" style="html=1;overflow=block;blockSpacing=1;whiteSpace=wrap;fontSize=16.7;fontColor=#333333;fontStyle=1;align=left;spacing=3.8;strokeOpacity=0;fillOpacity=0;rounded=1;absoluteArcSize=1;arcSize=9;fillColor=#ffffff;dashed=1;fixDash=1;strokeWidth=0.8;lucidId=gByRgi-Xa63R;" vertex="1" parent="ES9p-aZZBJGn_hBReIO3-208">
          <mxGeometry width="179" height="30" as="geometry" />
        </mxCell>
        <mxCell id="ES9p-aZZBJGn_hBReIO3-211" value="PlaybackUpdated" style="html=1;overflow=block;blockSpacing=1;whiteSpace=wrap;fontSize=16.7;fontColor=#333333;fontStyle=1;align=center;spacing=9;strokeOpacity=100;fillOpacity=100;rounded=1;absoluteArcSize=1;arcSize=9;fillColor=#fff7a1;strokeWidth=1.5;lucidId=4ByRVvCiLnL8;" vertex="1" parent="WIyWlLk6GJQsqaUBKTNV-1">
          <mxGeometry x="-2430" y="990" width="236" height="62" as="geometry" />
        </mxCell>
        <mxCell id="ES9p-aZZBJGn_hBReIO3-212" value="" style="html=1;jettySize=18;whiteSpace=wrap;fontSize=13;strokeOpacity=100;strokeWidth=0.8;rounded=1;arcSize=12;edgeStyle=orthogonalEdgeStyle;startArrow=none;endArrow=block;endFill=1;exitX=0.589;exitY=1;exitPerimeter=0;entryX=0.412;entryY=-0.002;entryPerimeter=0;lucidId=2UyRKRTeijEm;" edge="1" parent="WIyWlLk6GJQsqaUBKTNV-1" source="ES9p-aZZBJGn_hBReIO3-46" target="ES9p-aZZBJGn_hBReIO3-215">
          <mxGeometry width="100" height="100" relative="1" as="geometry">
            <Array as="points" />
          </mxGeometry>
        </mxCell>
        <mxCell id="ES9p-aZZBJGn_hBReIO3-213" value="&amp;lt;&amp;lt;publish&amp;gt;&amp;gt;" style="text;html=1;resizable=0;labelBackgroundColor=default;align=center;verticalAlign=middle;fontStyle=1;fontSize=16.7;" vertex="1" parent="ES9p-aZZBJGn_hBReIO3-212">
          <mxGeometry relative="1" as="geometry" />
        </mxCell>
        <mxCell id="ES9p-aZZBJGn_hBReIO3-214" value="" style="group;dropTarget=0;pointerEvents=0;" vertex="1" parent="WIyWlLk6GJQsqaUBKTNV-1">
          <mxGeometry x="435" y="1801" width="865" height="239" as="geometry" />
        </mxCell>
        <mxCell id="ES9p-aZZBJGn_hBReIO3-215" value="" style="html=1;overflow=block;blockSpacing=1;whiteSpace=wrap;fontSize=13;align=center;spacing=3.8;strokeColor=#333333;strokeOpacity=100;fillOpacity=0;rounded=1;absoluteArcSize=1;arcSize=9;fillColor=#000000;dashed=1;fixDash=1;strokeWidth=0.8;lucidId=2UyR~l1h3s_K;" vertex="1" parent="ES9p-aZZBJGn_hBReIO3-214">
          <mxGeometry y="30" width="865" height="209" as="geometry" />
        </mxCell>
        <mxCell id="ES9p-aZZBJGn_hBReIO3-216" value="Domain Events" style="html=1;overflow=block;blockSpacing=1;whiteSpace=wrap;fontSize=16.7;fontColor=#333333;fontStyle=1;align=left;spacing=3.8;strokeOpacity=0;fillOpacity=0;rounded=1;absoluteArcSize=1;arcSize=9;fillColor=#ffffff;dashed=1;fixDash=1;strokeWidth=0.8;lucidId=2UyRDzEPdFK-;" vertex="1" parent="ES9p-aZZBJGn_hBReIO3-214">
          <mxGeometry width="241" height="30" as="geometry" />
        </mxCell>
        <mxCell id="ES9p-aZZBJGn_hBReIO3-217" value="UserNameUpdated" style="html=1;overflow=block;blockSpacing=1;whiteSpace=wrap;fontSize=16.7;fontColor=#333333;fontStyle=1;align=center;spacing=9;strokeOpacity=100;fillOpacity=100;rounded=1;absoluteArcSize=1;arcSize=9;fillColor=#fff7a1;strokeWidth=1.5;lucidId=2UyRzlOL-wyB;" vertex="1" parent="WIyWlLk6GJQsqaUBKTNV-1">
          <mxGeometry x="475" y="1860" width="236" height="62" as="geometry" />
        </mxCell>
        <mxCell id="ES9p-aZZBJGn_hBReIO3-218" value="GenderUpdated" style="html=1;overflow=block;blockSpacing=1;whiteSpace=wrap;fontSize=16.7;fontColor=#333333;fontStyle=1;align=center;spacing=9;strokeOpacity=100;fillOpacity=100;rounded=1;absoluteArcSize=1;arcSize=9;fillColor=#fff7a1;strokeWidth=1.5;lucidId=8VyRvHT5N5Ss;" vertex="1" parent="WIyWlLk6GJQsqaUBKTNV-1">
          <mxGeometry x="745" y="1860" width="236" height="62" as="geometry" />
        </mxCell>
        <mxCell id="ES9p-aZZBJGn_hBReIO3-219" value="BirthDateUpdated" style="html=1;overflow=block;blockSpacing=1;whiteSpace=wrap;fontSize=16.7;fontColor=#333333;fontStyle=1;align=center;spacing=9;strokeOpacity=100;fillOpacity=100;rounded=1;absoluteArcSize=1;arcSize=9;fillColor=#fff7a1;strokeWidth=1.5;lucidId=OWyRheuYXLqi;" vertex="1" parent="WIyWlLk6GJQsqaUBKTNV-1">
          <mxGeometry x="1015" y="1860" width="236" height="62" as="geometry" />
        </mxCell>
        <mxCell id="ES9p-aZZBJGn_hBReIO3-220" value="UserNameCreated" style="html=1;overflow=block;blockSpacing=1;whiteSpace=wrap;fontSize=16.7;fontColor=#333333;fontStyle=1;align=center;spacing=9;strokeOpacity=100;fillOpacity=100;rounded=1;absoluteArcSize=1;arcSize=9;fillColor=#fff7a1;strokeWidth=1.5;lucidId=FXyRBx0eTDye;" vertex="1" parent="WIyWlLk6GJQsqaUBKTNV-1">
          <mxGeometry x="475" y="1950" width="236" height="62" as="geometry" />
        </mxCell>
        <mxCell id="ES9p-aZZBJGn_hBReIO3-221" value="BirthDateCreated" style="html=1;overflow=block;blockSpacing=1;whiteSpace=wrap;fontSize=16.7;fontColor=#333333;fontStyle=1;align=center;spacing=9;strokeOpacity=100;fillOpacity=100;rounded=1;absoluteArcSize=1;arcSize=9;fillColor=#fff7a1;strokeWidth=1.5;lucidId=3XyRNLb55wrE;" vertex="1" parent="WIyWlLk6GJQsqaUBKTNV-1">
          <mxGeometry x="749" y="1950" width="236" height="62" as="geometry" />
        </mxCell>
        <mxCell id="ES9p-aZZBJGn_hBReIO3-222" value="&lt;div style=&quot;display: flex; justify-content: center; text-align: center; align-items: baseline; font-size: 0; line-height: 1.25;margin-top: -2px;&quot;&gt;&lt;span&gt;&lt;span style=&quot;font-size:16.7px;color:#333333;font-style: italic;&quot;&gt;&amp;lt;&amp;lt;Entity&amp;gt;&amp;gt;&#xa;&lt;/span&gt;&lt;/span&gt;&lt;/div&gt;&lt;div style=&quot;display: flex; justify-content: center; text-align: center; align-items: baseline; font-size: 0; line-height: 1.25;margin-top: -2px;&quot;&gt;&lt;span&gt;&lt;span style=&quot;font-size:16.7px;color:#333333;&quot;&gt;&lt;span style=&quot;font-size:16.7px;color:#333333;&quot;&gt;SuscriptionState&lt;/span&gt;&lt;/span&gt;&lt;/span&gt;&lt;/div&gt;" style="swimlane;childLayout=stackLayout;horizontal=1;horizontalStack=0;resizeParent=1;resizeParentMax=0;resizeLast=0;collapsible=0;fontStyle=0;marginBottom=0;swimlaneFillColor=#fcfcca;startSize=25;whiteSpace=wrap;overflow=block;blockSpacing=1;html=1;fontSize=13;align=left;spacing=0;strokeOpacity=100;fillOpacity=100;rounded=1;absoluteArcSize=1;arcSize=9;fillColor=#fcfcca;strokeWidth=0.8;" vertex="1" parent="WIyWlLk6GJQsqaUBKTNV-1">
          <mxGeometry x="424" y="1429" width="325" height="217.25" as="geometry" />
        </mxCell>
        <mxCell id="ES9p-aZZBJGn_hBReIO3-223" value="-state: string" style="part=1;resizeHeight=0;strokeColor=none;fillColor=none;align=left;verticalAlign=middle;spacingLeft=4;spacingRight=4;rotatable=0;points=[[0,0.5],[1,0.5]];portConstraint=eastwest;swimlaneFillColor=#fcfcca;strokeOpacity=100;fillOpacity=100;whiteSpace=wrap;overflow=block;blockSpacing=1;html=1;fontSize=13;" vertex="1" parent="ES9p-aZZBJGn_hBReIO3-222">
          <mxGeometry y="25" width="325" height="87" as="geometry" />
        </mxCell>
        <mxCell id="ES9p-aZZBJGn_hBReIO3-224" value="" style="line;strokeWidth=1;fillColor=none;align=left;verticalAlign=middle;spacingTop=-1;spacingLeft=3;spacingRight=3;rotatable=0;labelPosition=right;points=[];portConstraint=eastwest;" vertex="1" parent="ES9p-aZZBJGn_hBReIO3-222">
          <mxGeometry y="112" width="325" height="8" as="geometry" />
        </mxCell>
        <mxCell id="ES9p-aZZBJGn_hBReIO3-225" value="&lt;div style=&quot;display: flex; justify-content: center; text-align: center; align-items: baseline; font-size: 0; line-height: 1.25;margin-top: -2px;&quot;&gt;&lt;span&gt;&lt;span style=&quot;font-size:14px;color:#333333;&quot;&gt;+ getId(): string&#xa;&lt;/span&gt;&lt;/span&gt;&lt;/div&gt;&lt;div style=&quot;display: flex; justify-content: center; text-align: center; align-items: baseline; font-size: 0; line-height: 1.25;margin-top: -2px;&quot;&gt;&lt;span&gt;&lt;span style=&quot;font-size:14px;color:#333333;&quot;&gt;+ setDate(state: string): void&lt;/span&gt;&lt;/span&gt;&lt;/div&gt;" style="part=1;html=1;resizeHeight=0;strokeColor=none;fillColor=none;align=left;verticalAlign=middle;spacingLeft=4;spacingRight=4;overflow=hidden;rotatable=0;points=[[0,0.5],[1,0.5]];portConstraint=eastwest;swimlaneFillColor=#fcfcca;strokeOpacity=100;fillOpacity=100;whiteSpace=wrap;fontSize=14;fontColor=#333333;" vertex="1" parent="ES9p-aZZBJGn_hBReIO3-222">
          <mxGeometry y="120" width="325" height="97.25" as="geometry" />
        </mxCell>
        <mxCell id="ES9p-aZZBJGn_hBReIO3-226" value="" style="html=1;jettySize=18;whiteSpace=wrap;fontSize=13;strokeOpacity=100;strokeWidth=0.8;rounded=1;arcSize=12;edgeStyle=orthogonalEdgeStyle;startArrow=none;endArrow=diamond;endFill=1;endSize=16;exitX=-0.001;exitY=0.576;exitPerimeter=0;entryX=0.243;entryY=1.002;entryPerimeter=0;lucidId=MjzROE3YgnEc;" edge="1" parent="WIyWlLk6GJQsqaUBKTNV-1" source="ES9p-aZZBJGn_hBReIO3-222" target="ES9p-aZZBJGn_hBReIO3-58">
          <mxGeometry width="100" height="100" relative="1" as="geometry">
            <Array as="points" />
          </mxGeometry>
        </mxCell>
        <mxCell id="ES9p-aZZBJGn_hBReIO3-227" value="1" style="text;html=1;resizable=0;labelBackgroundColor=default;align=center;verticalAlign=middle;fontStyle=1;fontColor=#333333;fontSize=13.3;" vertex="1" parent="ES9p-aZZBJGn_hBReIO3-226">
          <mxGeometry x="-0.9301619483469342" relative="1" as="geometry">
            <mxPoint as="offset" />
          </mxGeometry>
        </mxCell>
      </root>
    </mxGraphModel>
  </diagram>
</mxfile>
